<svg xmlns="http://www.w3.org/2000/svg" xmlns:xlink="http://www.w3.org/1999/xlink" contentStyleType="text/css" data-diagram-type="DESCRIPTION" height="328.7843px" preserveAspectRatio="none" style="width:800px;height:328px;background:#FFFFFF;" version="1.1" viewBox="0 0 800 328" width="800.6275px" zoomAndPan="magnify"><defs/><g><!--cluster Protocol Conformance--><g id="cluster_Protocol Conformance"><rect fill="#FFFFFF" height="147.451" rx="1.5686" ry="1.5686" style="stroke:#000000;stroke-width:0.6275;" width="141.8039" x="338.1961" y="7.5294"/><text fill="#000000" font-family="Verdana" font-size="8.7843" font-weight="bold" lengthAdjust="spacing" textLength="109.7739" x="354.2111" y="16.9381">Protocol Conformance</text></g><!--cluster Application-Level Tests--><g id="cluster_Application-Level Tests"><rect fill="#FFFFFF" height="149.3333" rx="1.5686" ry="1.5686" style="stroke:#000000;stroke-width:0.6275;" width="789.3333" x="7.5294" y="175.6863"/><text fill="#000000" font-family="Verdana" font-size="8.7843" font-weight="bold" lengthAdjust="spacing" textLength="115.5901" x="344.401" y="185.095">Application-Level Tests</text></g><!--entity L1Test--><g id="elem_L1Test"><rect fill="#FFFFFF" height="29.049" rx="1.5686" ry="1.5686" style="stroke:#000000;stroke-width:0.6275;" width="52.742" x="382.7451" y="29.4902"/><rect fill="#FFFFFF" height="6.2745" style="stroke:#000000;stroke-width:0.6275;" width="9.4118" x="422.9381" y="32.6275"/><rect fill="#FFFFFF" height="1.2549" style="stroke:#000000;stroke-width:0.6275;" width="2.5098" x="421.6832" y="33.8824"/><rect fill="#FFFFFF" height="1.2549" style="stroke:#000000;stroke-width:0.6275;" width="2.5098" x="421.6832" y="36.3922"/><text fill="#000000" font-family="Verdana" font-size="8.7843" lengthAdjust="spacing" textLength="27.644" x="392.1569" y="50.193">pytest</text></g><!--entity L1DUT--><g id="elem_L1DUT"><rect fill="#FFFFFF" height="29.049" rx="1.5686" ry="1.5686" style="stroke:#000000;stroke-width:0.6275;" width="120.9663" x="348.549" y="116.0784"/><rect fill="#FFFFFF" height="6.2745" style="stroke:#000000;stroke-width:0.6275;" width="9.4118" x="456.9663" y="119.2157"/><rect fill="#FFFFFF" height="1.2549" style="stroke:#000000;stroke-width:0.6275;" width="2.5098" x="455.7114" y="120.4706"/><rect fill="#FFFFFF" height="1.2549" style="stroke:#000000;stroke-width:0.6275;" width="2.5098" x="455.7114" y="122.9804"/><text fill="#000000" font-family="Verdana" font-size="8.7843" lengthAdjust="spacing" textLength="95.8683" x="357.9608" y="136.7813">someipd (standalone)</text></g><!--entity L2Orch--><g id="elem_L2Orch"><rect fill="#FFFFFF" height="39.2745" rx="1.5686" ry="1.5686" style="stroke:#000000;stroke-width:0.6275;" width="79.3309" x="369.5686" y="197.6471"/><rect fill="#FFFFFF" height="6.2745" style="stroke:#000000;stroke-width:0.6275;" width="9.4118" x="436.3505" y="200.7843"/><rect fill="#FFFFFF" height="1.2549" style="stroke:#000000;stroke-width:0.6275;" width="2.5098" x="435.0956" y="202.0392"/><rect fill="#FFFFFF" height="1.2549" style="stroke:#000000;stroke-width:0.6275;" width="2.5098" x="435.0956" y="204.549"/><text fill="#000000" font-family="Verdana" font-size="8.7843" lengthAdjust="spacing" textLength="27.644" x="378.9804" y="218.3499">pytest</text><text fill="#000000" font-family="Verdana" font-size="8.7843" lengthAdjust="spacing" textLength="54.2328" x="378.9804" y="228.5754">orchestrator</text></g><!--entity L2Svc--><g id="elem_L2Svc"><rect fill="#FFFFFF" height="39.2745" rx="1.5686" ry="1.5686" style="stroke:#000000;stroke-width:0.6275;" width="113.4645" x="17.8824" y="275.451"/><rect fill="#FFFFFF" height="6.2745" style="stroke:#000000;stroke-width:0.6275;" width="9.4118" x="118.7978" y="278.5882"/><rect fill="#FFFFFF" height="1.2549" style="stroke:#000000;stroke-width:0.6275;" width="2.5098" x="117.5429" y="279.8431"/><rect fill="#FFFFFF" height="1.2549" style="stroke:#000000;stroke-width:0.6275;" width="2.5098" x="117.5429" y="282.3529"/><text fill="#000000" font-family="Verdana" font-size="8.7843" lengthAdjust="spacing" textLength="52.3456" x="27.2941" y="296.1538">TC8 Service</text><text fill="#000000" font-family="Verdana" font-size="8.7843" lengthAdjust="spacing" textLength="88.3664" x="27.2941" y="306.3793">(mw::com Skeleton)</text></g><!--entity L2GW1--><g id="elem_L2GW1"><rect fill="#FFFFFF" height="29.049" rx="1.5686" ry="1.5686" style="stroke:#000000;stroke-width:0.6275;" width="68.2475" x="189.1765" y="280.7843"/><rect fill="#FFFFFF" height="6.2745" style="stroke:#000000;stroke-width:0.6275;" width="9.4118" x="244.875" y="283.9216"/><rect fill="#FFFFFF" height="1.2549" style="stroke:#000000;stroke-width:0.6275;" width="2.5098" x="243.6201" y="285.1765"/><rect fill="#FFFFFF" height="1.2549" style="stroke:#000000;stroke-width:0.6275;" width="2.5098" x="243.6201" y="287.6863"/><text fill="#000000" font-family="Verdana" font-size="8.7843" lengthAdjust="spacing" textLength="43.1495" x="198.5882" y="301.4871">gatewayd</text></g><!--entity L2SD1--><g id="elem_L2SD1"><rect fill="#FFFFFF" height="29.049" rx="1.5686" ry="1.5686" style="stroke:#000000;stroke-width:0.6275;" width="62.6029" x="314.9804" y="280.7843"/><rect fill="#FFFFFF" height="6.2745" style="stroke:#000000;stroke-width:0.6275;" width="9.4118" x="365.0343" y="283.9216"/><rect fill="#FFFFFF" height="1.2549" style="stroke:#000000;stroke-width:0.6275;" width="2.5098" x="363.7794" y="285.1765"/><rect fill="#FFFFFF" height="1.2549" style="stroke:#000000;stroke-width:0.6275;" width="2.5098" x="363.7794" y="287.6863"/><text fill="#000000" font-family="Verdana" font-size="8.7843" lengthAdjust="spacing" textLength="37.5049" x="324.3922" y="301.4871">someipd</text></g><!--entity L2SD2--><g id="elem_L2SD2"><rect fill="#FFFFFF" height="29.049" rx="1.5686" ry="1.5686" style="stroke:#000000;stroke-width:0.6275;" width="62.6029" x="441.098" y="280.7843"/><rect fill="#FFFFFF" height="6.2745" style="stroke:#000000;stroke-width:0.6275;" width="9.4118" x="491.152" y="283.9216"/><rect fill="#FFFFFF" height="1.2549" style="stroke:#000000;stroke-width:0.6275;" width="2.5098" x="489.8971" y="285.1765"/><rect fill="#FFFFFF" height="1.2549" style="stroke:#000000;stroke-width:0.6275;" width="2.5098" x="489.8971" y="287.6863"/><text fill="#000000" font-family="Verdana" font-size="8.7843" lengthAdjust="spacing" textLength="37.5049" x="450.5098" y="301.4871">someipd</text></g><!--entity L2GW2--><g id="elem_L2GW2"><rect fill="#FFFFFF" height="29.049" rx="1.5686" ry="1.5686" style="stroke:#000000;stroke-width:0.6275;" width="68.2475" x="561.2549" y="280.7843"/><rect fill="#FFFFFF" height="6.2745" style="stroke:#000000;stroke-width:0.6275;" width="9.4118" x="616.9534" y="283.9216"/><rect fill="#FFFFFF" height="1.2549" style="stroke:#000000;stroke-width:0.6275;" width="2.5098" x="615.6985" y="285.1765"/><rect fill="#FFFFFF" height="1.2549" style="stroke:#000000;stroke-width:0.6275;" width="2.5098" x="615.6985" y="287.6863"/><text fill="#000000" font-family="Verdana" font-size="8.7843" lengthAdjust="spacing" textLength="43.1495" x="570.6667" y="301.4871">gatewayd</text></g><!--entity L2Cli--><g id="elem_L2Cli"><rect fill="#FFFFFF" height="39.2745" rx="1.5686" ry="1.5686" style="stroke:#000000;stroke-width:0.6275;" width="99.8462" x="687.3725" y="275.451"/><rect fill="#FFFFFF" height="6.2745" style="stroke:#000000;stroke-width:0.6275;" width="9.4118" x="774.6697" y="278.5882"/><rect fill="#FFFFFF" height="1.2549" style="stroke:#000000;stroke-width:0.6275;" width="2.5098" x="773.4148" y="279.8431"/><rect fill="#FFFFFF" height="1.2549" style="stroke:#000000;stroke-width:0.6275;" width="2.5098" x="773.4148" y="282.3529"/><text fill="#000000" font-family="Verdana" font-size="8.7843" lengthAdjust="spacing" textLength="45.3113" x="696.7843" y="296.1538">TC8 Client</text><text fill="#000000" font-family="Verdana" font-size="8.7843" lengthAdjust="spacing" textLength="74.7482" x="696.7843" y="306.3793">(mw::com Proxy)</text></g><!--link L1Test to L1DUT--><g id="link_L1Test_L1DUT"><path d="M409.098,58.4471 C409.098,74.3153 409.098,96.3576 409.098,112.2259 " fill="transparent" id="L1Test-to-L1DUT" style="stroke:#000000;stroke-width:0.6275;"/><polygon fill="#000000" points="409.098,115.9906,411.6078,110.3435,409.098,112.8533,406.5882,110.3435,409.098,115.9906" style="stroke:#000000;stroke-width:0.6275;"/><text fill="#000000" font-family="Verdana" font-size="8.1569" lengthAdjust="spacing" textLength="51.4782" x="409.7255" y="85.3753">raw SOME/IP</text><text fill="#000000" font-family="Verdana" font-size="8.1569" lengthAdjust="spacing" textLength="40.7007" x="415.1143" y="94.8704">UDP / TCP</text></g><!--link L2Orch to L2Svc--><g id="link_L2Orch_L2Svc"><path d="M369.418,227.1184 C310.4188,240.6275 202.9357,265.2308 135.2651,280.7163 " fill="transparent" id="L2Orch-to-L2Svc" style="stroke:#000000;stroke-width:0.6275;stroke-dasharray:7.0,7.0;"/><polygon fill="#000000" points="131.5953,281.5561,137.6599,282.743,134.6535,280.8563,136.5402,277.8498,131.5953,281.5561" style="stroke:#000000;stroke-width:0.6275;"/></g><!--link L2Orch to L2GW1--><g id="link_L2Orch_L2GW1"><path d="M369.4808,234.3655 C336.0314,248.1569 292.1396,266.2489 260.4973,279.2873 " fill="transparent" id="L2Orch-to-L2GW1" style="stroke:#000000;stroke-width:0.6275;stroke-dasharray:7.0,7.0;"/><polygon fill="#000000" points="257.0165,280.7216,263.1938,280.8907,259.9171,279.5263,261.2815,276.2496,257.0165,280.7216" style="stroke:#000000;stroke-width:0.6275;"/></g><!--link L2Orch to L2SD1--><g id="link_L2Orch_L2SD1"><path d="M393.2675,237.3584 C382.2306,250.8173 370.1492,265.563 360.2104,277.6791 " fill="transparent" id="L2Orch-to-L2SD1" style="stroke:#000000;stroke-width:0.6275;stroke-dasharray:7.0,7.0;"/><polygon fill="#000000" points="357.8227,280.5898,363.3447,277.8155,359.8124,278.1642,359.4637,274.632,357.8227,280.5898" style="stroke:#000000;stroke-width:0.6275;"/></g><!--link L2Orch to L2SD2--><g id="link_L2Orch_L2SD2"><path d="M425.0918,237.3584 C436.2353,250.8173 448.4475,265.5741 458.4805,277.6902 " fill="transparent" id="L2Orch-to-L2SD2" style="stroke:#000000;stroke-width:0.6275;stroke-dasharray:7.0,7.0;"/><polygon fill="#000000" points="460.8816,280.5898,459.213,274.6396,458.8807,278.1735,455.3469,277.8411,460.8816,280.5898" style="stroke:#000000;stroke-width:0.6275;"/></g><!--link L2Orch to L2GW2--><g id="link_L2Orch_L2GW2"><path d="M448.8471,234.3655 C482.4094,248.1569 526.4626,266.253 558.2116,279.2914 " fill="transparent" id="L2Orch-to-L2GW2" style="stroke:#000000;stroke-width:0.6275;stroke-dasharray:7.0,7.0;"/><polygon fill="#000000" points="561.6941,280.7216,557.4238,276.2547,558.7921,279.5298,555.517,280.898,561.6941,280.7216" style="stroke:#000000;stroke-width:0.6275;"/></g><!--link L2Orch to L2Cli--><g id="link_L2Orch_L2Cli"><path d="M448.6839,227.2753 C508.5176,241.2298 618.2694,266.8341 683.6812,282.0937 " fill="transparent" id="L2Orch-to-L2Cli" style="stroke:#000000;stroke-width:0.6275;stroke-dasharray:7.0,7.0;"/><polygon fill="#000000" points="687.3475,282.949,682.4182,279.2219,684.2922,282.2363,681.2779,284.1103,687.3475,282.949" style="stroke:#000000;stroke-width:0.6275;"/></g><!--link L2Svc to L2GW1--><g id="link_L2Svc_L2GW1"><path d="M131.52,295.2157 C150.9522,295.2157 168.3137,295.2157 185.3992,295.2157 " fill="transparent" id="L2Svc-to-L2GW1" style="stroke:#000000;stroke-width:0.6275;"/><polygon fill="#000000" points="189.1639,295.2157,183.5169,292.7059,186.0267,295.2157,183.5169,297.7255,189.1639,295.2157" style="stroke:#000000;stroke-width:0.6275;"/><text fill="#000000" font-family="Verdana" font-size="8.1569" lengthAdjust="spacing" textLength="34.6906" x="143.0588" y="290.8655">LoLa IPC</text></g><!--link L2GW1 to L2SD1--><g id="link_L2GW1_L2SD1"><path d="M257.6314,295.2157 C275.5388,295.2157 293.5467,295.2157 311.04,295.2157 " fill="transparent" id="L2GW1-to-L2SD1" style="stroke:#000000;stroke-width:0.6275;"/><polygon fill="#000000" points="314.8047,295.2157,309.1576,292.7059,311.6675,295.2157,309.1576,297.7255,314.8047,295.2157" style="stroke:#000000;stroke-width:0.6275;"/><text fill="#000000" font-family="Verdana" font-size="8.1569" lengthAdjust="spacing" textLength="34.6906" x="269.0196" y="290.8655">LoLa IPC</text></g><!--link L2SD1 to L2SD2--><g id="link_L2SD1_L2SD2"><path d="M377.851,295.2157 C397.1137,295.2157 417.9012,295.2157 437.1702,295.2157 " fill="transparent" id="L2SD1-to-L2SD2" style="stroke:#000000;stroke-width:0.6275;"/><polygon fill="#000000" points="440.9349,295.2157,435.2878,292.7059,437.7976,295.2157,435.2878,297.7255,440.9349,295.2157" style="stroke:#000000;stroke-width:0.6275;"/><text fill="#000000" font-family="Verdana" font-size="8.1569" lengthAdjust="spacing" textLength="33.8621" x="392.7526" y="281.4537">SOME/IP</text><text fill="#000000" font-family="Verdana" font-size="8.1569" lengthAdjust="spacing" textLength="40.7007" x="389.3333" y="290.9488">UDP / TCP</text></g><!--link L2SD2 to L2GW2--><g id="link_L2SD2_L2GW2"><path d="M503.9812,295.2157 C521.4871,295.2157 539.5263,295.2157 557.4463,295.2157 " fill="transparent" id="L2SD2-to-L2GW2" style="stroke:#000000;stroke-width:0.6275;"/><polygon fill="#000000" points="561.211,295.2157,555.5639,292.7059,558.0737,295.2157,555.5639,297.7255,561.211,295.2157" style="stroke:#000000;stroke-width:0.6275;"/><text fill="#000000" font-family="Verdana" font-size="8.1569" lengthAdjust="spacing" textLength="34.6906" x="515.2941" y="290.8655">LoLa IPC</text></g><!--link L2GW2 to L2Cli--><g id="link_L2GW2_L2Cli"><path d="M629.7788,295.2157 C646.9898,295.2157 664.4016,295.2157 683.3882,295.2157 " fill="transparent" id="L2GW2-to-L2Cli" style="stroke:#000000;stroke-width:0.6275;"/><polygon fill="#000000" points="687.1529,295.2157,681.5059,292.7059,684.0157,295.2157,681.5059,297.7255,687.1529,295.2157" style="stroke:#000000;stroke-width:0.6275;"/><text fill="#000000" font-family="Verdana" font-size="8.1569" lengthAdjust="spacing" textLength="34.6906" x="641.2549" y="290.8655">LoLa IPC</text></g><!--link L1DUT to L2Orch--><!--SRC=[TP9DQy9054Nt-HMlhkmYVcGbBWebAKMm68ZIXRfuJ5xDu6GcJ0QZbFxtpfWeIKrtmvd3ktS-dan6EK4Xa4klP2W8SZp3R3A1YgScyyeZbmLgpA50TiG39UPY9KtCe3m8yho6mo3MoYYc18HAVYcTesGqW6yFO5jS39Lc3rZ2ShgsImTBbHClKXYMTbIAGabwRfHeixP6hOAVgahwBpM6EMYi85bzl8qNyKvkeXZ6i0vZxwTLvRKe16Tek9B-aauam4qgEsrsKccMsOL6etGT7Amiyfop3cUGa3vnHZivpAlvdAaSaYC9CaesFOFan9nyG4CLNjA6ldzEM-UxgT7KwwD1xu3WrY4KdAHfLR2tVBxSyksk6rhtXf6xgD7BlTS3heizsj4_EEWVqellLMms-9eVCkCtcVRDbcg9i8Z3g-5Gox3nVms7EaPWZPutXsQpanSyvdKCsxHjs7zJ_on_c_4q9Rc__RVh4Ny1]--></g></svg>