<svg xmlns="http://www.w3.org/2000/svg" xmlns:xlink="http://www.w3.org/1999/xlink" contentStyleType="text/css" data-diagram-type="DESCRIPTION" height="159.3822px" preserveAspectRatio="none" style="width:800px;height:159px;background:#FFFFFF;" version="1.1" viewBox="0 0 800 159" width="800.6178px" zoomAndPan="magnify"><defs/><g><!--cluster Host--><g id="cluster_Host"><polygon fill="#FFFFFF" points="12.973,81.5444,19.1506,75.3668,790.1158,75.3668,790.1158,142.7027,783.9382,148.8803,12.973,148.8803,12.973,81.5444" style="stroke:#000000;stroke-width:0.6178;"/><line style="stroke:#000000;stroke-width:0.6178;" x1="783.9382" x2="790.1158" y1="81.5444" y2="75.3668"/><line style="stroke:#000000;stroke-width:0.6178;" x1="12.973" x2="783.9382" y1="81.5444" y2="81.5444"/><line style="stroke:#000000;stroke-width:0.6178;" x1="783.9382" x2="783.9382" y1="81.5444" y2="148.8803"/><text fill="#000000" font-family="Verdana" font-size="8.6486" font-weight="bold" lengthAdjust="spacing" textLength="22.462" x="387.8424" y="91.4256">Host</text></g><!--entity Svc--><g id="elem_Svc"><rect fill="#FFFFFF" height="38.668" rx="1.5444" ry="1.5444" style="stroke:#000000;stroke-width:0.6178;" width="111.7121" x="23.166" y="100.0772"/><rect fill="#FFFFFF" height="6.1776" style="stroke:#000000;stroke-width:0.6178;" width="9.2664" x="122.5229" y="103.166"/><rect fill="#FFFFFF" height="1.2355" style="stroke:#000000;stroke-width:0.6178;" width="2.471" x="121.2874" y="104.4015"/><rect fill="#FFFFFF" height="1.2355" style="stroke:#000000;stroke-width:0.6178;" width="2.471" x="121.2874" y="106.8726"/><text fill="#000000" font-family="Verdana" font-size="8.6486" lengthAdjust="spacing" textLength="51.5372" x="32.4324" y="120.4603">TC8 Service</text><text fill="#000000" font-family="Verdana" font-size="8.6486" lengthAdjust="spacing" textLength="87.0017" x="32.4324" y="130.5279">(mw::com Skeleton)</text></g><!--entity GW1--><g id="elem_GW1"><rect fill="#FFFFFF" height="28.6004" rx="1.5444" ry="1.5444" style="stroke:#000000;stroke-width:0.6178;" width="67.1935" x="191.8147" y="105.3282"/><rect fill="#FFFFFF" height="6.1776" style="stroke:#000000;stroke-width:0.6178;" width="9.2664" x="246.653" y="108.417"/><rect fill="#FFFFFF" height="1.2355" style="stroke:#000000;stroke-width:0.6178;" width="2.471" x="245.4175" y="109.6525"/><rect fill="#FFFFFF" height="1.2355" style="stroke:#000000;stroke-width:0.6178;" width="2.471" x="245.4175" y="112.1236"/><text fill="#000000" font-family="Verdana" font-size="8.6486" lengthAdjust="spacing" textLength="42.4831" x="201.0811" y="125.7113">gatewayd</text></g><!--entity SD1--><g id="elem_SD1"><rect fill="#FFFFFF" height="28.6004" rx="1.5444" ry="1.5444" style="stroke:#000000;stroke-width:0.6178;" width="61.6361" x="315.6757" y="105.3282"/><rect fill="#FFFFFF" height="6.1776" style="stroke:#000000;stroke-width:0.6178;" width="9.2664" x="364.9566" y="108.417"/><rect fill="#FFFFFF" height="1.2355" style="stroke:#000000;stroke-width:0.6178;" width="2.471" x="363.721" y="109.6525"/><rect fill="#FFFFFF" height="1.2355" style="stroke:#000000;stroke-width:0.6178;" width="2.471" x="363.721" y="112.1236"/><text fill="#000000" font-family="Verdana" font-size="8.6486" lengthAdjust="spacing" textLength="36.9257" x="324.9421" y="125.7113">someipd</text></g><!--entity SD2--><g id="elem_SD2"><rect fill="#FFFFFF" height="28.6004" rx="1.5444" ry="1.5444" style="stroke:#000000;stroke-width:0.6178;" width="61.6361" x="439.8456" y="105.3282"/><rect fill="#FFFFFF" height="6.1776" style="stroke:#000000;stroke-width:0.6178;" width="9.2664" x="489.1264" y="108.417"/><rect fill="#FFFFFF" height="1.2355" style="stroke:#000000;stroke-width:0.6178;" width="2.471" x="487.8909" y="109.6525"/><rect fill="#FFFFFF" height="1.2355" style="stroke:#000000;stroke-width:0.6178;" width="2.471" x="487.8909" y="112.1236"/><text fill="#000000" font-family="Verdana" font-size="8.6486" lengthAdjust="spacing" textLength="36.9257" x="449.112" y="125.7113">someipd</text></g><!--entity GW2--><g id="elem_GW2"><rect fill="#FFFFFF" height="28.6004" rx="1.5444" ry="1.5444" style="stroke:#000000;stroke-width:0.6178;" width="67.1935" x="558.1467" y="105.3282"/><rect fill="#FFFFFF" height="6.1776" style="stroke:#000000;stroke-width:0.6178;" width="9.2664" x="612.985" y="108.417"/><rect fill="#FFFFFF" height="1.2355" style="stroke:#000000;stroke-width:0.6178;" width="2.471" x="611.7495" y="109.6525"/><rect fill="#FFFFFF" height="1.2355" style="stroke:#000000;stroke-width:0.6178;" width="2.471" x="611.7495" y="112.1236"/><text fill="#000000" font-family="Verdana" font-size="8.6486" lengthAdjust="spacing" textLength="42.4831" x="567.4131" y="125.7113">gatewayd</text></g><!--entity Cli--><g id="elem_Cli"><rect fill="#FFFFFF" height="38.668" rx="1.5444" ry="1.5444" style="stroke:#000000;stroke-width:0.6178;" width="98.3042" x="682.3166" y="100.0772"/><rect fill="#FFFFFF" height="6.1776" style="stroke:#000000;stroke-width:0.6178;" width="9.2664" x="768.2656" y="103.166"/><rect fill="#FFFFFF" height="1.2355" style="stroke:#000000;stroke-width:0.6178;" width="2.471" x="767.03" y="104.4015"/><rect fill="#FFFFFF" height="1.2355" style="stroke:#000000;stroke-width:0.6178;" width="2.471" x="767.03" y="106.8726"/><text fill="#000000" font-family="Verdana" font-size="8.6486" lengthAdjust="spacing" textLength="44.6115" x="691.583" y="120.4603">TC8 Client</text><text fill="#000000" font-family="Verdana" font-size="8.6486" lengthAdjust="spacing" textLength="73.5938" x="691.583" y="130.5279">(mw::com Proxy)</text></g><!--entity Orch--><g id="elem_Orch"><rect fill="#FFFFFF" height="38.668" rx="1.5444" ry="1.5444" style="stroke:#000000;stroke-width:0.6178;" width="78.1057" x="369.4208" y="7.4131"/><rect fill="#FFFFFF" height="6.1776" style="stroke:#000000;stroke-width:0.6178;" width="9.2664" x="435.1713" y="10.5019"/><rect fill="#FFFFFF" height="1.2355" style="stroke:#000000;stroke-width:0.6178;" width="2.471" x="433.9358" y="11.7375"/><rect fill="#FFFFFF" height="1.2355" style="stroke:#000000;stroke-width:0.6178;" width="2.471" x="433.9358" y="14.2085"/><text fill="#000000" font-family="Verdana" font-size="8.6486" lengthAdjust="spacing" textLength="27.2171" x="378.6873" y="27.7962">pytest</text><text fill="#000000" font-family="Verdana" font-size="8.6486" lengthAdjust="spacing" textLength="53.3953" x="378.6873" y="37.8638">orchestrator</text></g><!--link Svc to GW1--><g id="link_Svc_GW1"><path d="M135.0486,119.5367 C154.1807,119.5367 171.2741,119.5367 188.0958,119.5367 " fill="transparent" id="Svc-to-GW1" style="stroke:#000000;stroke-width:0.6178;"/><polygon fill="#000000" points="191.8023,119.5367,186.2425,117.0656,188.7135,119.5367,186.2425,122.0077,191.8023,119.5367" style="stroke:#000000;stroke-width:0.6178;"/><text fill="#000000" font-family="Verdana" font-size="8.0309" lengthAdjust="spacing" textLength="34.1548" x="146.4093" y="115.2537">LoLa IPC</text></g><!--link GW1 to SD1--><g id="link_GW1_SD1"><path d="M259.2124,119.5367 C276.8432,119.5367 294.573,119.5367 311.7961,119.5367 " fill="transparent" id="GW1-to-SD1" style="stroke:#000000;stroke-width:0.6178;"/><polygon fill="#000000" points="315.5027,119.5367,309.9429,117.0656,312.4139,119.5367,309.9429,122.0077,315.5027,119.5367" style="stroke:#000000;stroke-width:0.6178;"/><text fill="#000000" font-family="Verdana" font-size="8.0309" lengthAdjust="spacing" textLength="34.1548" x="270.4247" y="115.2537">LoLa IPC</text></g><!--link SD1 to SD2--><g id="link_SD1_SD2"><path d="M377.5753,119.5367 C396.5405,119.5367 417.0069,119.5367 435.9784,119.5367 " fill="transparent" id="SD1-to-SD2" style="stroke:#000000;stroke-width:0.6178;"/><polygon fill="#000000" points="439.6849,119.5367,434.1251,117.0656,436.5961,119.5367,434.1251,122.0077,439.6849,119.5367" style="stroke:#000000;stroke-width:0.6178;"/><text fill="#000000" font-family="Verdana" font-size="8.0309" lengthAdjust="spacing" textLength="33.3392" x="392.2468" y="105.9873">SOME/IP</text><text fill="#000000" font-family="Verdana" font-size="8.0309" lengthAdjust="spacing" textLength="40.0721" x="388.8803" y="115.3357">UDP / TCP</text></g><!--link SD2 to GW2--><g id="link_SD2_GW2"><path d="M501.7575,119.5367 C518.9931,119.5367 536.7537,119.5367 554.3969,119.5367 " fill="transparent" id="SD2-to-GW2" style="stroke:#000000;stroke-width:0.6178;"/><polygon fill="#000000" points="558.1035,119.5367,552.5436,117.0656,555.0147,119.5367,552.5436,122.0077,558.1035,119.5367" style="stroke:#000000;stroke-width:0.6178;"/><text fill="#000000" font-family="Verdana" font-size="8.0309" lengthAdjust="spacing" textLength="34.1548" x="512.8958" y="115.2537">LoLa IPC</text></g><!--link GW2 to Cli--><g id="link_GW2_Cli"><path d="M625.6124,119.5367 C642.5575,119.5367 659.7004,119.5367 678.3938,119.5367 " fill="transparent" id="GW2-to-Cli" style="stroke:#000000;stroke-width:0.6178;"/><polygon fill="#000000" points="682.1004,119.5367,676.5405,117.0656,679.0116,119.5367,676.5405,122.0077,682.1004,119.5367" style="stroke:#000000;stroke-width:0.6178;"/><text fill="#000000" font-family="Verdana" font-size="8.0309" lengthAdjust="spacing" textLength="34.1548" x="636.9112" y="115.2537">LoLa IPC</text></g><!--link Orch to Svc--><g id="link_Orch_Svc"><path d="M369.3714,31.7529 C323.478,37.4734 245.3436,49.4332 181.0039,70.4247 C157.529,78.0849 135.7619,88.2436 116.3642,98.3193 " fill="transparent" id="Orch-to-Svc" style="stroke:#000000;stroke-width:0.6178;stroke-dasharray:7.0,7.0;"/><polygon fill="#000000" points="113.0749,100.0278,119.1479,99.6578,115.816,98.604,116.8698,95.2721,113.0749,100.0278" style="stroke:#000000;stroke-width:0.6178;"/></g><!--link Orch to GW1--><g id="link_Orch_GW1"><path d="M369.2479,42.1313 C349.6896,49.8595 325.8378,59.9166 305.1737,70.4247 C284.3861,80.9946 264.88,93.0014 249.0715,103.2501 " fill="transparent" id="Orch-to-GW1" style="stroke:#000000;stroke-width:0.6178;stroke-dasharray:7.0,7.0;"/><polygon fill="#000000" points="245.9614,105.2664,251.9708,104.3154,248.5532,103.5861,249.2824,100.1685,245.9614,105.2664" style="stroke:#000000;stroke-width:0.6178;"/></g><!--link Orch to SD1--><g id="link_Orch_SD1"><path d="M395.5398,46.4371 C383.7344,63.9012 368.5677,86.3557 358.004,101.9913 " fill="transparent" id="Orch-to-SD1" style="stroke:#000000;stroke-width:0.6178;stroke-dasharray:7.0,7.0;"/><polygon fill="#000000" points="355.929,105.0625,361.089,101.839,357.6582,102.5031,356.994,99.0723,355.929,105.0625" style="stroke:#000000;stroke-width:0.6178;"/></g><!--link Orch to SD2--><g id="link_Orch_SD2"><path d="M421.2695,46.4371 C433.1923,63.9012 448.5178,86.3653 459.1865,102.0008 " fill="transparent" id="Orch-to-SD2" style="stroke:#000000;stroke-width:0.6178;stroke-dasharray:7.0,7.0;"/><polygon fill="#000000" points="461.2757,105.0625,460.1831,99.0772,459.5347,102.5111,456.1008,101.8627,461.2757,105.0625" style="stroke:#000000;stroke-width:0.6178;"/></g><!--link Orch to GW2--><g id="link_Orch_GW2"><path d="M447.4255,41.8533 C467.3236,49.5876 491.688,59.7251 512.7413,70.4247 C533.4178,80.9328 552.7482,92.931 568.4207,103.1982 " fill="transparent" id="Orch-to-GW2" style="stroke:#000000;stroke-width:0.6178;stroke-dasharray:7.0,7.0;"/><polygon fill="#000000" points="571.5212,105.2293,568.2246,100.1156,568.9375,103.5367,565.5164,104.2496,571.5212,105.2293" style="stroke:#000000;stroke-width:0.6178;"/></g><!--link Orch to Cli--><g id="link_Orch_Cli"><path d="M447.3143,31.4069 C493.3992,36.8124 571.9784,48.4819 636.2934,70.4247 C658.4896,77.9985 678.743,88.1161 696.831,98.2474 " fill="transparent" id="Orch-to-Cli" style="stroke:#000000;stroke-width:0.6178;stroke-dasharray:7.0,7.0;"/><polygon fill="#000000" points="700.0649,100.0587,696.4216,95.1858,697.37,98.5493,694.0066,99.4976,700.0649,100.0587" style="stroke:#000000;stroke-width:0.6178;"/></g><!--SRC=[RP0zQyCm48Pt_OfhfdR8bwRW8OjTsa1A14xfa6GGzX6BsZeZYJYczBzNScYndIv2FCz9xzqzk08hXBgKIZERoHAXabTOBHRGgDmLZ6dA4IQlPDq4lXZ0OH-l84LpKHaUzMFLH5565QIVMA8Z_NG2QI6zPA7qB1qsiiqxzlAn3CnIXQg-eJHPidl6_tdAVvFZKg5slM1XwDhUKhqBt_bmc1frBjnq7L8XWYrj9Mn4x6q0VzOtCBG1z2ptDjszFSytugZV4m5psCUYg-Fz33xEw5dVLTz-CtQeMuVM3q4cA_p5I4Uccs3d0Gi7p79gz6pTRN80mXg75SaTuECd8-1R-W40]--></g></svg>