<svg xmlns="http://www.w3.org/2000/svg" xmlns:xlink="http://www.w3.org/1999/xlink" contentStyleType="text/css" data-diagram-type="CLASS" height="303px" preserveAspectRatio="none" style="width:766px;height:303px;background:#FFFFFF;" version="1.1" viewBox="0 0 766 303" width="766px" zoomAndPan="magnify"><title>Multi-service / Multi-instance &#8212; Test Module Dependencies</title><defs/><g><text fill="#000000" font-family="Verdana" font-size="22" font-weight="bold" lengthAdjust="spacing" textLength="733.4121" x="15" y="35.4209">Multi-service / Multi-instance &#8212; Test Module Dependencies</text><!--class test_multi_service--><g id="elem_test_multi_service"><rect codeLine="12" fill="#E3F2FD" height="88.8594" id="test_multi_service" rx="2.5" ry="2.5" style="stroke:#1565C0;stroke-width:1;" width="154.8135" x="314.7583" y="58.6094"/><ellipse cx="327.7583" cy="78.7422" fill="#FFFFFF" rx="9" ry="9" style="stroke:#000000;stroke-width:1;"/><path d="M330.7271,84.3828 Q330.1489,84.6797 329.5083,84.8203 Q328.8677,84.9766 328.1646,84.9766 Q325.6646,84.9766 324.3364,83.3359 Q323.0239,81.6797 323.0239,78.5547 Q323.0239,75.4297 324.3364,73.7734 Q325.6646,72.1172 328.1646,72.1172 Q328.8677,72.1172 329.5083,72.2734 Q330.1646,72.4297 330.7271,72.7266 L330.7271,75.4453 Q330.1021,74.8672 329.5083,74.6016 Q328.9146,74.3203 328.2896,74.3203 Q326.9458,74.3203 326.2583,75.3984 Q325.5708,76.4609 325.5708,78.5547 Q325.5708,80.6484 326.2583,81.7266 Q326.9458,82.7891 328.2896,82.7891 Q328.9146,82.7891 329.5083,82.5234 Q330.1021,82.2422 330.7271,81.6641 L330.7271,84.3828 Z " fill="#000000"/><text fill="#000000" font-family="Verdana" font-size="12" font-style="italic" lengthAdjust="spacing" textLength="37.8574" x="384.2363" y="74.748">&#171;test&#187;</text><text fill="#000000" font-family="Verdana" font-size="14" lengthAdjust="spacing" textLength="126.8135" x="339.7583" y="90.5732">test_multi_service</text><line style="stroke:#1565C0;stroke-width:1;" x1="315.7583" x2="468.5718" y1="98.875" y2="98.875"/><text fill="#000000" font-family="Verdana" font-size="14" lengthAdjust="spacing" textLength="141.3535" x="320.7583" y="115.8701">SOMEIPSRV_RPC_13</text><text fill="#000000" font-family="Verdana" font-size="14" lengthAdjust="spacing" textLength="141.3535" x="320.7583" y="132.167">SOMEIPSRV_RPC_14</text><line style="stroke:#1565C0;stroke-width:1;" x1="315.7583" x2="468.5718" y1="139.4688" y2="139.4688"/></g><!--class sd_helpers--><g id="elem_sd_helpers"><rect codeLine="17" fill="#E8F5E9" height="88.8594" id="sd_helpers" rx="2.5" ry="2.5" style="stroke:#2E7D32;stroke-width:1;" width="194.1982" x="185.2583" y="207.6094"/><ellipse cx="241.0542" cy="227.7422" fill="#FFFFFF" rx="9" ry="9" style="stroke:#000000;stroke-width:1;"/><path d="M244.0229,233.3828 Q243.4448,233.6797 242.8042,233.8203 Q242.1636,233.9766 241.4604,233.9766 Q238.9604,233.9766 237.6323,232.3359 Q236.3198,230.6797 236.3198,227.5547 Q236.3198,224.4297 237.6323,222.7734 Q238.9604,221.1172 241.4604,221.1172 Q242.1636,221.1172 242.8042,221.2734 Q243.4604,221.4297 244.0229,221.7266 L244.0229,224.4453 Q243.3979,223.8672 242.8042,223.6016 Q242.2104,223.3203 241.5854,223.3203 Q240.2417,223.3203 239.5542,224.3984 Q238.8667,225.4609 238.8667,227.5547 Q238.8667,229.6484 239.5542,230.7266 Q240.2417,231.7891 241.5854,231.7891 Q242.2104,231.7891 242.8042,231.5234 Q243.3979,231.2422 244.0229,230.6641 L244.0229,233.3828 Z " fill="#000000"/><text fill="#000000" font-family="Verdana" font-size="12" font-style="italic" lengthAdjust="spacing" textLength="53.0684" x="269.5732" y="223.748">&#171;helper&#187;</text><text fill="#000000" font-family="Verdana" font-size="14" lengthAdjust="spacing" textLength="75.1064" x="258.5542" y="239.5732">sd_helpers</text><line style="stroke:#2E7D32;stroke-width:1;" x1="186.2583" x2="378.4565" y1="247.875" y2="247.875"/><line style="stroke:#2E7D32;stroke-width:1;" x1="186.2583" x2="378.4565" y1="255.875" y2="255.875"/><text fill="#000000" font-family="Verdana" font-size="14" lengthAdjust="spacing" textLength="182.1982" x="191.2583" y="272.8701">+open_multicast_socket()</text><text fill="#000000" font-family="Verdana" font-size="14" lengthAdjust="spacing" textLength="146.8154" x="191.2583" y="289.167">+capture_sd_offers()</text></g><!--class sd_sender--><g id="elem_sd_sender"><rect codeLine="21" fill="#E8F5E9" height="88.8594" id="sd_sender" rx="2.5" ry="2.5" style="stroke:#2E7D32;stroke-width:1;" width="177.3955" x="414.7583" y="207.6094"/><ellipse cx="464.0977" cy="227.7422" fill="#FFFFFF" rx="9" ry="9" style="stroke:#000000;stroke-width:1;"/><path d="M467.0664,233.3828 Q466.4883,233.6797 465.8477,233.8203 Q465.207,233.9766 464.5039,233.9766 Q462.0039,233.9766 460.6758,232.3359 Q459.3633,230.6797 459.3633,227.5547 Q459.3633,224.4297 460.6758,222.7734 Q462.0039,221.1172 464.5039,221.1172 Q465.207,221.1172 465.8477,221.2734 Q466.5039,221.4297 467.0664,221.7266 L467.0664,224.4453 Q466.4414,223.8672 465.8477,223.6016 Q465.2539,223.3203 464.6289,223.3203 Q463.2852,223.3203 462.5977,224.3984 Q461.9102,225.4609 461.9102,227.5547 Q461.9102,229.6484 462.5977,230.7266 Q463.2852,231.7891 464.6289,231.7891 Q465.2539,231.7891 465.8477,231.5234 Q466.4414,231.2422 467.0664,230.6641 L467.0664,233.3828 Z " fill="#000000"/><text fill="#000000" font-family="Verdana" font-size="12" font-style="italic" lengthAdjust="spacing" textLength="53.0684" x="490.6719" y="223.748">&#171;helper&#187;</text><text fill="#000000" font-family="Verdana" font-size="14" lengthAdjust="spacing" textLength="71.2168" x="481.5977" y="239.5732">sd_sender</text><line style="stroke:#2E7D32;stroke-width:1;" x1="415.7583" x2="591.1538" y1="247.875" y2="247.875"/><line style="stroke:#2E7D32;stroke-width:1;" x1="415.7583" x2="591.1538" y1="255.875" y2="255.875"/><text fill="#000000" font-family="Verdana" font-size="14" lengthAdjust="spacing" textLength="165.3955" x="420.7583" y="272.8701">+open_sender_socket()</text><text fill="#000000" font-family="Verdana" font-size="14" lengthAdjust="spacing" textLength="147.0479" x="420.7583" y="289.167">+send_find_service()</text></g><!--link sd_helpers to sd_sender--><!--link test_multi_service to sd_helpers--><g id="link_test_multi_service_sd_helpers"><path codeLine="30" d="M359.5483,147.8194 C345.4283,166.6894 332.5438,183.916 318.4338,202.766 " fill="transparent" id="test_multi_service-to-sd_helpers" style="stroke:#000000;stroke-width:1;"/><polygon fill="#000000" points="314.8383,207.5694,323.4338,202.7613,317.8346,203.5666,317.0293,197.9673,314.8383,207.5694" style="stroke:#000000;stroke-width:1;"/></g><!--link test_multi_service to sd_sender--><g id="link_test_multi_service_sd_sender"><path codeLine="31" d="M425.2583,147.8194 C439.5083,166.6894 452.5333,183.9307 466.7633,202.7807 " fill="transparent" id="test_multi_service-to-sd_sender" style="stroke:#000000;stroke-width:1;"/><polygon fill="#000000" points="470.3783,207.5694,468.1482,197.9763,467.3658,203.5788,461.7633,202.7963,470.3783,207.5694" style="stroke:#000000;stroke-width:1;"/></g><!--SRC=[XP3TIWCn48NlynGHBrHaiJ_M7oW5RRVGYs9fnHkH49DfDpHDbcHMKIdu43wXJsBIjNQj1IzdvintpimUPh00cckk3F5pPNBk-88ApRs_GdJgiK0O26icwXLeRLj2tmYbrrpCPyuMHdQjjgxTHl3OwT3zjDblz7jHOPq4jpMjjyvQtTgk_Gnq3cv5kEYtqijjmcRUICzxpGPP4e8ADT1XeL4b7joJ4a1FlcjbF78J6f_l7_GssDEXbKMGzo078y481PwGyg8OZotY7bjpVZB7QoStmtGmcepls7ZKPVNctzPfp5F2l6HbM4yhiIFcs0RhqaVmuEYjc0CU7iMHu3aM3bZOjjDfM0xjvOReOsQt6rZEVj5YYqsLaUjxLZHoG3L_iGMIIiR4gLc6zvcIuIaFoSOiocNrMJk-b4ZxR99EvUP_L2Nw2m00]--></g></svg>