<svg xmlns="http://www.w3.org/2000/svg" xmlns:xlink="http://www.w3.org/1999/xlink" contentStyleType="text/css" data-diagram-type="CLASS" height="502px" preserveAspectRatio="none" style="width:910px;height:502px;background:#FFFFFF;" version="1.1" viewBox="0 0 910 502" width="910px" zoomAndPan="magnify"><defs/><g><!--cluster Test Code (stack-agnostic)--><g id="cluster_Test Code (stack-agnostic)"><path d="M63,45.5 L275.0938,45.5 A3.75,3.75 0 0 1 277.5938,48 L284.5938,67.7969 L387,67.7969 A2.5,2.5 0 0 1 389.5,70.2969 L389.5,171 A2.5,2.5 0 0 1 387,173.5 L63,173.5 A2.5,2.5 0 0 1 60.5,171 L60.5,48 A2.5,2.5 0 0 1 63,45.5 " fill="#FFFFFF" style="stroke:#000000;stroke-width:1;"/><line style="stroke:#000000;stroke-width:1;" x1="60.5" x2="284.5938" y1="67.7969" y2="67.7969"/><text fill="#000000" font-family="Verdana" font-size="14" font-weight="bold" lengthAdjust="spacing" textLength="211.0938" x="64.5" y="60.4951">Test Code (stack-agnostic)</text></g><!--cluster Deployment Config (stack-specific)--><g id="cluster_Deployment Config (stack-specific)"><path d="M416,11 L693.7666,11 A3.75,3.75 0 0 1 696.2666,13.5 L703.2666,33.2969 L901,33.2969 A2.5,2.5 0 0 1 903.5,35.7969 L903.5,186.5 A2.5,2.5 0 0 1 901,189 L416,189 A2.5,2.5 0 0 1 413.5,186.5 L413.5,13.5 A2.5,2.5 0 0 1 416,11 " fill="#FFFFFF" style="stroke:#000000;stroke-width:1;"/><line style="stroke:#000000;stroke-width:1;" x1="413.5" x2="703.2666" y1="33.2969" y2="33.2969"/><text fill="#000000" font-family="Verdana" font-size="14" font-weight="bold" lengthAdjust="spacing" textLength="276.7666" x="417.5" y="25.9951">Deployment Config (stack-specific)</text></g><!--cluster mw_com_config--><g id="cluster_mw_com_config"><path d="M614,54 L737.8213,54 A3.75,3.75 0 0 1 740.3213,56.5 L747.3213,76.2969 L877,76.2969 A2.5,2.5 0 0 1 879.5,78.7969 L879.5,162.5 A2.5,2.5 0 0 1 877,165 L614,165 A2.5,2.5 0 0 1 611.5,162.5 L611.5,56.5 A2.5,2.5 0 0 1 614,54 " fill="#FFFFFF" style="stroke:#000000;stroke-width:1;"/><line style="stroke:#000000;stroke-width:1;" x1="611.5" x2="747.3213" y1="76.2969" y2="76.2969"/><text fill="#000000" font-family="Verdana" font-size="14" font-weight="bold" lengthAdjust="spacing" textLength="122.8213" x="615.5" y="68.9951">mw_com_config</text></g><!--cluster someip_stack--><g id="cluster_someip_stack"><path d="M440,54 L546.9365,54 A3.75,3.75 0 0 1 549.4365,56.5 L556.4365,76.2969 L585,76.2969 A2.5,2.5 0 0 1 587.5,78.7969 L587.5,162.5 A2.5,2.5 0 0 1 585,165 L440,165 A2.5,2.5 0 0 1 437.5,162.5 L437.5,56.5 A2.5,2.5 0 0 1 440,54 " fill="#FFFFFF" style="stroke:#000000;stroke-width:1;"/><line style="stroke:#000000;stroke-width:1;" x1="437.5" x2="556.4365" y1="76.2969" y2="76.2969"/><text fill="#000000" font-family="Verdana" font-size="14" font-weight="bold" lengthAdjust="spacing" textLength="105.9365" x="441.5" y="68.9951">someip_stack</text></g><!--cluster Runtime (swappable)--><g id="cluster_Runtime (swappable)"><path d="M166,385.5 L335.4785,385.5 A3.75,3.75 0 0 1 337.9785,388 L344.9785,407.7969 L412,407.7969 A2.5,2.5 0 0 1 414.5,410.2969 L414.5,493 A2.5,2.5 0 0 1 412,495.5 L166,495.5 A2.5,2.5 0 0 1 163.5,493 L163.5,388 A2.5,2.5 0 0 1 166,385.5 " fill="#FFFFFF" style="stroke:#000000;stroke-width:1;"/><line style="stroke:#000000;stroke-width:1;" x1="163.5" x2="344.9785" y1="407.7969" y2="407.7969"/><text fill="#000000" font-family="Verdana" font-size="14" font-weight="bold" lengthAdjust="spacing" textLength="168.4785" x="167.5" y="400.4951">Runtime (swappable)</text></g><!--cluster mw_com_config--><g id="cluster_mw_com_config"><path d="M239,238 L362.8213,238 A3.75,3.75 0 0 1 365.3213,240.5 L372.3213,260.2969 L372,260.2969 A2.5,2.5 0 0 1 374.5,262.7969 L374.5,330.5 A2.5,2.5 0 0 1 372,333 L239,333 A2.5,2.5 0 0 1 236.5,330.5 L236.5,240.5 A2.5,2.5 0 0 1 239,238 " fill="#FFFFFF" style="stroke:#000000;stroke-width:1;"/><line style="stroke:#000000;stroke-width:1;" x1="236.5" x2="372.3213" y1="260.2969" y2="260.2969"/><text fill="#000000" font-family="Verdana" font-size="14" font-weight="bold" lengthAdjust="spacing" textLength="122.8213" x="240.5" y="252.9951">mw_com_config</text></g><!--class TC8 Service--><g id="elem_TC8 Service"><rect codeLine="4" fill="#FFFFFF" height="76.5938" id="TC8 Service" rx="2.5" ry="2.5" style="stroke:#000000;stroke-width:1;" width="141.9102" x="76.5" y="80.5"/><ellipse cx="103.218" cy="94.5" fill="#FFFFFF" rx="9" ry="9" style="stroke:#000000;stroke-width:1;"/><path d="M106.1867,100.1406 Q105.6086,100.4375 104.968,100.5781 Q104.3273,100.7344 103.6242,100.7344 Q101.1242,100.7344 99.7961,99.0938 Q98.4836,97.4375 98.4836,94.3125 Q98.4836,91.1875 99.7961,89.5313 Q101.1242,87.875 103.6242,87.875 Q104.3273,87.875 104.968,88.0313 Q105.6242,88.1875 106.1867,88.4844 L106.1867,91.2031 Q105.5617,90.625 104.968,90.3594 Q104.3742,90.0781 103.7492,90.0781 Q102.4055,90.0781 101.718,91.1563 Q101.0305,92.2188 101.0305,94.3125 Q101.0305,96.4063 101.718,97.4844 Q102.4055,98.5469 103.7492,98.5469 Q104.3742,98.5469 104.968,98.2813 Q105.5617,98 106.1867,97.4219 L106.1867,100.1406 Z " fill="#000000"/><text fill="#000000" font-family="Verdana" font-size="14" lengthAdjust="spacing" textLength="83.4258" x="118.2664" y="99.3467">TC8 Service</text><line style="stroke:#000000;stroke-width:1;" x1="77.5" x2="217.4102" y1="108.5" y2="108.5"/><text fill="#000000" font-family="Verdana" font-size="14" lengthAdjust="spacing" textLength="129.9102" x="82.5" y="125.4951">mw::com Skeleton</text><text fill="#000000" font-family="Verdana" font-size="14" lengthAdjust="spacing" textLength="93.5703" x="82.5" y="141.792">events, fields</text><line style="stroke:#000000;stroke-width:1;" x1="77.5" x2="217.4102" y1="149.0938" y2="149.0938"/></g><!--class TC8 Client--><g id="elem_TC8 Client"><rect codeLine="8" fill="#FFFFFF" height="76.5938" id="TC8 Client" rx="2.5" ry="2.5" style="stroke:#000000;stroke-width:1;" width="120.2061" x="253.5" y="80.5"/><ellipse cx="275.496" cy="94.5" fill="#FFFFFF" rx="9" ry="9" style="stroke:#000000;stroke-width:1;"/><path d="M278.4648,100.1406 Q277.8867,100.4375 277.246,100.5781 Q276.6054,100.7344 275.9023,100.7344 Q273.4023,100.7344 272.0742,99.0938 Q270.7617,97.4375 270.7617,94.3125 Q270.7617,91.1875 272.0742,89.5313 Q273.4023,87.875 275.9023,87.875 Q276.6054,87.875 277.246,88.0313 Q277.9023,88.1875 278.4648,88.4844 L278.4648,91.2031 Q277.8398,90.625 277.246,90.3594 Q276.6523,90.0781 276.0273,90.0781 Q274.6835,90.0781 273.996,91.1563 Q273.3085,92.2188 273.3085,94.3125 Q273.3085,96.4063 273.996,97.4844 Q274.6835,98.5469 276.0273,98.5469 Q276.6523,98.5469 277.246,98.2813 Q277.8398,98 278.4648,97.4219 L278.4648,100.1406 Z " fill="#000000"/><text fill="#000000" font-family="Verdana" font-size="14" lengthAdjust="spacing" textLength="72.2148" x="289.4952" y="99.3467">TC8 Client</text><line style="stroke:#000000;stroke-width:1;" x1="254.5" x2="372.7061" y1="108.5" y2="108.5"/><text fill="#000000" font-family="Verdana" font-size="14" lengthAdjust="spacing" textLength="108.2061" x="259.5" y="125.4951">mw::com Proxy</text><text fill="#000000" font-family="Verdana" font-size="14" lengthAdjust="spacing" textLength="107.9258" x="259.5" y="141.792">subscribe, read</text><line style="stroke:#000000;stroke-width:1;" x1="254.5" x2="372.7061" y1="149.0938" y2="149.0938"/></g><!--class json--><g id="elem_json"><rect codeLine="15" fill="#FFFFFF" height="60.2969" id="json" rx="2.5" ry="2.5" style="stroke:#000000;stroke-width:1;" width="236.3076" x="627.5" y="89"/><ellipse cx="727.5928" cy="103" fill="#FFFFFF" rx="9" ry="9" style="stroke:#000000;stroke-width:1;"/><path d="M730.5615,108.6406 Q729.9834,108.9375 729.3428,109.0781 Q728.7021,109.2344 727.999,109.2344 Q725.499,109.2344 724.1709,107.5938 Q722.8584,105.9375 722.8584,102.8125 Q722.8584,99.6875 724.1709,98.0313 Q725.499,96.375 727.999,96.375 Q728.7021,96.375 729.3428,96.5313 Q729.999,96.6875 730.5615,96.9844 L730.5615,99.7031 Q729.9365,99.125 729.3428,98.8594 Q728.749,98.5781 728.124,98.5781 Q726.7803,98.5781 726.0928,99.6563 Q725.4053,100.7188 725.4053,102.8125 Q725.4053,104.9063 726.0928,105.9844 Q726.7803,107.0469 728.124,107.0469 Q728.749,107.0469 729.3428,106.7813 Q729.9365,106.5 730.5615,105.9219 L730.5615,108.6406 Z " fill="#000000"/><text fill="#000000" font-family="Verdana" font-size="14" lengthAdjust="spacing" textLength="28.6221" x="745.0928" y="107.8467">json</text><line style="stroke:#000000;stroke-width:1;" x1="628.5" x2="862.8076" y1="117" y2="117"/><text fill="#000000" font-family="Verdana" font-size="14" lengthAdjust="spacing" textLength="224.3076" x="633.5" y="133.9951">binding: &lt;stack A&gt; | &lt;stack B&gt;</text><line style="stroke:#000000;stroke-width:1;" x1="628.5" x2="862.8076" y1="141.2969" y2="141.2969"/></g><!--class json--><g id="elem_json"><rect codeLine="18" fill="#FFFFFF" height="60.2969" id="json" rx="2.5" ry="2.5" style="stroke:#000000;stroke-width:1;" width="116.9316" x="454" y="89"/><ellipse cx="494.4048" cy="103" fill="#FFFFFF" rx="9" ry="9" style="stroke:#000000;stroke-width:1;"/><path d="M497.3735,108.6406 Q496.7954,108.9375 496.1548,109.0781 Q495.5142,109.2344 494.811,109.2344 Q492.311,109.2344 490.9829,107.5938 Q489.6704,105.9375 489.6704,102.8125 Q489.6704,99.6875 490.9829,98.0313 Q492.311,96.375 494.811,96.375 Q495.5142,96.375 496.1548,96.5313 Q496.811,96.6875 497.3735,96.9844 L497.3735,99.7031 Q496.7485,99.125 496.1548,98.8594 Q495.561,98.5781 494.936,98.5781 Q493.5923,98.5781 492.9048,99.6563 Q492.2173,100.7188 492.2173,102.8125 Q492.2173,104.9063 492.9048,105.9844 Q493.5923,107.0469 494.936,107.0469 Q495.561,107.0469 496.1548,106.7813 Q496.7485,106.5 497.3735,105.9219 L497.3735,108.6406 Z " fill="#000000"/><text fill="#000000" font-family="Verdana" font-size="14" lengthAdjust="spacing" textLength="28.6221" x="511.9048" y="107.8467">json</text><line style="stroke:#000000;stroke-width:1;" x1="455" x2="569.9316" y1="117" y2="117"/><text fill="#000000" font-family="Verdana" font-size="14" lengthAdjust="spacing" textLength="104.9316" x="460" y="133.9951">service routing</text><line style="stroke:#000000;stroke-width:1;" x1="455" x2="569.9316" y1="141.2969" y2="141.2969"/></g><!--class vS--><g id="elem_vS"><rect codeLine="24" fill="#FFFFFF" height="58.5938" id="vS" rx="2.5" ry="2.5" style="stroke:#000000;stroke-width:1;" width="91.7109" x="179.5" y="420.5"/><ellipse cx="192.5" cy="441.7969" fill="#FFFFFF" rx="9" ry="9" style="stroke:#000000;stroke-width:1;"/><path d="M195.4688,447.4375 Q194.8906,447.7344 194.25,447.875 Q193.6094,448.0313 192.9063,448.0313 Q190.4063,448.0313 189.0781,446.3906 Q187.7656,444.7344 187.7656,441.6094 Q187.7656,438.4844 189.0781,436.8281 Q190.4063,435.1719 192.9063,435.1719 Q193.6094,435.1719 194.25,435.3281 Q194.9063,435.4844 195.4688,435.7813 L195.4688,438.5 Q194.8438,437.9219 194.25,437.6563 Q193.6563,437.375 193.0313,437.375 Q191.6875,437.375 191,438.4531 Q190.3125,439.5156 190.3125,441.6094 Q190.3125,443.7031 191,444.7813 Q191.6875,445.8438 193.0313,445.8438 Q193.6563,445.8438 194.25,445.5781 Q194.8438,445.2969 195.4688,444.7188 L195.4688,447.4375 Z " fill="#000000"/><text fill="#000000" font-family="Verdana" font-size="14" lengthAdjust="spacing" textLength="59.7734" x="206.4688" y="438.4951">someipd</text><text fill="#000000" font-family="Verdana" font-size="14" lengthAdjust="spacing" textLength="63.7109" x="204.5" y="454.792">(Stack A)</text><line style="stroke:#000000;stroke-width:1;" x1="180.5" x2="270.2109" y1="463.0938" y2="463.0938"/><line style="stroke:#000000;stroke-width:1;" x1="180.5" x2="270.2109" y1="471.0938" y2="471.0938"/></g><!--class eS--><g id="elem_eS"><rect codeLine="25" fill="#FFFFFF" height="58.5938" id="eS" rx="2.5" ry="2.5" style="stroke:#000000;stroke-width:1;" width="91.7383" x="306.5" y="420.5"/><ellipse cx="319.5" cy="441.7969" fill="#FFFFFF" rx="9" ry="9" style="stroke:#000000;stroke-width:1;"/><path d="M322.4688,447.4375 Q321.8906,447.7344 321.25,447.875 Q320.6094,448.0313 319.9063,448.0313 Q317.4063,448.0313 316.0781,446.3906 Q314.7656,444.7344 314.7656,441.6094 Q314.7656,438.4844 316.0781,436.8281 Q317.4063,435.1719 319.9063,435.1719 Q320.6094,435.1719 321.25,435.3281 Q321.9063,435.4844 322.4688,435.7813 L322.4688,438.5 Q321.8438,437.9219 321.25,437.6563 Q320.6563,437.375 320.0313,437.375 Q318.6875,437.375 318,438.4531 Q317.3125,439.5156 317.3125,441.6094 Q317.3125,443.7031 318,444.7813 Q318.6875,445.8438 320.0313,445.8438 Q320.6563,445.8438 321.25,445.5781 Q321.8438,445.2969 322.4688,444.7188 L322.4688,447.4375 Z " fill="#000000"/><text fill="#000000" font-family="Verdana" font-size="14" lengthAdjust="spacing" textLength="59.7734" x="333.4824" y="438.4951">someipd</text><text fill="#000000" font-family="Verdana" font-size="14" lengthAdjust="spacing" textLength="63.7383" x="331.5" y="454.792">(Stack B)</text><line style="stroke:#000000;stroke-width:1;" x1="307.5" x2="397.2383" y1="463.0938" y2="463.0938"/><line style="stroke:#000000;stroke-width:1;" x1="307.5" x2="397.2383" y1="471.0938" y2="471.0938"/></g><!--class json--><g id="elem_json"><rect fill="#FFFFFF" height="44" id="json" rx="2.5" ry="2.5" style="stroke:#000000;stroke-width:1;" width="56.6221" x="264" y="273"/><ellipse cx="277" cy="287" fill="#FFFFFF" rx="9" ry="9" style="stroke:#000000;stroke-width:1;"/><path d="M279.9688,292.6406 Q279.3906,292.9375 278.75,293.0781 Q278.1094,293.2344 277.4063,293.2344 Q274.9063,293.2344 273.5781,291.5938 Q272.2656,289.9375 272.2656,286.8125 Q272.2656,283.6875 273.5781,282.0313 Q274.9063,280.375 277.4063,280.375 Q278.1094,280.375 278.75,280.5313 Q279.4063,280.6875 279.9688,280.9844 L279.9688,283.7031 Q279.3438,283.125 278.75,282.8594 Q278.1563,282.5781 277.5313,282.5781 Q276.1875,282.5781 275.5,283.6563 Q274.8125,284.7188 274.8125,286.8125 Q274.8125,288.9063 275.5,289.9844 Q276.1875,291.0469 277.5313,291.0469 Q278.1563,291.0469 278.75,290.7813 Q279.3438,290.5 279.9688,289.9219 L279.9688,292.6406 Z " fill="#000000"/><text fill="#000000" font-family="Verdana" font-size="14" lengthAdjust="spacing" textLength="28.6221" x="289" y="291.8467">json</text><line style="stroke:#000000;stroke-width:1;" x1="265" x2="319.6221" y1="301" y2="301"/><line style="stroke:#000000;stroke-width:1;" x1="265" x2="319.6221" y1="309" y2="309"/></g><g id="elem_GMN19"><path d="M11,267.5 L11,322.8984 A0,0 0 0 0 11,322.8984 L207.8745,322.8984 A0,0 0 0 0 207.8745,322.8984 L207.8745,277.5 L197.8745,267.5 L119.32,267.5 L139.25,157.76 L111.32,267.5 L11,267.5 A0,0 0 0 0 11,267.5 " fill="#FFFFFF" style="stroke:#000000;stroke-width:1;"/><path d="M197.8745,267.5 L197.8745,277.5 L207.8745,277.5 L197.8745,267.5 " fill="#FFFFFF" style="stroke:#000000;stroke-width:1;"/><text fill="#000000" font-family="Verdana" font-size="13" lengthAdjust="spacing" textLength="175.8745" x="17" y="284.5669">Swapping stacks = change</text><text fill="#000000" font-family="Verdana" font-size="13" lengthAdjust="spacing" textLength="75.5435" x="17" y="299.6997">config only.</text><text fill="#000000" font-family="Verdana" font-size="13" lengthAdjust="spacing" textLength="128.5654" x="17" y="314.8325">Zero code changes.</text></g><!--link TC8 Service to json--><g id="link_TC8 Service_json"><path codeLine="28" d="M153.19,157.69 C158.45,179.57 168.48,205.9 187.5,222 C200.68,233.15 210.23,221.95 225.5,230 C245.42,240.5 259.6613,254.1251 272.0413,268.4151 " fill="transparent" id="TC8 Service-to-json" style="stroke:#000000;stroke-width:1;stroke-dasharray:7.0,7.0;"/><polygon fill="#000000" points="275.97,272.95,273.1001,263.5285,272.6961,269.1709,267.0536,268.7669,275.97,272.95" style="stroke:#000000;stroke-width:1;"/><text fill="#000000" font-family="Verdana" font-size="13" lengthAdjust="spacing" textLength="104.4316" x="188.5" y="218.0669">reads at startup</text></g><!--link TC8 Client to json--><g id="link_TC8 Client_json"><path codeLine="29" d="M308.94,157.76 C304.7,192.94 299.2393,238.1833 295.7893,266.7533 " fill="transparent" id="TC8 Client-to-json" style="stroke:#000000;stroke-width:1;stroke-dasharray:7.0,7.0;"/><polygon fill="#000000" points="295.07,272.71,300.1201,264.2545,295.6694,267.7461,292.1778,263.2954,295.07,272.71" style="stroke:#000000;stroke-width:1;"/><text fill="#000000" font-family="Verdana" font-size="13" lengthAdjust="spacing" textLength="104.4316" x="303.5" y="218.0669">reads at startup</text></g><!--link json to vS--><g id="link_json_vS"><path codeLine="30" d="M274.87,317.18 C267.12,327.35 258.44,340.02 252.5,352.5 C242.18,374.18 236.4201,394.6582 232.1201,414.3482 " fill="transparent" id="json-to-vS" style="stroke:#000000;stroke-width:1;stroke-dasharray:7.0,7.0;"/><polygon fill="#000000" points="230.84,420.21,236.6681,412.2707,231.9068,415.3251,228.8523,410.5638,230.84,420.21" style="stroke:#000000;stroke-width:1;"/><text fill="#000000" font-family="Verdana" font-size="13" lengthAdjust="spacing" textLength="52.311" x="253.5" y="365.5669">binds to</text></g><!--link json to eS--><g id="link_json_eS"><path codeLine="31" d="M300.84,317.27 C311.37,344.12 327.328,384.8247 339.078,414.7647 " fill="transparent" id="json-to-eS" style="stroke:#000000;stroke-width:1;stroke-dasharray:7.0,7.0;"/><polygon fill="#000000" points="341.27,420.35,341.7056,410.5108,339.4434,415.6956,334.2586,413.4334,341.27,420.35" style="stroke:#000000;stroke-width:1;"/><text fill="#000000" font-family="Verdana" font-size="13" lengthAdjust="spacing" textLength="69.7417" x="321.5" y="365.5669">or binds to</text></g><!--SRC=[bPB1JiCm44Jl-OgbfoALd545bMZv04Gu8QJASJQfgUEriavA1VrtreagI6aF728buvVnUBnNOOCrWhVAk2JnIczLXJ1vGGwmeW9Xoa746rKvuc3qzGG-4m1j5RDWgrl8iEcCna47g7VpkQOQiYrQ3EHw4JjqWMTG6hG5YtGOUwoi4U3KugcXZtslS9kpRaoECsXG5Rt1uLVSH_IMzhLuI6XNckeOcprgKvx6hdThyPSdekaxapjkdHjN65VDuQx_7nuMy7LyNox6mPbgD7xTBuvCU6W46cg3cFr9-zowOEfOxKvvhtAButY3SV7cfjaGGfOLGvTTHfO3WbdSQ7mjQReuV-9vtoM32Y1dQ4Bhaz5b_El7Srmqw3B1OwiCWIvZ635gViZ4KK38AGGP12h7eoOzPB4wAHVw-XdkGM-Kgp1MD4m0ERjFvVCL6n9DHdaWE4tG5H3zlm40]--></g></svg>