<svg xmlns="http://www.w3.org/2000/svg" xmlns:xlink="http://www.w3.org/1999/xlink" contentStyleType="text/css" data-diagram-type="DESCRIPTION" height="231.1868px" preserveAspectRatio="none" style="width:800px;height:231px;background:#FFFFFF;" version="1.1" viewBox="0 0 800 231" width="800.5803px" zoomAndPan="magnify"><title>Service Discovery &#8212; Test Module Dependencies</title><defs/><g><text fill="#000000" font-family="Verdana" font-size="13.008" font-weight="bold" lengthAdjust="spacing" textLength="350.1032" x="222.5833" y="20.9433">Service Discovery &#8212; Test Module Dependencies</text><!--entity test_service_discovery--><g id="elem_test_service_discovery"><rect fill="#E3F2FD" height="37.0098" rx="1.4782" ry="1.4782" style="stroke:#1565C0;stroke-width:0.5913;" width="117.2529" x="409.4548" y="34.654"/><rect fill="#E3F2FD" height="5.9127" style="stroke:#1565C0;stroke-width:0.5913;" width="8.8691" x="514.8823" y="37.6103"/><rect fill="#E3F2FD" height="1.1825" style="stroke:#1565C0;stroke-width:0.5913;" width="2.3651" x="513.6998" y="38.7929"/><rect fill="#E3F2FD" height="1.1825" style="stroke:#1565C0;stroke-width:0.5913;" width="2.3651" x="513.6998" y="41.158"/><text fill="#000000" font-family="Verdana" font-size="8.2778" font-style="italic" lengthAdjust="spacing" textLength="26.1146" x="452.0676" y="54.163">&#171;test&#187;</text><text fill="#000000" font-family="Verdana" font-size="8.2778" lengthAdjust="spacing" textLength="93.6021" x="418.3239" y="63.7989">test_service_discovery</text></g><!--entity test_sd_phases_timing--><g id="elem_test_sd_phases_timing"><rect fill="#E3F2FD" height="37.0098" rx="1.4782" ry="1.4782" style="stroke:#1565C0;stroke-width:0.5913;" width="117.2327" x="144.5656" y="34.654"/><rect fill="#E3F2FD" height="5.9127" style="stroke:#1565C0;stroke-width:0.5913;" width="8.8691" x="249.9729" y="37.6103"/><rect fill="#E3F2FD" height="1.1825" style="stroke:#1565C0;stroke-width:0.5913;" width="2.3651" x="248.7904" y="38.7929"/><rect fill="#E3F2FD" height="1.1825" style="stroke:#1565C0;stroke-width:0.5913;" width="2.3651" x="248.7904" y="41.158"/><text fill="#000000" font-family="Verdana" font-size="8.2778" font-style="italic" lengthAdjust="spacing" textLength="26.1146" x="187.1683" y="54.163">&#171;test&#187;</text><text fill="#000000" font-family="Verdana" font-size="8.2778" lengthAdjust="spacing" textLength="93.5818" x="153.4347" y="63.7989">test_sd_phases_timing</text></g><!--entity test_sd_reboot--><g id="elem_test_sd_reboot"><rect fill="#E3F2FD" height="37.0098" rx="1.4782" ry="1.4782" style="stroke:#1565C0;stroke-width:0.5913;" width="84.5176" x="331.1115" y="107.9715"/><rect fill="#E3F2FD" height="5.9127" style="stroke:#1565C0;stroke-width:0.5913;" width="8.8691" x="403.8037" y="110.9279"/><rect fill="#E3F2FD" height="1.1825" style="stroke:#1565C0;stroke-width:0.5913;" width="2.3651" x="402.6212" y="112.1104"/><rect fill="#E3F2FD" height="1.1825" style="stroke:#1565C0;stroke-width:0.5913;" width="2.3651" x="402.6212" y="114.4755"/><text fill="#000000" font-family="Verdana" font-size="8.2778" font-style="italic" lengthAdjust="spacing" textLength="26.1146" x="357.3566" y="127.4806">&#171;test&#187;</text><text fill="#000000" font-family="Verdana" font-size="8.2778" lengthAdjust="spacing" textLength="60.8668" x="339.9806" y="137.1164">test_sd_reboot</text></g><!--entity test_sd_format_compliance--><g id="elem_test_sd_format_compliance"><rect fill="#E3F2FD" height="37.0098" rx="1.4782" ry="1.4782" style="stroke:#1565C0;stroke-width:0.5913;" width="136.7914" x="7.0952" y="107.9715"/><rect fill="#E3F2FD" height="5.9127" style="stroke:#1565C0;stroke-width:0.5913;" width="8.8691" x="132.0612" y="110.9279"/><rect fill="#E3F2FD" height="1.1825" style="stroke:#1565C0;stroke-width:0.5913;" width="2.3651" x="130.8787" y="112.1104"/><rect fill="#E3F2FD" height="1.1825" style="stroke:#1565C0;stroke-width:0.5913;" width="2.3651" x="130.8787" y="114.4755"/><text fill="#000000" font-family="Verdana" font-size="8.2778" font-style="italic" lengthAdjust="spacing" textLength="26.1146" x="59.4773" y="127.4806">&#171;test&#187;</text><text fill="#000000" font-family="Verdana" font-size="8.2778" lengthAdjust="spacing" textLength="113.1405" x="15.9643" y="137.1164">test_sd_format_compliance</text></g><!--entity test_sd_robustness--><g id="elem_test_sd_robustness"><rect fill="#E3F2FD" height="37.0098" rx="1.4782" ry="1.4782" style="stroke:#1565C0;stroke-width:0.5913;" width="102.884" x="436.6533" y="107.9715"/><rect fill="#E3F2FD" height="5.9127" style="stroke:#1565C0;stroke-width:0.5913;" width="8.8691" x="527.7118" y="110.9279"/><rect fill="#E3F2FD" height="1.1825" style="stroke:#1565C0;stroke-width:0.5913;" width="2.3651" x="526.5293" y="112.1104"/><rect fill="#E3F2FD" height="1.1825" style="stroke:#1565C0;stroke-width:0.5913;" width="2.3651" x="526.5293" y="114.4755"/><text fill="#000000" font-family="Verdana" font-size="8.2778" font-style="italic" lengthAdjust="spacing" textLength="26.1146" x="472.0816" y="127.4806">&#171;test&#187;</text><text fill="#000000" font-family="Verdana" font-size="8.2778" lengthAdjust="spacing" textLength="79.2331" x="445.5223" y="137.1164">test_sd_robustness</text></g><!--entity test_sd_client--><g id="elem_test_sd_client"><rect fill="#E3F2FD" height="37.0098" rx="1.4782" ry="1.4782" style="stroke:#1565C0;stroke-width:0.5913;" width="80.1281" x="716.9155" y="34.654"/><rect fill="#E3F2FD" height="5.9127" style="stroke:#1565C0;stroke-width:0.5913;" width="8.8691" x="785.2182" y="37.6103"/><rect fill="#E3F2FD" height="1.1825" style="stroke:#1565C0;stroke-width:0.5913;" width="2.3651" x="784.0357" y="38.7929"/><rect fill="#E3F2FD" height="1.1825" style="stroke:#1565C0;stroke-width:0.5913;" width="2.3651" x="784.0357" y="41.158"/><text fill="#000000" font-family="Verdana" font-size="8.2778" font-style="italic" lengthAdjust="spacing" textLength="26.1146" x="740.9659" y="54.163">&#171;test&#187;</text><text fill="#000000" font-family="Verdana" font-size="8.2778" lengthAdjust="spacing" textLength="56.4773" x="725.7846" y="63.7989">test_sd_client</text></g><!--entity sd_helpers--><g id="elem_sd_helpers"><rect fill="#E8F5E9" height="37.0098" rx="1.4782" ry="1.4782" style="stroke:#2E7D32;stroke-width:0.5913;" width="68.059" x="265.4805" y="190.7494"/><rect fill="#E8F5E9" height="5.9127" style="stroke:#2E7D32;stroke-width:0.5913;" width="8.8691" x="321.7141" y="193.7058"/><rect fill="#E8F5E9" height="1.1825" style="stroke:#2E7D32;stroke-width:0.5913;" width="2.3651" x="320.5316" y="194.8883"/><rect fill="#E8F5E9" height="1.1825" style="stroke:#2E7D32;stroke-width:0.5913;" width="2.3651" x="320.5316" y="197.2534"/><text fill="#000000" font-family="Verdana" font-size="8.2778" font-style="italic" lengthAdjust="spacing" textLength="36.6074" x="278.2499" y="210.2585">&#171;helper&#187;</text><text fill="#000000" font-family="Verdana" font-size="8.2778" lengthAdjust="spacing" textLength="44.4082" x="274.3495" y="219.8943">sd_helpers</text></g><!--entity sd_sender--><g id="elem_sd_sender"><rect fill="#E8F5E9" height="37.0098" rx="1.4782" ry="1.4782" style="stroke:#2E7D32;stroke-width:0.5913;" width="65.7592" x="681.7349" y="107.9715"/><rect fill="#E8F5E9" height="5.9127" style="stroke:#2E7D32;stroke-width:0.5913;" width="8.8691" x="735.6687" y="110.9279"/><rect fill="#E8F5E9" height="1.1825" style="stroke:#2E7D32;stroke-width:0.5913;" width="2.3651" x="734.4862" y="112.1104"/><rect fill="#E8F5E9" height="1.1825" style="stroke:#2E7D32;stroke-width:0.5913;" width="2.3651" x="734.4862" y="114.4755"/><text fill="#000000" font-family="Verdana" font-size="8.2778" font-style="italic" lengthAdjust="spacing" textLength="36.6074" x="693.3545" y="127.4806">&#171;helper&#187;</text><text fill="#000000" font-family="Verdana" font-size="8.2778" lengthAdjust="spacing" textLength="42.1084" x="690.604" y="137.1164">sd_sender</text></g><!--entity sd_malformed--><g id="elem_sd_malformed"><rect fill="#E8F5E9" height="37.0098" rx="1.4782" ry="1.4782" style="stroke:#2E7D32;stroke-width:0.5913;" width="82.5856" x="446.7049" y="190.7494"/><rect fill="#E8F5E9" height="5.9127" style="stroke:#2E7D32;stroke-width:0.5913;" width="8.8691" x="517.4651" y="193.7058"/><rect fill="#E8F5E9" height="1.1825" style="stroke:#2E7D32;stroke-width:0.5913;" width="2.3651" x="516.2825" y="194.8883"/><rect fill="#E8F5E9" height="1.1825" style="stroke:#2E7D32;stroke-width:0.5913;" width="2.3651" x="516.2825" y="197.2534"/><text fill="#000000" font-family="Verdana" font-size="8.2778" font-style="italic" lengthAdjust="spacing" textLength="36.6074" x="466.7376" y="210.2585">&#171;helper&#187;</text><text fill="#000000" font-family="Verdana" font-size="8.2778" lengthAdjust="spacing" textLength="58.9348" x="455.5739" y="219.8943">sd_malformed</text></g><!--entity someip_assertions--><g id="elem_someip_assertions"><rect fill="#E8F5E9" height="37.0098" rx="1.4782" ry="1.4782" style="stroke:#2E7D32;stroke-width:0.5913;" width="100.2406" x="560.2288" y="107.9715"/><rect fill="#E8F5E9" height="5.9127" style="stroke:#2E7D32;stroke-width:0.5913;" width="8.8691" x="648.644" y="110.9279"/><rect fill="#E8F5E9" height="1.1825" style="stroke:#2E7D32;stroke-width:0.5913;" width="2.3651" x="647.4614" y="112.1104"/><rect fill="#E8F5E9" height="1.1825" style="stroke:#2E7D32;stroke-width:0.5913;" width="2.3651" x="647.4614" y="114.4755"/><text fill="#000000" font-family="Verdana" font-size="8.2778" font-style="italic" lengthAdjust="spacing" textLength="36.6074" x="589.0891" y="127.4806">&#171;helper&#187;</text><text fill="#000000" font-family="Verdana" font-size="8.2778" lengthAdjust="spacing" textLength="76.5897" x="569.0979" y="137.1164">someip_assertions</text></g><!--entity timing--><g id="elem_timing"><rect fill="#E8F5E9" height="37.0098" rx="1.4782" ry="1.4782" style="stroke:#2E7D32;stroke-width:0.5913;" width="61.4407" x="206.6491" y="107.9715"/><rect fill="#E8F5E9" height="5.9127" style="stroke:#2E7D32;stroke-width:0.5913;" width="8.8691" x="256.2644" y="110.9279"/><rect fill="#E8F5E9" height="1.1825" style="stroke:#2E7D32;stroke-width:0.5913;" width="2.3651" x="255.0818" y="112.1104"/><rect fill="#E8F5E9" height="1.1825" style="stroke:#2E7D32;stroke-width:0.5913;" width="2.3651" x="255.0818" y="114.4755"/><text fill="#000000" font-family="Verdana" font-size="8.2778" font-style="italic" lengthAdjust="spacing" textLength="36.6074" x="216.1094" y="127.4806">&#171;helper&#187;</text><text fill="#000000" font-family="Verdana" font-size="8.2778" lengthAdjust="spacing" textLength="26.4097" x="221.2082" y="137.1164">timing</text></g><!--link test_service_discovery to sd_helpers--><g id="link_test_service_discovery_sd_helpers"><path d="M409.2893,61.6514 C378.6615,68.7289 343.0374,82.2335 320.7643,107.9715 C300.6906,131.1671 297.8974,164.9824 298.2817,187.1196 " fill="transparent" id="test_service_discovery-to-sd_helpers" style="stroke:#000000;stroke-width:0.5913;"/><polygon fill="#000000" points="298.3433,190.6666,300.6156,185.305,298.292,187.7107,295.8862,185.3871,298.3433,190.6666" style="stroke:#000000;stroke-width:0.5913;"/></g><!--link test_service_discovery to sd_sender--><g id="link_test_service_discovery_sd_sender"><path d="M526.7038,67.2448 C567.6729,77.125 623.3883,91.6466 671.3877,107.9715 C674.7698,109.1245 674.9572,109.1231 678.428,110.4712 " fill="transparent" id="test_service_discovery-to-sd_sender" style="stroke:#000000;stroke-width:0.5913;"/><polygon fill="#000000" points="681.7349,111.7557,677.6308,107.6244,678.9791,110.6853,675.9182,112.0336,681.7349,111.7557" style="stroke:#000000;stroke-width:0.5913;"/></g><!--link test_service_discovery to someip_assertions--><g id="link_test_service_discovery_someip_assertions"><path d="M503.7625,71.9809 C525.4444,82.9549 549.8504,95.3061 571.5323,106.286 " fill="transparent" id="test_service_discovery-to-someip_assertions" style="stroke:#000000;stroke-width:0.5913;"/><polygon fill="#000000" points="574.6972,107.8888,571.0183,103.3747,572.0598,106.5531,568.8813,107.5946,574.6972,107.8888" style="stroke:#000000;stroke-width:0.5913;"/></g><!--link test_service_discovery to timing--><g id="link_test_service_discovery_timing"><path d="M409.3307,58.2339 C372.1161,62.6802 323.7029,71.6321 284.1055,89.6422 C274.1899,94.1535 267.1969,98.8844 259.2206,105.5539 " fill="transparent" id="test_service_discovery-to-timing" style="stroke:#000000;stroke-width:0.5913;"/><polygon fill="#000000" points="256.4991,107.8296,262.0985,106.2305,258.767,105.9332,259.0643,102.6017,256.4991,107.8296" style="stroke:#000000;stroke-width:0.5913;"/></g><!--link test_sd_phases_timing to timing--><g id="link_test_sd_phases_timing_timing"><path d="M211.7576,72.0755 C216.9549,83.0081 222.0244,93.6694 227.2217,104.602 " fill="transparent" id="test_sd_phases_timing-to-timing" style="stroke:#000000;stroke-width:0.5913;"/><polygon fill="#000000" points="228.7448,107.806,228.5961,101.9845,227.4755,105.136,224.3241,104.0154,228.7448,107.806" style="stroke:#000000;stroke-width:0.5913;"/></g><!--link test_sd_phases_timing to sd_helpers--><g id="link_test_sd_phases_timing_sd_helpers"><path d="M196.0771,71.9632 C189.7624,91.3687 183.2702,122.4518 196.0062,145.2216 C210.7229,171.5331 237.9926,186.9643 262.1046,196.6257 " fill="transparent" id="test_sd_phases_timing-to-sd_helpers" style="stroke:#000000;stroke-width:0.5913;"/><polygon fill="#000000" points="265.3977,197.9452,261.3377,193.7705,262.6534,196.8456,259.5784,198.1613,265.3977,197.9452" style="stroke:#000000;stroke-width:0.5913;"/></g><!--link test_sd_reboot to sd_helpers--><g id="link_test_sd_reboot_sd_helpers"><path d="M356.9855,145.2985 C344.7344,158.8208 330.4542,174.586 318.2149,188.0966 " fill="transparent" id="test_sd_reboot-to-sd_helpers" style="stroke:#000000;stroke-width:0.5913;"/><polygon fill="#000000" points="315.8331,190.7258,321.1586,188.3699,317.8179,188.5348,317.653,185.1941,315.8331,190.7258" style="stroke:#000000;stroke-width:0.5913;"/></g><!--link test_sd_format_compliance to sd_helpers--><g id="link_test_sd_format_compliance_sd_helpers"><path d="M104.4657,145.2571 C120.3886,154.5518 140.7401,165.4844 159.9387,173.0113 C194.7468,186.6637 233.0091,195.8554 261.7212,201.7385 " fill="transparent" id="test_sd_format_compliance-to-sd_helpers" style="stroke:#000000;stroke-width:0.5913;"/><polygon fill="#000000" points="265.1967,202.4507,260.4583,199.0655,262.3005,201.8572,259.5088,203.6994,265.1967,202.4507" style="stroke:#000000;stroke-width:0.5913;"/></g><!--link test_sd_robustness to sd_malformed--><g id="link_test_sd_robustness_sd_malformed"><path d="M488.0938,145.2985 C488.0938,158.8208 488.0938,173.6676 488.0938,187.1781 " fill="transparent" id="test_sd_robustness-to-sd_malformed" style="stroke:#000000;stroke-width:0.5913;"/><polygon fill="#000000" points="488.0938,190.7258,490.4589,185.4043,488.0938,187.7694,485.7287,185.4043,488.0938,190.7258" style="stroke:#000000;stroke-width:0.5913;"/></g><!--link test_sd_robustness to sd_helpers--><g id="link_test_sd_robustness_sd_helpers"><path d="M446.2319,145.2985 C412.3166,159.9679 368.3891,178.9697 336.768,192.6517 " fill="transparent" id="test_sd_robustness-to-sd_helpers" style="stroke:#000000;stroke-width:0.5913;"/><polygon fill="#000000" points="333.5121,194.0605,339.3351,194.118,336.2253,192.8865,337.4567,189.7767,333.5121,194.0605" style="stroke:#000000;stroke-width:0.5913;"/></g><!--link test_sd_client to sd_helpers--><g id="link_test_sd_client_sd_helpers"><path d="M763.5963,72.0755 C769.5563,92.4566 775.1084,125.2485 757.7132,145.2216 C755.9571,147.2378 443.0428,189.4783 337.099,203.7279 " fill="transparent" id="test_sd_client-to-sd_helpers" style="stroke:#000000;stroke-width:0.5913;"/><polygon fill="#000000" points="333.583,204.2008,339.1722,205.8354,336.513,203.8067,338.5417,201.1475,333.583,204.2008" style="stroke:#000000;stroke-width:0.5913;"/></g><!--link test_sd_client to sd_sender--><g id="link_test_sd_client_sd_sender"><path d="M746.3785,72.0755 C739.9278,83.0081 733.5486,93.8187 727.092,104.7513 " fill="transparent" id="test_sd_client-to-sd_sender" style="stroke:#000000;stroke-width:0.5913;"/><polygon fill="#000000" points="725.2879,107.806,730.0304,104.4267,726.7913,105.2604,725.9575,102.0213,725.2879,107.806" style="stroke:#000000;stroke-width:0.5913;"/></g><!--link timing to sd_helpers--><g id="link_timing_sd_helpers"><path d="M242.6279,145.4285 C245.7261,154.2858 250.2375,164.769 256.3158,173.0113 C261.0519,179.4384 264.4659,183.1355 270.6092,188.2914 " fill="transparent" id="timing-to-sd_helpers" style="stroke:#000000;stroke-width:0.5913;stroke-dasharray:7.0,7.0;"/><polygon fill="#000000" points="273.3266,190.572,270.7709,185.3395,271.0621,188.6715,267.7301,188.9627,273.3266,190.572" style="stroke:#000000;stroke-width:0.5913;"/><text fill="#000000" font-family="Verdana" font-size="7.6865" lengthAdjust="spacing" textLength="27.0154" x="256.907" y="170.6858">&#171;uses&#187;</text></g><!--SRC=[ZL9DJm8n5BptLppZ6O8G50tPWopSFEcDc4rjdsn3lz9sKMDC_17-Gd-9NPO5iYp8zStCwxoPNeGS5OALL6ZY6PK8Yhx3gDU3Dy53JlnIQ4iTLS2CiaQZ3l190EufMowSAJIV66dSU1pGXoI1o-bWrf-b9SCuZgw1NWslXvDUcpv7QT6jDuncm-bjSyCExqzlqa6VV14IH8Y67z6j14D8XMTcXUu3Vhz_u2c-20-65v6HeaNDKJE1df1vQIRpbIhZjUePQfirWsSsfnvz5eGIUj56SFXYJ6X3NerJD6HbQb9GpR1LRbuA7pHwtuOoAMBSUmYPnsaLn5fGPxAU-_94Tp1ML9PMa3SGer3OZFgOGn16D_RjBjxEI7jiqEaaiBFr3wioUPBKD7QANDaahNMTHpXmNdTw33tezUYQRRSrOrl52KvpI_K7paCtuPBDUTtklWRkOfb5l3v9_W00]--></g></svg>