<svg xmlns="http://www.w3.org/2000/svg" xmlns:xlink="http://www.w3.org/1999/xlink" contentStyleType="text/css" data-diagram-type="DESCRIPTION" height="671px" preserveAspectRatio="none" style="width:495px;height:671px;background:#FFFFFF;" version="1.1" viewBox="0 0 495 671" width="495px" zoomAndPan="magnify"><defs/><g><!--cluster Protocol Conformance--><g id="cluster_Protocol Conformance"><rect fill="#FFFFFF" height="243.5" rx="2.5" ry="2.5" style="stroke:#000000;stroke-width:1;" width="226" x="12" y="12"/><text fill="#000000" font-family="Verdana" font-size="14" font-weight="bold" lengthAdjust="spacing" textLength="174.9521" x="37.5239" y="26.9951">Protocol Conformance</text></g><!--cluster Application-Level Tests--><g id="cluster_Application-Level Tests"><rect fill="#FFFFFF" height="653" rx="2.5" ry="2.5" style="stroke:#000000;stroke-width:1;" width="227" x="262" y="12"/><text fill="#000000" font-family="Verdana" font-size="14" font-weight="bold" lengthAdjust="spacing" textLength="184.2217" x="283.3892" y="26.9951">Application-Level Tests</text></g><!--entity L1Test--><g id="elem_L1Test"><rect fill="#FFFFFF" height="46.2969" rx="2.5" ry="2.5" style="stroke:#000000;stroke-width:1;" width="84.0576" x="83" y="47"/><rect fill="#FFFFFF" height="10" style="stroke:#000000;stroke-width:1;" width="15" x="147.0576" y="52"/><rect fill="#FFFFFF" height="2" style="stroke:#000000;stroke-width:1;" width="4" x="145.0576" y="54"/><rect fill="#FFFFFF" height="2" style="stroke:#000000;stroke-width:1;" width="4" x="145.0576" y="58"/><text fill="#000000" font-family="Verdana" font-size="14" lengthAdjust="spacing" textLength="44.0576" x="98" y="79.9951">pytest</text></g><!--entity L1DUT--><g id="elem_L1DUT"><rect fill="#FFFFFF" height="46.2969" rx="2.5" ry="2.5" style="stroke:#000000;stroke-width:1;" width="192.79" x="28.5" y="193.5"/><rect fill="#FFFFFF" height="10" style="stroke:#000000;stroke-width:1;" width="15" x="201.29" y="198.5"/><rect fill="#FFFFFF" height="2" style="stroke:#000000;stroke-width:1;" width="4" x="199.29" y="200.5"/><rect fill="#FFFFFF" height="2" style="stroke:#000000;stroke-width:1;" width="4" x="199.29" y="204.5"/><text fill="#000000" font-family="Verdana" font-size="14" lengthAdjust="spacing" textLength="152.79" x="43.5" y="226.4951">someipd (standalone)</text></g><!--entity L2Orch--><g id="elem_L2Orch"><rect fill="#FFFFFF" height="46.2969" rx="2.5" ry="2.5" style="stroke:#000000;stroke-width:1;" width="84.0576" x="352" y="47"/><rect fill="#FFFFFF" height="10" style="stroke:#000000;stroke-width:1;" width="15" x="416.0576" y="52"/><rect fill="#FFFFFF" height="2" style="stroke:#000000;stroke-width:1;" width="4" x="414.0576" y="54"/><rect fill="#FFFFFF" height="2" style="stroke:#000000;stroke-width:1;" width="4" x="414.0576" y="58"/><text fill="#000000" font-family="Verdana" font-size="14" lengthAdjust="spacing" textLength="44.0576" x="367" y="79.9951">pytest</text></g><!--entity L2Client--><g id="elem_L2Client"><rect fill="#FFFFFF" height="62.5938" rx="2.5" ry="2.5" style="stroke:#000000;stroke-width:1;" width="159.1299" x="277.5" y="185"/><rect fill="#FFFFFF" height="10" style="stroke:#000000;stroke-width:1;" width="15" x="416.6299" y="190"/><rect fill="#FFFFFF" height="2" style="stroke:#000000;stroke-width:1;" width="4" x="414.6299" y="192"/><rect fill="#FFFFFF" height="2" style="stroke:#000000;stroke-width:1;" width="4" x="414.6299" y="196"/><text fill="#000000" font-family="Verdana" font-size="14" lengthAdjust="spacing" textLength="72.2148" x="292.5" y="217.9951">TC8 Client</text><text fill="#000000" font-family="Verdana" font-size="14" lengthAdjust="spacing" textLength="119.1299" x="292.5" y="234.292">(mw::com Proxy)</text></g><!--entity L2GW--><g id="elem_L2GW"><rect fill="#FFFFFF" height="46.2969" rx="2.5" ry="2.5" style="stroke:#000000;stroke-width:1;" width="108.7695" x="305.5" y="325"/><rect fill="#FFFFFF" height="10" style="stroke:#000000;stroke-width:1;" width="15" x="394.2695" y="330"/><rect fill="#FFFFFF" height="2" style="stroke:#000000;stroke-width:1;" width="4" x="392.2695" y="332"/><rect fill="#FFFFFF" height="2" style="stroke:#000000;stroke-width:1;" width="4" x="392.2695" y="336"/><text fill="#000000" font-family="Verdana" font-size="14" lengthAdjust="spacing" textLength="68.7695" x="320.5" y="357.9951">gatewayd</text></g><!--entity L2SOMEIP--><g id="elem_L2SOMEIP"><rect fill="#FFFFFF" height="46.2969" rx="2.5" ry="2.5" style="stroke:#000000;stroke-width:1;" width="99.7734" x="315" y="448"/><rect fill="#FFFFFF" height="10" style="stroke:#000000;stroke-width:1;" width="15" x="394.7734" y="453"/><rect fill="#FFFFFF" height="2" style="stroke:#000000;stroke-width:1;" width="4" x="392.7734" y="455"/><rect fill="#FFFFFF" height="2" style="stroke:#000000;stroke-width:1;" width="4" x="392.7734" y="459"/><text fill="#000000" font-family="Verdana" font-size="14" lengthAdjust="spacing" textLength="59.7734" x="330" y="480.9951">someipd</text></g><!--entity L2Service--><g id="elem_L2Service"><rect fill="#FFFFFF" height="62.5938" rx="2.5" ry="2.5" style="stroke:#000000;stroke-width:1;" width="180.834" x="284.5" y="586"/><rect fill="#FFFFFF" height="10" style="stroke:#000000;stroke-width:1;" width="15" x="445.334" y="591"/><rect fill="#FFFFFF" height="2" style="stroke:#000000;stroke-width:1;" width="4" x="443.334" y="593"/><rect fill="#FFFFFF" height="2" style="stroke:#000000;stroke-width:1;" width="4" x="443.334" y="597"/><text fill="#000000" font-family="Verdana" font-size="14" lengthAdjust="spacing" textLength="83.4258" x="299.5" y="618.9951">TC8 Service</text><text fill="#000000" font-family="Verdana" font-size="14" lengthAdjust="spacing" textLength="140.834" x="299.5" y="635.292">(mw::com Skeleton)</text></g><!--link L1Test to L1DUT--><g id="link_L1Test_L1DUT"><path d="M125,93.26 C125,120.49 125,160.31 125,187.45 " fill="transparent" id="L1Test-to-L1DUT" style="stroke:#000000;stroke-width:1;"/><polygon fill="#000000" points="125,193.45,129,184.45,125,188.45,121,184.45,125,193.45" style="stroke:#000000;stroke-width:1;"/><text fill="#000000" font-family="Verdana" font-size="13" lengthAdjust="spacing" textLength="82.0435" x="126" y="136.0669">raw SOME/IP</text><text fill="#000000" font-family="Verdana" font-size="13" lengthAdjust="spacing" textLength="64.8667" x="134.5884" y="151.1997">UDP / TCP</text></g><!--link L2Orch to L2Client--><g id="link_L2Orch_L2Client"><path d="M388.3,93.26 C382.02,117.8 373.3586,151.6276 366.3286,179.0776 " fill="transparent" id="L2Orch-to-L2Client" style="stroke:#000000;stroke-width:1;stroke-dasharray:7.0,7.0;"/><polygon fill="#000000" points="364.84,184.89,370.9478,177.1638,366.0805,180.0463,363.1979,175.179,364.84,184.89" style="stroke:#000000;stroke-width:1;"/></g><!--link L2Orch to L2Service--><g id="link_L2Orch_L2Service"><path d="M414.9,93.03 C438.01,119.78 472,167.32 472,215.5 C472,215.5 472,215.5 472,472 C472,511.35 465.77,523.22 444,556 C436.77,566.88 431.5722,573.0113 421.7622,581.7413 " fill="transparent" id="L2Orch-to-L2Service" style="stroke:#000000;stroke-width:1;stroke-dasharray:7.0,7.0;"/><polygon fill="#000000" points="417.28,585.73,426.6624,582.735,421.0152,582.4061,421.3441,576.7588,417.28,585.73" style="stroke:#000000;stroke-width:1;"/></g><!--link L2Client to L2GW--><g id="link_L2Client_L2GW"><path d="M357.71,248.19 C358.26,271.68 358.8508,297.5216 359.3408,318.6316 " fill="transparent" id="L2Client-to-L2GW" style="stroke:#000000;stroke-width:1;"/><polygon fill="#000000" points="359.48,324.63,363.2701,315.5396,359.364,319.6313,355.2722,315.7252,359.48,324.63" style="stroke:#000000;stroke-width:1;"/><text fill="#000000" font-family="Verdana" font-size="13" lengthAdjust="spacing" textLength="55.2881" x="359" y="291.0669">LoLa IPC</text></g><!--link L2GW to L2SOMEIP--><g id="link_L2GW_L2SOMEIP"><path d="M360.92,371.19 C361.82,393.03 362.9424,420.1651 363.8424,441.9551 " fill="transparent" id="L2GW-to-L2SOMEIP" style="stroke:#000000;stroke-width:1;"/><polygon fill="#000000" points="364.09,447.95,367.7152,438.7926,363.8837,442.9543,359.722,439.1227,364.09,447.95" style="stroke:#000000;stroke-width:1;"/><text fill="#000000" font-family="Verdana" font-size="13" lengthAdjust="spacing" textLength="55.2881" x="363" y="414.0669">LoLa IPC</text></g><!--link L2SOMEIP to L2Service--><g id="link_L2SOMEIP_L2Service"><path d="M366.54,494.26 C368.24,518.8 370.5657,552.4543 372.4657,579.9043 " fill="transparent" id="L2SOMEIP-to-L2Service" style="stroke:#000000;stroke-width:1;"/><polygon fill="#000000" points="372.88,585.89,376.249,576.6353,372.5347,580.9019,368.2681,577.1877,372.88,585.89" style="stroke:#000000;stroke-width:1;"/><text fill="#000000" font-family="Verdana" font-size="13" lengthAdjust="spacing" textLength="53.9678" x="376.4495" y="537.0669">SOME/IP</text><text fill="#000000" font-family="Verdana" font-size="13" lengthAdjust="spacing" textLength="64.8667" x="371" y="552.1997">UDP / TCP</text></g><!--SRC=[RP0nQyCm48Lt_ufhfdH8GZEL387Yb69mYS4E7PeEXtnrX6L9o2AkAVtlbMAbCMasyUxJk_VkpXwe8T02kOpQcakD1XlGo6giABUz8334BCfAK1G57IQPKLOn9I1MybEP1YMZ2Nn70E-wjzJQ3y0MqeV2FRtOgeQuBc7QEgiIXP9q7v3Dhd34WCAiL9sShGSPLc2mWtpx-hn8ihtSRJ9OG15dqSyeofFMWZEqNCbPIaSIu9tQ6scMMyCENYpYHuW59sdtSjfqgnLJ3RXANtq8jHocdgtGKeTz6GOlRwCwGVC1a-nid9CvSaOZvxmcGLR9itaW8b_xb0dcllPyFLxyRtB-1N_KvLekbZjMgbA498jFY5Ckuo7XDHBK4JQiSDojc_y2]--></g></svg>