<svg xmlns="http://www.w3.org/2000/svg" xmlns:xlink="http://www.w3.org/1999/xlink" contentStyleType="text/css" data-diagram-type="DESCRIPTION" height="388.0161px" preserveAspectRatio="none" style="width:800px;height:388px;background:#FFFFFF;" version="1.1" viewBox="0 0 800 388" width="800.1463px" zoomAndPan="magnify"><title>Message / Event / Field / TCP &#8212; Test Module Dependencies</title><defs/><g><text fill="#000000" font-family="Verdana" font-size="16.076" font-weight="bold" lengthAdjust="spacing" textLength="532.4076" x="130.8733" y="25.883">Message / Event / Field / TCP &#8212; Test Module Dependencies</text><!--entity test_someip_message_format--><g id="elem_test_someip_message_format"><rect fill="#E3F2FD" height="45.739" rx="1.8268" ry="1.8268" style="stroke:#1565C0;stroke-width:0.7307;" width="181.6928" x="278.4071" y="133.4376"/><rect fill="#E3F2FD" height="7.3073" style="stroke:#1565C0;stroke-width:0.7307;" width="10.9609" x="445.4853" y="137.0913"/><rect fill="#E3F2FD" height="1.4615" style="stroke:#1565C0;stroke-width:0.7307;" width="2.9229" x="444.0238" y="138.5527"/><rect fill="#E3F2FD" height="1.4615" style="stroke:#1565C0;stroke-width:0.7307;" width="2.9229" x="444.0238" y="141.4756"/><text fill="#000000" font-family="Verdana" font-size="10.2302" font-style="italic" lengthAdjust="spacing" textLength="32.274" x="349.4628" y="157.5481">&#171;test&#187;</text><text fill="#000000" font-family="Verdana" font-size="10.2302" lengthAdjust="spacing" textLength="152.4637" x="289.368" y="169.4566">test_someip_message_format</text></g><!--entity test_event_notification--><g id="elem_test_event_notification"><rect fill="#E3F2FD" height="45.739" rx="1.8268" ry="1.8268" style="stroke:#1565C0;stroke-width:0.7307;" width="145.7722" x="561.1985" y="133.4376"/><rect fill="#E3F2FD" height="7.3073" style="stroke:#1565C0;stroke-width:0.7307;" width="10.9609" x="692.3562" y="137.0913"/><rect fill="#E3F2FD" height="1.4615" style="stroke:#1565C0;stroke-width:0.7307;" width="2.9229" x="690.8947" y="138.5527"/><rect fill="#E3F2FD" height="1.4615" style="stroke:#1565C0;stroke-width:0.7307;" width="2.9229" x="690.8947" y="141.4756"/><text fill="#000000" font-family="Verdana" font-size="10.2302" font-style="italic" lengthAdjust="spacing" textLength="32.274" x="614.294" y="157.5481">&#171;test&#187;</text><text fill="#000000" font-family="Verdana" font-size="10.2302" lengthAdjust="spacing" textLength="116.5431" x="572.1594" y="169.4566">test_event_notification</text></g><!--entity test_field_conformance--><g id="elem_test_field_conformance"><rect fill="#E3F2FD" height="45.739" rx="1.8268" ry="1.8268" style="stroke:#1565C0;stroke-width:0.7307;" width="148.2498" x="447.9358" y="42.8275"/><rect fill="#E3F2FD" height="7.3073" style="stroke:#1565C0;stroke-width:0.7307;" width="10.9609" x="581.5711" y="46.4811"/><rect fill="#E3F2FD" height="1.4615" style="stroke:#1565C0;stroke-width:0.7307;" width="2.9229" x="580.1096" y="47.9426"/><rect fill="#E3F2FD" height="1.4615" style="stroke:#1565C0;stroke-width:0.7307;" width="2.9229" x="580.1096" y="50.8655"/><text fill="#000000" font-family="Verdana" font-size="10.2302" font-style="italic" lengthAdjust="spacing" textLength="32.274" x="502.2701" y="66.9379">&#171;test&#187;</text><text fill="#000000" font-family="Verdana" font-size="10.2302" lengthAdjust="spacing" textLength="119.0208" x="458.8967" y="78.8465">test_field_conformance</text></g><!--entity message_builder--><g id="elem_message_builder"><rect fill="#E8F5E9" height="45.739" rx="1.8268" ry="1.8268" style="stroke:#2E7D32;stroke-width:0.7307;" width="115.9758" x="8.7687" y="235.7394"/><rect fill="#E8F5E9" height="7.3073" style="stroke:#2E7D32;stroke-width:0.7307;" width="10.9609" x="110.13" y="239.3931"/><rect fill="#E8F5E9" height="1.4615" style="stroke:#2E7D32;stroke-width:0.7307;" width="2.9229" x="108.6686" y="240.8545"/><rect fill="#E8F5E9" height="1.4615" style="stroke:#2E7D32;stroke-width:0.7307;" width="2.9229" x="108.6686" y="243.7774"/><text fill="#000000" font-family="Verdana" font-size="10.2302" font-style="italic" lengthAdjust="spacing" textLength="45.2416" x="40.4822" y="259.8499">&#171;helper&#187;</text><text fill="#000000" font-family="Verdana" font-size="10.2302" lengthAdjust="spacing" textLength="86.7467" x="19.7296" y="271.7584">message_builder</text></g><!--entity someip_assertions--><g id="elem_someip_assertions"><rect fill="#E8F5E9" height="45.739" rx="1.8268" ry="1.8268" style="stroke:#2E7D32;stroke-width:0.7307;" width="123.8832" x="150.8952" y="235.7394"/><rect fill="#E8F5E9" height="7.3073" style="stroke:#2E7D32;stroke-width:0.7307;" width="10.9609" x="260.1639" y="239.3931"/><rect fill="#E8F5E9" height="1.4615" style="stroke:#2E7D32;stroke-width:0.7307;" width="2.9229" x="258.7024" y="240.8545"/><rect fill="#E8F5E9" height="1.4615" style="stroke:#2E7D32;stroke-width:0.7307;" width="2.9229" x="258.7024" y="243.7774"/><text fill="#000000" font-family="Verdana" font-size="10.2302" font-style="italic" lengthAdjust="spacing" textLength="45.2416" x="186.5624" y="259.8499">&#171;helper&#187;</text><text fill="#000000" font-family="Verdana" font-size="10.2302" lengthAdjust="spacing" textLength="94.6541" x="161.8561" y="271.7584">someip_assertions</text></g><!--entity sd_helpers--><g id="elem_sd_helpers"><rect fill="#E8F5E9" height="45.739" rx="1.8268" ry="1.8268" style="stroke:#2E7D32;stroke-width:0.7307;" width="84.1114" x="532.7001" y="235.7394"/><rect fill="#E8F5E9" height="7.3073" style="stroke:#2E7D32;stroke-width:0.7307;" width="10.9609" x="602.197" y="239.3931"/><rect fill="#E8F5E9" height="1.4615" style="stroke:#2E7D32;stroke-width:0.7307;" width="2.9229" x="600.7355" y="240.8545"/><rect fill="#E8F5E9" height="1.4615" style="stroke:#2E7D32;stroke-width:0.7307;" width="2.9229" x="600.7355" y="243.7774"/><text fill="#000000" font-family="Verdana" font-size="10.2302" font-style="italic" lengthAdjust="spacing" textLength="45.2416" x="548.4814" y="259.8499">&#171;helper&#187;</text><text fill="#000000" font-family="Verdana" font-size="10.2302" lengthAdjust="spacing" textLength="54.8823" x="543.661" y="271.7584">sd_helpers</text></g><!--entity sd_sender--><g id="elem_sd_sender"><rect fill="#E8F5E9" height="45.739" rx="1.8268" ry="1.8268" style="stroke:#2E7D32;stroke-width:0.7307;" width="81.2691" x="636.4634" y="338.0413"/><rect fill="#E8F5E9" height="7.3073" style="stroke:#2E7D32;stroke-width:0.7307;" width="10.9609" x="703.118" y="341.6949"/><rect fill="#E8F5E9" height="1.4615" style="stroke:#2E7D32;stroke-width:0.7307;" width="2.9229" x="701.6565" y="343.1563"/><rect fill="#E8F5E9" height="1.4615" style="stroke:#2E7D32;stroke-width:0.7307;" width="2.9229" x="701.6565" y="346.0793"/><text fill="#000000" font-family="Verdana" font-size="10.2302" font-style="italic" lengthAdjust="spacing" textLength="45.2416" x="650.8235" y="362.1517">&#171;helper&#187;</text><text fill="#000000" font-family="Verdana" font-size="10.2302" lengthAdjust="spacing" textLength="52.0401" x="647.4243" y="374.0603">sd_sender</text></g><!--entity event_helpers--><g id="elem_event_helpers"><rect fill="#E8F5E9" height="45.739" rx="1.8268" ry="1.8268" style="stroke:#2E7D32;stroke-width:0.7307;" width="101.4248" x="694.9216" y="235.7394"/><rect fill="#E8F5E9" height="7.3073" style="stroke:#2E7D32;stroke-width:0.7307;" width="10.9609" x="781.7318" y="239.3931"/><rect fill="#E8F5E9" height="1.4615" style="stroke:#2E7D32;stroke-width:0.7307;" width="2.9229" x="780.2704" y="240.8545"/><rect fill="#E8F5E9" height="1.4615" style="stroke:#2E7D32;stroke-width:0.7307;" width="2.9229" x="780.2704" y="243.7774"/><text fill="#000000" font-family="Verdana" font-size="10.2302" font-style="italic" lengthAdjust="spacing" textLength="45.2416" x="719.3595" y="259.8499">&#171;helper&#187;</text><text fill="#000000" font-family="Verdana" font-size="10.2302" lengthAdjust="spacing" textLength="72.1957" x="705.8825" y="271.7584">event_helpers</text></g><!--entity field_helpers--><g id="elem_field_helpers"><rect fill="#E8F5E9" height="45.739" rx="1.8268" ry="1.8268" style="stroke:#2E7D32;stroke-width:0.7307;" width="94.3616" x="158.5678" y="133.4376"/><rect fill="#E8F5E9" height="7.3073" style="stroke:#2E7D32;stroke-width:0.7307;" width="10.9609" x="238.3148" y="137.0913"/><rect fill="#E8F5E9" height="1.4615" style="stroke:#2E7D32;stroke-width:0.7307;" width="2.9229" x="236.8534" y="138.5527"/><rect fill="#E8F5E9" height="1.4615" style="stroke:#2E7D32;stroke-width:0.7307;" width="2.9229" x="236.8534" y="141.4756"/><text fill="#000000" font-family="Verdana" font-size="10.2302" font-style="italic" lengthAdjust="spacing" textLength="45.2416" x="179.4742" y="157.5481">&#171;helper&#187;</text><text fill="#000000" font-family="Verdana" font-size="10.2302" lengthAdjust="spacing" textLength="65.1325" x="169.5287" y="169.4566">field_helpers</text></g><!--entity tcp_helpers--><g id="elem_tcp_helpers"><rect fill="#E8F5E9" height="45.739" rx="1.8268" ry="1.8268" style="stroke:#2E7D32;stroke-width:0.7307;" width="88.4173" x="418.7067" y="235.7394"/><rect fill="#E8F5E9" height="7.3073" style="stroke:#2E7D32;stroke-width:0.7307;" width="10.9609" x="492.5094" y="239.3931"/><rect fill="#E8F5E9" height="1.4615" style="stroke:#2E7D32;stroke-width:0.7307;" width="2.9229" x="491.048" y="240.8545"/><rect fill="#E8F5E9" height="1.4615" style="stroke:#2E7D32;stroke-width:0.7307;" width="2.9229" x="491.048" y="243.7774"/><text fill="#000000" font-family="Verdana" font-size="10.2302" font-style="italic" lengthAdjust="spacing" textLength="45.2416" x="436.6409" y="259.8499">&#171;helper&#187;</text><text fill="#000000" font-family="Verdana" font-size="10.2302" lengthAdjust="spacing" textLength="59.1882" x="429.6676" y="271.7584">tcp_helpers</text></g><!--entity udp_helpers--><g id="elem_udp_helpers"><rect fill="#E8F5E9" height="45.739" rx="1.8268" ry="1.8268" style="stroke:#2E7D32;stroke-width:0.7307;" width="91.7591" x="300.6942" y="235.7394"/><rect fill="#E8F5E9" height="7.3073" style="stroke:#2E7D32;stroke-width:0.7307;" width="10.9609" x="377.8388" y="239.3931"/><rect fill="#E8F5E9" height="1.4615" style="stroke:#2E7D32;stroke-width:0.7307;" width="2.9229" x="376.3773" y="240.8545"/><rect fill="#E8F5E9" height="1.4615" style="stroke:#2E7D32;stroke-width:0.7307;" width="2.9229" x="376.3773" y="243.7774"/><text fill="#000000" font-family="Verdana" font-size="10.2302" font-style="italic" lengthAdjust="spacing" textLength="45.2416" x="320.2994" y="259.8499">&#171;helper&#187;</text><text fill="#000000" font-family="Verdana" font-size="10.2302" lengthAdjust="spacing" textLength="62.53" x="311.6552" y="271.7584">udp_helpers</text></g><!--link test_someip_message_format to message_builder--><g id="link_test_someip_message_format_message_builder"><path d="M296.3976,179.5538 C274.4758,186.4081 250.391,194.0807 228.3523,201.3953 C193.9496,212.8165 159.7907,224.7424 129.1367,235.6376 " fill="transparent" id="test_someip_message_format-to-message_builder" style="stroke:#000000;stroke-width:0.7307;"/><polygon fill="#000000" points="125.0055,237.1059,132.1812,237.6576,128.4482,235.8823,130.2234,232.1493,125.0055,237.1059" style="stroke:#000000;stroke-width:0.7307;"/></g><!--link test_someip_message_format to someip_assertions--><g id="link_test_someip_message_format_someip_assertions"><path d="M280.3362,179.5684 C267.4315,185.312 254.9726,192.4804 244.4282,201.3953 C233.7816,210.3978 227.8491,219.956 222.734,231.5526 " fill="transparent" id="test_someip_message_format-to-someip_assertions" style="stroke:#000000;stroke-width:0.7307;"/><polygon fill="#000000" points="220.9646,235.5641,226.293,230.7265,222.4391,232.2212,220.9444,228.3673,220.9646,235.5641" style="stroke:#000000;stroke-width:0.7307;"/></g><!--link test_someip_message_format to sd_helpers--><g id="link_test_someip_message_format_sd_helpers"><path d="M414.9507,179.5684 C450.0403,196.799 494.2454,218.5049 528.4873,235.3262 " fill="transparent" id="test_someip_message_format-to-sd_helpers" style="stroke:#000000;stroke-width:0.7307;"/><polygon fill="#000000" points="532.4225,237.2594,527.8085,231.7362,529.1431,235.6484,525.2309,236.9831,532.4225,237.2594" style="stroke:#000000;stroke-width:0.7307;"/></g><!--link test_someip_message_format to tcp_helpers--><g id="link_test_someip_message_format_tcp_helpers"><path d="M390.1426,179.5684 C405.6413,196.2802 423.7488,215.7983 439.2329,232.4954 " fill="transparent" id="test_someip_message_format-to-tcp_helpers" style="stroke:#000000;stroke-width:0.7307;"/><polygon fill="#000000" points="442.2142,235.7102,439.8855,228.9005,439.7298,233.0312,435.5991,232.8755,442.2142,235.7102" style="stroke:#000000;stroke-width:0.7307;"/></g><!--link test_someip_message_format to udp_helpers--><g id="link_test_someip_message_format_udp_helpers"><path d="M364.3552,179.5684 C360.5993,196.2802 356.4519,214.7352 352.7033,231.4323 " fill="transparent" id="test_someip_message_format-to-udp_helpers" style="stroke:#000000;stroke-width:0.7307;"/><polygon fill="#000000" points="351.7428,235.7102,356.0354,229.9337,352.5432,232.1453,350.3316,228.6531,351.7428,235.7102" style="stroke:#000000;stroke-width:0.7307;"/></g><!--link test_event_notification to event_helpers--><g id="link_test_event_notification_event_helpers"><path d="M658.7213,179.5684 C677.2453,196.2802 699.1999,216.0764 717.7092,232.7735 " fill="transparent" id="test_event_notification-to-event_helpers" style="stroke:#000000;stroke-width:0.7307;"/><polygon fill="#000000" points="720.9647,235.7102,718.0393,229.1348,718.2518,233.2629,714.1236,233.4754,720.9647,235.7102" style="stroke:#000000;stroke-width:0.7307;"/></g><!--link test_event_notification to sd_helpers--><g id="link_test_event_notification_sd_helpers"><path d="M620.7674,179.5684 C610.961,196.2802 599.8371,215.2318 590.038,231.9289 " fill="transparent" id="test_event_notification-to-sd_helpers" style="stroke:#000000;stroke-width:0.7307;"/><polygon fill="#000000" points="587.8189,235.7102,593.6684,231.5177,589.6682,232.5591,588.6267,228.5589,587.8189,235.7102" style="stroke:#000000;stroke-width:0.7307;"/></g><!--link test_event_notification to sd_sender--><g id="link_test_event_notification_sd_sender"><path d="M638.641,179.51 C646.9347,218.5674 663.0645,294.5929 671.3655,333.6795 " fill="transparent" id="test_event_notification-to-sd_sender" style="stroke:#000000;stroke-width:0.7307;"/><polygon fill="#000000" points="672.2763,337.9682,673.7692,330.9279,671.5173,334.3943,668.051,332.1423,672.2763,337.9682" style="stroke:#000000;stroke-width:0.7307;"/></g><!--link test_event_notification to tcp_helpers--><g id="link_test_event_notification_tcp_helpers"><path d="M595.9592,179.5684 C567.6216,196.2802 532.8448,216.7857 504.5364,233.4828 " fill="transparent" id="test_event_notification-to-tcp_helpers" style="stroke:#000000;stroke-width:0.7307;"/><polygon fill="#000000" points="500.76,235.7102,507.9096,234.8867,503.907,233.854,504.9397,229.8515,500.76,235.7102" style="stroke:#000000;stroke-width:0.7307;"/></g><!--link test_field_conformance to field_helpers--><g id="link_test_field_conformance_field_helpers"><path d="M447.7385,83.8505 C396.2368,96.3313 326.2916,114.2999 265.6193,133.4376 C261.4907,134.7383 261.3733,134.7279 257.1132,136.2039 " fill="transparent" id="test_field_conformance-to-field_helpers" style="stroke:#000000;stroke-width:0.7307;"/><polygon fill="#000000" points="252.9705,137.6393,260.1415,138.2481,256.4227,136.4432,258.2276,132.7244,252.9705,137.6393" style="stroke:#000000;stroke-width:0.7307;"/></g><!--link test_field_conformance to event_helpers--><g id="link_test_field_conformance_event_helpers"><path d="M596.4853,73.8103 C638.3779,81.7825 688.3669,98.4796 719.4009,133.4376 C744.5745,161.7899 747.9218,203.6835 747.3226,231.1515 " fill="transparent" id="test_field_conformance-to-event_helpers" style="stroke:#000000;stroke-width:0.7307;"/><polygon fill="#000000" points="747.227,235.5348,750.2927,229.0236,747.3067,231.8821,744.4482,228.8961,747.227,235.5348" style="stroke:#000000;stroke-width:0.7307;"/></g><!--link test_field_conformance to sd_helpers--><g id="link_test_field_conformance_sd_helpers"><path d="M526.6789,89.0094 C531.5017,111.9104 539.6055,148.3956 548.4108,179.4735 C553.8181,198.5674 559.5874,215.7696 565.0897,231.378 " fill="transparent" id="test_field_conformance-to-sd_helpers" style="stroke:#000000;stroke-width:0.7307;"/><polygon fill="#000000" points="566.5474,235.5129,567.1175,228.3387,565.3327,232.0671,561.6043,230.2823,566.5474,235.5129" style="stroke:#000000;stroke-width:0.7307;"/></g><!--link event_helpers to sd_sender--><g id="link_event_helpers_sd_sender"><path d="M730.4641,281.8703 C719.0794,298.582 706.0641,317.6917 694.6867,334.3888 " fill="transparent" id="event_helpers-to-sd_sender" style="stroke:#000000;stroke-width:0.7307;stroke-dasharray:7.0,7.0;"/><polygon fill="#000000" points="692.2179,338.012,698.3366,334.2231,694.2752,334.9927,693.5057,330.9314,692.2179,338.012" style="stroke:#000000;stroke-width:0.7307;"/><text fill="#000000" font-family="Verdana" font-size="9.4995" lengthAdjust="spacing" textLength="33.3872" x="715.7473" y="313.2454">&#171;uses&#187;</text></g><!--link field_helpers to message_builder--><g id="link_field_helpers_message_builder"><path d="M158.4655,175.111 C143.3321,182.0602 127.0296,190.902 113.6281,201.3953 C101.3811,210.9824 92.7859,220.7711 84.4264,232.0754 " fill="transparent" id="field_helpers-to-message_builder" style="stroke:#000000;stroke-width:0.7307;stroke-dasharray:7.0,7.0;"/><polygon fill="#000000" points="81.8195,235.6006,88.0799,232.0507,83.9919,232.663,83.3797,228.5749,81.8195,235.6006" style="stroke:#000000;stroke-width:0.7307;"/><text fill="#000000" font-family="Verdana" font-size="9.4995" lengthAdjust="spacing" textLength="33.3872" x="114.3588" y="210.9436">&#171;uses&#187;</text></g><!--link field_helpers to tcp_helpers--><g id="link_field_helpers_tcp_helpers"><path d="M252.8755,175.681 C300.1608,194.2195 368.2965,220.9354 414.5369,239.0574 " fill="transparent" id="field_helpers-to-tcp_helpers" style="stroke:#000000;stroke-width:0.7307;stroke-dasharray:7.0,7.0;"/><polygon fill="#000000" points="418.619,240.6572,413.5624,235.5362,415.2173,239.3241,411.4294,240.9789,418.619,240.6572" style="stroke:#000000;stroke-width:0.7307;"/><text fill="#000000" font-family="Verdana" font-size="9.4995" lengthAdjust="spacing" textLength="33.3872" x="350.3837" y="210.9436">&#171;uses&#187;</text></g><!--SRC=[XP9DJiCm48NtFiKWrlsXLQ6WgWlQP5U9HNSLYemzRQqcTcGxW8IGE0Gdv2J4IGFvQxAAalVDotlsNDaZHWXnI8KaXj4G8QBlC1-FuKrmUoJc96HCDOs0gIXM4gM53mBmIDdfe5KY-Kg5IYyM5erTBk7Qc_eJV-q8fJdgcdepkvsjnctpHmnZr9d3t9zvztM7VttYtQsd4_99Y1Ks3Rn1O-W1OGJUguit0bzWoDFdTlK4Fr_Vi4t_3Xl5avHUOuoIesG23I4x5ommAa8H1r5k5EoLZgXzXYBscKBd7aXbnLumQeMI3MJlVXmm9JCBoR14a5tX_vA8C2tcjA8LsPqpK6DGEszJatcGlpI_6zUdvfPdRPt8CxPAbiNjGiBR1NBv-60mM4AjSH_UE8FUWRyYVMIfMXzQAaikN7p6LSwuawp7l8pbTzb9DPeqbYx3AjVS1RRKQ0TBBKXb28R3KdXuI3SaCMZI_QY4oB3QHdJ3fQeby1S0]--></g></svg>