<svg xmlns="http://www.w3.org/2000/svg" xmlns:xlink="http://www.w3.org/1999/xlink" contentStyleType="text/css" data-diagram-type="CLASS" height="396.8621px" preserveAspectRatio="none" style="width:800px;height:396px;background:#FFFFFF;" version="1.1" viewBox="0 0 800 396" width="800.0741px" zoomAndPan="magnify"><title>Service Discovery &#8212; Test Module Dependencies</title><defs/><g><text fill="#000000" font-family="Verdana" font-size="11.6413" font-weight="bold" lengthAdjust="spacing" textLength="313.3201" x="241.2234" y="18.743">Service Discovery &#8212; Test Module Dependencies</text><!--class test_service_discovery--><g id="elem_test_service_discovery"><rect codeLine="13" fill="#E3F2FD" height="72.8903" id="test_service_discovery" rx="1.3229" ry="1.3229" style="stroke:#1565C0;stroke-width:0.5291;" width="152.5584" x="255.8068" y="31.0131"/><ellipse cx="288.2177" cy="41.6664" fill="#FFFFFF" rx="4.7623" ry="4.7623" style="stroke:#000000;stroke-width:0.5291;"/><path d="M289.7886,44.6511 Q289.4827,44.8082 289.1437,44.8826 Q288.8047,44.9653 288.4326,44.9653 Q287.1098,44.9653 286.407,44.0972 Q285.7125,43.2208 285.7125,41.5672 Q285.7125,39.9136 286.407,39.0372 Q287.1098,38.1608 288.4326,38.1608 Q288.8047,38.1608 289.1437,38.2435 Q289.4909,38.3261 289.7886,38.4832 L289.7886,39.9219 Q289.4579,39.6159 289.1437,39.4754 Q288.8295,39.3266 288.4988,39.3266 Q287.7877,39.3266 287.424,39.897 Q287.0602,40.4593 287.0602,41.5672 Q287.0602,42.6751 287.424,43.2456 Q287.7877,43.8078 288.4988,43.8078 Q288.8295,43.8078 289.1437,43.6672 Q289.4579,43.5184 289.7886,43.2125 L289.7886,44.6511 Z " fill="#000000"/><text fill="#000000" font-family="Verdana" font-size="6.3498" font-style="italic" lengthAdjust="spacing" textLength="20.0322" x="329.3456" y="39.5529">&#171;test&#187;</text><text fill="#000000" font-family="Verdana" font-size="7.4081" lengthAdjust="spacing" textLength="83.7679" x="297.4778" y="47.9268">test_service_discovery</text><line style="stroke:#1565C0;stroke-width:0.5291;" x1="256.3359" x2="407.836" y1="52.3197" y2="52.3197"/><text fill="#000000" font-family="Verdana" font-size="7.4081" lengthAdjust="spacing" textLength="119.7015" x="258.9817" y="61.3126">TC8-SD-001..008, 011, 013, 014</text><text fill="#000000" font-family="Verdana" font-size="7.4081" lengthAdjust="spacing" textLength="146.2086" x="258.9817" y="69.9361">SOMEIPSRV_SD_MESSAGE_01-06/14-19</text><text fill="#000000" font-family="Verdana" font-size="7.4081" lengthAdjust="spacing" textLength="77.7958" x="258.9817" y="78.5596">SD_BEHAVIOR_03/04</text><text fill="#000000" font-family="Verdana" font-size="7.4081" lengthAdjust="spacing" textLength="131.566" x="258.9817" y="87.1831">ETS_088/091/092/098/099/100/101</text><text fill="#000000" font-family="Verdana" font-size="7.4081" lengthAdjust="spacing" textLength="114.9303" x="258.9817" y="95.8066">ETS_107/120/122/128/130/155</text><line style="stroke:#1565C0;stroke-width:0.5291;" x1="256.3359" x2="407.836" y1="99.6703" y2="99.6703"/></g><!--class test_sd_phases_timing--><g id="elem_test_sd_phases_timing"><rect codeLine="20" fill="#E3F2FD" height="38.3964" id="test_sd_phases_timing" rx="1.3229" ry="1.3229" style="stroke:#1565C0;stroke-width:0.5291;" width="98.566" x="63.7255" y="144.7803"/><ellipse cx="70.6044" cy="155.4335" fill="#FFFFFF" rx="4.7623" ry="4.7623" style="stroke:#000000;stroke-width:0.5291;"/><path d="M72.1753,158.4183 Q71.8694,158.5754 71.5304,158.6498 Q71.1914,158.7325 70.8194,158.7325 Q69.4965,158.7325 68.7937,157.8643 Q68.0992,156.9879 68.0992,155.3343 Q68.0992,153.6807 68.7937,152.8043 Q69.4965,151.9279 70.8194,151.9279 Q71.1914,151.9279 71.5304,152.0106 Q71.8777,152.0933 72.1753,152.2504 L72.1753,153.689 Q71.8446,153.3831 71.5304,153.2425 Q71.2163,153.0937 70.8855,153.0937 Q70.1745,153.0937 69.8107,153.6642 Q69.4469,154.2264 69.4469,155.3343 Q69.4469,156.4422 69.8107,157.0127 Q70.1745,157.5749 70.8855,157.5749 Q71.2163,157.5749 71.5304,157.4344 Q71.8446,157.2856 72.1753,156.9796 L72.1753,158.4183 Z " fill="#000000"/><text fill="#000000" font-family="Verdana" font-size="6.3498" font-style="italic" lengthAdjust="spacing" textLength="20.0322" x="108.813" y="153.32">&#171;test&#187;</text><text fill="#000000" font-family="Verdana" font-size="7.4081" lengthAdjust="spacing" textLength="83.7498" x="76.9542" y="161.6939">test_sd_phases_timing</text><line style="stroke:#1565C0;stroke-width:0.5291;" x1="64.2546" x2="161.7623" y1="166.0868" y2="166.0868"/><text fill="#000000" font-family="Verdana" font-size="7.4081" lengthAdjust="spacing" textLength="65.6492" x="66.9004" y="175.0798">TC8-SD-009 / 010</text><line style="stroke:#1565C0;stroke-width:0.5291;" x1="64.2546" x2="161.7623" y1="178.9435" y2="178.9435"/></g><!--class test_sd_reboot--><g id="elem_test_sd_reboot"><rect codeLine="23" fill="#E3F2FD" height="38.3964" id="test_sd_reboot" rx="1.3229" ry="1.3229" style="stroke:#1565C0;stroke-width:0.5291;" width="69.2881" x="180.9321" y="144.7803"/><ellipse cx="187.811" cy="155.4335" fill="#FFFFFF" rx="4.7623" ry="4.7623" style="stroke:#000000;stroke-width:0.5291;"/><path d="M189.382,158.4183 Q189.076,158.5754 188.7371,158.6498 Q188.3981,158.7325 188.026,158.7325 Q186.7031,158.7325 186.0004,157.8643 Q185.3058,156.9879 185.3058,155.3343 Q185.3058,153.6807 186.0004,152.8043 Q186.7031,151.9279 188.026,151.9279 Q188.3981,151.9279 188.7371,152.0106 Q189.0843,152.0933 189.382,152.2504 L189.382,153.689 Q189.0512,153.3831 188.7371,153.2425 Q188.4229,153.0937 188.0922,153.0937 Q187.3811,153.0937 187.0173,153.6642 Q186.6535,154.2264 186.6535,155.3343 Q186.6535,156.4422 187.0173,157.0127 Q187.3811,157.5749 188.0922,157.5749 Q188.4229,157.5749 188.7371,157.4344 Q189.0512,157.2856 189.382,156.9796 L189.382,158.4183 Z " fill="#000000"/><text fill="#000000" font-family="Verdana" font-size="6.3498" font-style="italic" lengthAdjust="spacing" textLength="20.0322" x="211.3807" y="153.32">&#171;test&#187;</text><text fill="#000000" font-family="Verdana" font-size="7.4081" lengthAdjust="spacing" textLength="54.4719" x="194.1608" y="161.6939">test_sd_reboot</text><line style="stroke:#1565C0;stroke-width:0.5291;" x1="181.4612" x2="249.691" y1="166.0868" y2="166.0868"/><text fill="#000000" font-family="Verdana" font-size="7.4081" lengthAdjust="spacing" textLength="44.3039" x="184.107" y="175.0798">TC8-SD-012</text><line style="stroke:#1565C0;stroke-width:0.5291;" x1="181.4612" x2="249.691" y1="178.9435" y2="178.9435"/></g><!--class test_sd_format_compliance--><g id="elem_test_sd_format_compliance"><rect codeLine="26" fill="#E3F2FD" height="55.6434" id="test_sd_format_compliance" rx="1.3229" ry="1.3229" style="stroke:#1565C0;stroke-width:0.5291;" width="158.5376" x="306.6051" y="136.3139"/><ellipse cx="333.2628" cy="146.9671" fill="#FFFFFF" rx="4.7623" ry="4.7623" style="stroke:#000000;stroke-width:0.5291;"/><path d="M334.8337,149.9519 Q334.5278,150.109 334.1888,150.1834 Q333.8499,150.2661 333.4778,150.2661 Q332.1549,150.2661 331.4521,149.3979 Q330.7576,148.5215 330.7576,146.8679 Q330.7576,145.2143 331.4521,144.3379 Q332.1549,143.4615 333.4778,143.4615 Q333.8499,143.4615 334.1888,143.5442 Q334.5361,143.6269 334.8337,143.784 L334.8337,145.2226 Q334.503,144.9167 334.1888,144.7761 Q333.8747,144.6273 333.5439,144.6273 Q332.8329,144.6273 332.4691,145.1978 Q332.1053,145.76 332.1053,146.8679 Q332.1053,147.9758 332.4691,148.5463 Q332.8329,149.1085 333.5439,149.1085 Q333.8747,149.1085 334.1888,148.968 Q334.503,148.8192 334.8337,148.5133 L334.8337,149.9519 Z " fill="#000000"/><text fill="#000000" font-family="Verdana" font-size="6.3498" font-style="italic" lengthAdjust="spacing" textLength="20.0322" x="383.1336" y="144.8536">&#171;test&#187;</text><text fill="#000000" font-family="Verdana" font-size="7.4081" lengthAdjust="spacing" textLength="101.2536" x="342.5229" y="153.2275">test_sd_format_compliance</text><line style="stroke:#1565C0;stroke-width:0.5291;" x1="307.1343" x2="464.6136" y1="157.6204" y2="157.6204"/><text fill="#000000" font-family="Verdana" font-size="7.4081" lengthAdjust="spacing" textLength="152.1878" x="309.78" y="166.6134">FORMAT_01/02/04-06/09-13/15/16/18-28</text><text fill="#000000" font-family="Verdana" font-size="7.4081" lengthAdjust="spacing" textLength="117.9254" x="309.78" y="175.2369">OPTIONS_01/02/03/05/06/08-14</text><line style="stroke:#1565C0;stroke-width:0.5291;" x1="307.1343" x2="464.6136" y1="179.1006" y2="179.1006"/><text fill="#000000" font-family="Verdana" font-size="7.4081" lengthAdjust="spacing" textLength="79.1487" x="309.78" y="188.0935">TC8-SDF (SD Format)</text></g><!--class test_sd_robustness--><g id="elem_test_sd_robustness"><rect codeLine="31" fill="#E3F2FD" height="55.6434" id="test_sd_robustness" rx="1.3229" ry="1.3229" style="stroke:#1565C0;stroke-width:0.5291;" width="124.655" x="483.8702" y="136.3139"/><ellipse cx="508.7591" cy="146.9671" fill="#FFFFFF" rx="4.7623" ry="4.7623" style="stroke:#000000;stroke-width:0.5291;"/><path d="M510.33,149.9519 Q510.0241,150.109 509.6851,150.1834 Q509.3461,150.2661 508.9741,150.2661 Q507.6512,150.2661 506.9484,149.3979 Q506.2539,148.5215 506.2539,146.8679 Q506.2539,145.2143 506.9484,144.3379 Q507.6512,143.4615 508.9741,143.4615 Q509.3461,143.4615 509.6851,143.5442 Q510.0324,143.6269 510.33,143.784 L510.33,145.2226 Q509.9993,144.9167 509.6851,144.7761 Q509.3709,144.6273 509.0402,144.6273 Q508.3292,144.6273 507.9654,145.1978 Q507.6016,145.76 507.6016,146.8679 Q507.6016,147.9758 507.9654,148.5463 Q508.3292,149.1085 509.0402,149.1085 Q509.3709,149.1085 509.6851,148.968 Q509.9993,148.8192 510.33,148.5133 L510.33,149.9519 Z " fill="#000000"/><text fill="#000000" font-family="Verdana" font-size="6.3498" font-style="italic" lengthAdjust="spacing" textLength="20.0322" x="543.4574" y="144.8536">&#171;test&#187;</text><text fill="#000000" font-family="Verdana" font-size="7.4081" lengthAdjust="spacing" textLength="70.9086" x="518.0192" y="153.2275">test_sd_robustness</text><line style="stroke:#1565C0;stroke-width:0.5291;" x1="484.3993" x2="607.9961" y1="157.6204" y2="157.6204"/><text fill="#000000" font-family="Verdana" font-size="7.4081" lengthAdjust="spacing" textLength="71.8382" x="487.0451" y="166.6134">ETS SD Robustness</text><text fill="#000000" font-family="Verdana" font-size="7.4081" lengthAdjust="spacing" textLength="102.0349" x="487.0451" y="175.2369">Malformed entries, options,</text><text fill="#000000" font-family="Verdana" font-size="7.4081" lengthAdjust="spacing" textLength="118.3052" x="487.0451" y="183.8603">framing errors, subscribe edges</text><line style="stroke:#1565C0;stroke-width:0.5291;" x1="484.3993" x2="607.9961" y1="187.7241" y2="187.7241"/></g><!--class test_sd_client--><g id="elem_test_sd_client"><rect codeLine="36" fill="#E3F2FD" height="47.0199" id="test_sd_client" rx="1.3229" ry="1.3229" style="stroke:#1565C0;stroke-width:0.5291;" width="91.6731" x="627.5343" y="140.5471"/><ellipse cx="646.2542" cy="151.2003" fill="#FFFFFF" rx="4.7623" ry="4.7623" style="stroke:#000000;stroke-width:0.5291;"/><path d="M647.8251,154.1851 Q647.5192,154.3422 647.1802,154.4166 Q646.8413,154.4993 646.4692,154.4993 Q645.1463,154.4993 644.4435,153.6311 Q643.749,152.7547 643.749,151.1011 Q643.749,149.4475 644.4435,148.5711 Q645.1463,147.6947 646.4692,147.6947 Q646.8413,147.6947 647.1802,147.7774 Q647.5275,147.8601 647.8251,148.0172 L647.8251,149.4558 Q647.4944,149.1499 647.1802,149.0093 Q646.8661,148.8605 646.5353,148.8605 Q645.8243,148.8605 645.4605,149.431 Q645.0967,149.9932 645.0967,151.1011 Q645.0967,152.209 645.4605,152.7795 Q645.8243,153.3417 646.5353,153.3417 Q646.8661,153.3417 647.1802,153.2012 Q647.4944,153.0524 647.8251,152.7465 L647.8251,154.1851 Z " fill="#000000"/><text fill="#000000" font-family="Verdana" font-size="6.3498" font-style="italic" lengthAdjust="spacing" textLength="20.0322" x="670.491" y="149.0868">&#171;test&#187;</text><text fill="#000000" font-family="Verdana" font-size="7.4081" lengthAdjust="spacing" textLength="50.5436" x="655.2354" y="157.4607">test_sd_client</text><line style="stroke:#1565C0;stroke-width:0.5291;" x1="628.0634" x2="718.6782" y1="161.8536" y2="161.8536"/><text fill="#000000" font-family="Verdana" font-size="7.4081" lengthAdjust="spacing" textLength="85.3233" x="630.7092" y="170.8466">ETS SD Client Lifecycle</text><text fill="#000000" font-family="Verdana" font-size="7.4081" lengthAdjust="spacing" textLength="65.0234" x="630.7092" y="179.4701">ETS_081/082/084</text><line style="stroke:#1565C0;stroke-width:0.5291;" x1="628.0634" x2="718.6782" y1="183.3338" y2="183.3338"/></g><!--class sd_helpers--><g id="elem_sd_helpers"><rect codeLine="41" fill="#E8F5E9" height="55.6434" id="sd_helpers" rx="1.3229" ry="1.3229" style="stroke:#2E7D32;stroke-width:0.5291;" width="102.7599" x="254.2193" y="232.8837"/><ellipse cx="283.7437" cy="243.5369" fill="#FFFFFF" rx="4.7623" ry="4.7623" style="stroke:#000000;stroke-width:0.5291;"/><path d="M285.3146,246.5217 Q285.0087,246.6788 284.6697,246.7532 Q284.3307,246.8359 283.9586,246.8359 Q282.6358,246.8359 281.933,245.9677 Q281.2385,245.0913 281.2385,243.4377 Q281.2385,241.7841 281.933,240.9077 Q282.6358,240.0313 283.9586,240.0313 Q284.3307,240.0313 284.6697,240.114 Q285.0169,240.1967 285.3146,240.3538 L285.3146,241.7924 Q284.9839,241.4865 284.6697,241.3459 Q284.3555,241.1971 284.0248,241.1971 Q283.3137,241.1971 282.95,241.7676 Q282.5862,242.3298 282.5862,243.4377 Q282.5862,244.5456 282.95,245.1161 Q283.3137,245.6783 284.0248,245.6783 Q284.3555,245.6783 284.6697,245.5378 Q284.9839,245.389 285.3146,245.083 L285.3146,246.5217 Z " fill="#000000"/><text fill="#000000" font-family="Verdana" font-size="6.3498" font-style="italic" lengthAdjust="spacing" textLength="28.0811" x="298.8345" y="241.4234">&#171;helper&#187;</text><text fill="#000000" font-family="Verdana" font-size="7.4081" lengthAdjust="spacing" textLength="39.7425" x="293.0038" y="249.7973">sd_helpers</text><line style="stroke:#2E7D32;stroke-width:0.5291;" x1="254.7485" x2="356.4501" y1="254.1902" y2="254.1902"/><line style="stroke:#2E7D32;stroke-width:0.5291;" x1="254.7485" x2="356.4501" y1="258.4234" y2="258.4234"/><text fill="#000000" font-family="Verdana" font-size="7.4081" lengthAdjust="spacing" textLength="96.4101" x="257.3942" y="267.4164">+open_multicast_socket()</text><text fill="#000000" font-family="Verdana" font-size="7.4081" lengthAdjust="spacing" textLength="69.8741" x="257.3942" y="276.0398">+parse_sd_offers()</text><text fill="#000000" font-family="Verdana" font-size="7.4081" lengthAdjust="spacing" textLength="77.6873" x="257.3942" y="284.6633">+capture_sd_offers()</text></g><!--class sd_sender--><g id="elem_sd_sender"><rect codeLine="46" fill="#E8F5E9" height="72.8903" id="sd_sender" rx="1.3229" ry="1.3229" style="stroke:#2E7D32;stroke-width:0.5291;" width="122.047" x="485.7222" y="224.1527"/><ellipse cx="525.9192" cy="234.806" fill="#FFFFFF" rx="4.7623" ry="4.7623" style="stroke:#000000;stroke-width:0.5291;"/><path d="M527.4902,237.7907 Q527.1842,237.9478 526.8453,238.0222 Q526.5063,238.1049 526.1342,238.1049 Q524.8113,238.1049 524.1086,237.2367 Q523.414,236.3603 523.414,234.7068 Q523.414,233.0532 524.1086,232.1768 Q524.8113,231.3004 526.1342,231.3004 Q526.5063,231.3004 526.8453,231.383 Q527.1925,231.4657 527.4902,231.6228 L527.4902,233.0614 Q527.1594,232.7555 526.8453,232.615 Q526.5311,232.4661 526.2004,232.4661 Q525.4893,232.4661 525.1255,233.0366 Q524.7617,233.5988 524.7617,234.7068 Q524.7617,235.8147 525.1255,236.3851 Q525.4893,236.9474 526.2004,236.9474 Q526.5311,236.9474 526.8453,236.8068 Q527.1594,236.658 527.4902,236.3521 L527.4902,237.7907 Z " fill="#000000"/><text fill="#000000" font-family="Verdana" font-size="6.3498" font-style="italic" lengthAdjust="spacing" textLength="28.0811" x="539.981" y="232.6925">&#171;helper&#187;</text><text fill="#000000" font-family="Verdana" font-size="7.4081" lengthAdjust="spacing" textLength="37.6843" x="535.1794" y="241.0664">sd_sender</text><line style="stroke:#2E7D32;stroke-width:0.5291;" x1="486.2514" x2="607.2401" y1="245.4592" y2="245.4592"/><line style="stroke:#2E7D32;stroke-width:0.5291;" x1="486.2514" x2="607.2401" y1="249.6924" y2="249.6924"/><text fill="#000000" font-family="Verdana" font-size="7.4081" lengthAdjust="spacing" textLength="87.519" x="488.8971" y="258.6854">+open_sender_socket()</text><text fill="#000000" font-family="Verdana" font-size="7.4081" lengthAdjust="spacing" textLength="77.8103" x="488.8971" y="267.3089">+send_find_service()</text><text fill="#000000" font-family="Verdana" font-size="7.4081" lengthAdjust="spacing" textLength="115.5417" x="488.8971" y="275.9324">+send_subscribe_eventgroup()</text><text fill="#000000" font-family="Verdana" font-size="7.4081" lengthAdjust="spacing" textLength="112.684" x="488.8971" y="284.5558">+capture_unicast_sd_entries()</text><text fill="#000000" font-family="Verdana" font-size="7.4081" lengthAdjust="spacing" textLength="115.6972" x="488.8971" y="293.1793">+capture_some_ip_messages()</text></g><!--class sd_malformed--><g id="elem_sd_malformed"><rect codeLine="53" fill="#E8F5E9" height="64.2669" id="sd_malformed" rx="1.3229" ry="1.3229" style="stroke:#2E7D32;stroke-width:0.5291;" width="107.8638" x="626.7406" y="228.6505"/><ellipse cx="652.3167" cy="239.3037" fill="#FFFFFF" rx="4.7623" ry="4.7623" style="stroke:#000000;stroke-width:0.5291;"/><path d="M653.8876,242.2885 Q653.5817,242.4456 653.2427,242.52 Q652.9038,242.6027 652.5317,242.6027 Q651.2088,242.6027 650.5061,241.7345 Q649.8115,240.8581 649.8115,239.2045 Q649.8115,237.5509 650.5061,236.6745 Q651.2088,235.7981 652.5317,235.7981 Q652.9038,235.7981 653.2427,235.8808 Q653.59,235.9635 653.8876,236.1206 L653.8876,237.5592 Q653.5569,237.2533 653.2427,237.1127 Q652.9286,236.9639 652.5978,236.9639 Q651.8868,236.9639 651.523,237.5344 Q651.1592,238.0966 651.1592,239.2045 Q651.1592,240.3124 651.523,240.8829 Q651.8868,241.4451 652.5978,241.4451 Q652.9286,241.4451 653.2427,241.3046 Q653.5569,241.1558 653.8876,240.8498 L653.8876,242.2885 Z " fill="#000000"/><text fill="#000000" font-family="Verdana" font-size="6.3498" font-style="italic" lengthAdjust="spacing" textLength="28.0811" x="673.9077" y="237.1902">&#171;helper&#187;</text><text fill="#000000" font-family="Verdana" font-size="7.4081" lengthAdjust="spacing" textLength="52.7429" x="661.5769" y="245.5641">sd_malformed</text><line style="stroke:#2E7D32;stroke-width:0.5291;" x1="627.2697" x2="734.0752" y1="249.957" y2="249.957"/><line style="stroke:#2E7D32;stroke-width:0.5291;" x1="627.2697" x2="734.0752" y1="254.1902" y2="254.1902"/><text fill="#000000" font-family="Verdana" font-size="7.4081" lengthAdjust="spacing" textLength="97.6761" x="629.9155" y="263.1832">+build_malformed_entry()</text><text fill="#000000" font-family="Verdana" font-size="7.4081" lengthAdjust="spacing" textLength="101.514" x="629.9155" y="271.8066">+build_malformed_option()</text><text fill="#000000" font-family="Verdana" font-size="7.4081" lengthAdjust="spacing" textLength="82.2921" x="629.9155" y="280.4301">+build_truncated_sd()</text><text fill="#000000" font-family="Verdana" font-size="7.4081" lengthAdjust="spacing" textLength="86.2493" x="629.9155" y="289.0536">+send_malformed_sd()</text></g><!--class someip_assertions--><g id="elem_someip_assertions"><rect codeLine="59" fill="#E8F5E9" height="55.6434" id="someip_assertions" rx="1.3229" ry="1.3229" style="stroke:#2E7D32;stroke-width:0.5291;" width="162.2019" x="49.1739" y="337.9198"/><ellipse cx="94.019" cy="348.5731" fill="#FFFFFF" rx="4.7623" ry="4.7623" style="stroke:#000000;stroke-width:0.5291;"/><path d="M95.5899,351.5578 Q95.284,351.7149 94.945,351.7894 Q94.6061,351.872 94.234,351.872 Q92.9111,351.872 92.2083,351.0039 Q91.5138,350.1275 91.5138,348.4739 Q91.5138,346.8203 92.2083,345.9439 Q92.9111,345.0675 94.234,345.0675 Q94.6061,345.0675 94.945,345.1502 Q95.2923,345.2329 95.5899,345.39 L95.5899,346.8286 Q95.2592,346.5227 94.945,346.3821 Q94.6309,346.2333 94.3001,346.2333 Q93.5891,346.2333 93.2253,346.8038 Q92.8615,347.366 92.8615,348.4739 Q92.8615,349.5818 93.2253,350.1523 Q93.5891,350.7145 94.3001,350.7145 Q94.6309,350.7145 94.945,350.574 Q95.2592,350.4251 95.5899,350.1192 L95.5899,351.5578 Z " fill="#000000"/><text fill="#000000" font-family="Verdana" font-size="6.3498" font-style="italic" lengthAdjust="spacing" textLength="28.0811" x="123.5101" y="346.4596">&#171;helper&#187;</text><text fill="#000000" font-family="Verdana" font-size="7.4081" lengthAdjust="spacing" textLength="68.5429" x="103.2791" y="354.8335">someip_assertions</text><line style="stroke:#2E7D32;stroke-width:0.5291;" x1="49.703" x2="210.8466" y1="359.2264" y2="359.2264"/><line style="stroke:#2E7D32;stroke-width:0.5291;" x1="49.703" x2="210.8466" y1="363.4596" y2="363.4596"/><text fill="#000000" font-family="Verdana" font-size="7.4081" lengthAdjust="spacing" textLength="91.3677" x="52.3488" y="372.4525">+assert_sd_offer_entry()</text><text fill="#000000" font-family="Verdana" font-size="7.4081" lengthAdjust="spacing" textLength="155.8521" x="52.3488" y="381.076">+assert_offer_has_ipv4_endpoint_option()</text><text fill="#000000" font-family="Verdana" font-size="7.4081" lengthAdjust="spacing" textLength="151.6742" x="52.3488" y="389.6995">+assert_offer_has_tcp_endpoint_option()</text></g><!--class timing--><g id="elem_timing"><rect codeLine="64" fill="#E8F5E9" height="47.0199" id="timing" rx="1.3229" ry="1.3229" style="stroke:#2E7D32;stroke-width:0.5291;" width="150.9812" x="230.143" y="342.153"/><ellipse cx="290.6671" cy="352.8063" fill="#FFFFFF" rx="4.7623" ry="4.7623" style="stroke:#000000;stroke-width:0.5291;"/><path d="M292.238,355.791 Q291.9321,355.9481 291.5931,356.0225 Q291.2541,356.1052 290.882,356.1052 Q289.5592,356.1052 288.8564,355.2371 Q288.1619,354.3607 288.1619,352.7071 Q288.1619,351.0535 288.8564,350.1771 Q289.5592,349.3007 290.882,349.3007 Q291.2541,349.3007 291.5931,349.3834 Q291.9403,349.4661 292.238,349.6231 L292.238,351.0618 Q291.9073,350.7559 291.5931,350.6153 Q291.2789,350.4665 290.9482,350.4665 Q290.2371,350.4665 289.8733,351.037 Q289.5095,351.5992 289.5095,352.7071 Q289.5095,353.815 289.8733,354.3855 Q290.2371,354.9477 290.9482,354.9477 Q291.2789,354.9477 291.5931,354.8072 Q291.9073,354.6583 292.238,354.3524 L292.238,355.791 Z " fill="#000000"/><text fill="#000000" font-family="Verdana" font-size="6.3498" font-style="italic" lengthAdjust="spacing" textLength="28.0811" x="298.8689" y="350.6928">&#171;helper&#187;</text><text fill="#000000" font-family="Verdana" font-size="7.4081" lengthAdjust="spacing" textLength="23.635" x="301.0919" y="359.0667">timing</text><line style="stroke:#2E7D32;stroke-width:0.5291;" x1="230.6722" x2="380.5951" y1="363.4596" y2="363.4596"/><line style="stroke:#2E7D32;stroke-width:0.5291;" x1="230.6722" x2="380.5951" y1="367.6928" y2="367.6928"/><text fill="#000000" font-family="Verdana" font-size="7.4081" lengthAdjust="spacing" textLength="122.4542" x="233.3179" y="376.6857">+collect_sd_offers_from_socket()</text><text fill="#000000" font-family="Verdana" font-size="7.4081" lengthAdjust="spacing" textLength="144.6314" x="233.3179" y="385.3092">+capture_sd_offers_with_timestamps()</text></g><!--link test_service_discovery to test_sd_phases_timing--><!--link test_sd_phases_timing to test_sd_reboot--><!--link test_sd_format_compliance to test_sd_robustness--><!--link test_sd_robustness to test_sd_client--><!--link test_service_discovery to test_sd_format_compliance--><!--link sd_helpers to sd_sender--><!--link sd_sender to sd_malformed--><!--link someip_assertions to timing--><!--link sd_helpers to someip_assertions--><!--link test_service_discovery to sd_helpers--><g id="link_test_service_discovery_sd_helpers"><path codeLine="83" d="M309.9599,104.0463 C304.8907,114.1266 300.2183,125.3393 297.6096,136.3139 C289.8893,168.7984 293.8408,204.2165 298.6243,229.5733 " fill="transparent" id="test_service_discovery-to-sd_helpers" style="stroke:#000000;stroke-width:0.5291;"/><polygon fill="#000000" points="299.2129,232.6932,300.41,227.621,298.7224,230.0933,296.2501,228.4057,299.2129,232.6932" style="stroke:#000000;stroke-width:0.5291;"/></g><!--link test_service_discovery to sd_sender--><g id="link_test_service_discovery_sd_sender"><path codeLine="84" d="M408.3817,69.9479 C511.8358,74.3134 688.2436,88.7222 728.3373,136.3139 C744.2488,155.1992 743.1535,172.1161 728.3373,191.8746 C697.6202,232.8413 665.3579,205.315 617.745,224.1527 C614.5384,225.4227 614.1874,225.5151 610.9226,226.9438 " fill="transparent" id="test_service_discovery-to-sd_sender" style="stroke:#000000;stroke-width:0.5291;"/><polygon fill="#000000" points="608.014,228.2166,613.2254,228.2464,610.4378,227.1559,611.5283,224.3683,608.014,228.2166" style="stroke:#000000;stroke-width:0.5291;"/></g><!--link test_service_discovery to someip_assertions--><g id="link_test_service_discovery_someip_assertions"><path codeLine="85" d="M255.648,76.303 C182.2285,85.9918 78.8539,104.8771 54.2008,136.3139 C5.8206,198.0233 66.9813,289.4372 104.3922,335.4097 " fill="transparent" id="test_service_discovery-to-someip_assertions" style="stroke:#000000;stroke-width:0.5291;"/><polygon fill="#000000" points="106.3961,337.8722,105.0319,332.8424,104.7261,335.8201,101.7485,335.5144,106.3961,337.8722" style="stroke:#000000;stroke-width:0.5291;"/></g><!--link test_service_discovery to timing--><g id="link_test_service_discovery_timing"><path codeLine="86" d="M408.2283,68.8314 C488.2939,71.7788 616.7926,82.6317 720.9292,119.9102 C795.7456,146.6905 796.8251,237.6248 744.2118,297.1753 C697.5619,349.9845 496.8812,361.971 384.2305,364.5533 " fill="transparent" id="test_service_discovery-to-timing" style="stroke:#000000;stroke-width:0.5291;"/><polygon fill="#000000" points="381.0564,364.626,385.866,366.6329,383.7015,364.5654,385.769,362.4008,381.0564,364.626" style="stroke:#000000;stroke-width:0.5291;"/></g><!--link test_sd_phases_timing to timing--><g id="link_test_sd_phases_timing_timing"><path codeLine="87" d="M131.0598,183.4928 C166.5022,220.3957 242.7017,299.7379 281.1761,339.7945 " fill="transparent" id="test_sd_phases_timing-to-timing" style="stroke:#000000;stroke-width:0.5291;"/><polygon fill="#000000" points="283.3754,342.0843,281.603,337.1834,281.5427,340.1761,278.55,340.1158,283.3754,342.0843" style="stroke:#000000;stroke-width:0.5291;"/></g><!--link test_sd_phases_timing to sd_helpers--><g id="link_test_sd_phases_timing_sd_helpers"><path codeLine="88" d="M150.9928,183.4928 C180.4823,198.1185 218.8057,217.1227 251.2373,233.2036 " fill="transparent" id="test_sd_phases_timing-to-sd_helpers" style="stroke:#000000;stroke-width:0.5291;"/><polygon fill="#000000" points="254.0817,234.614,250.7553,230.6021,251.7114,233.4387,248.8748,234.3947,254.0817,234.614" style="stroke:#000000;stroke-width:0.5291;"/></g><!--link test_sd_reboot to sd_helpers--><g id="link_test_sd_reboot_sd_helpers"><path codeLine="89" d="M233.3655,183.4928 C246.626,197.5735 262.7686,214.7084 277.6324,230.4929 " fill="transparent" id="test_sd_reboot-to-sd_helpers" style="stroke:#000000;stroke-width:0.5291;"/><polygon fill="#000000" points="279.809,232.8043,278.0851,227.8862,277.9952,230.8781,275.0032,230.7883,279.809,232.8043" style="stroke:#000000;stroke-width:0.5291;"/></g><!--link test_sd_format_compliance to sd_helpers--><g id="link_test_sd_format_compliance_sd_helpers"><path codeLine="90" d="M362.9331,191.991 C352.1596,204.7805 341.4149,217.5437 330.6467,230.3333 " fill="transparent" id="test_sd_format_compliance-to-sd_helpers" style="stroke:#000000;stroke-width:0.5291;"/><polygon fill="#000000" points="328.6019,232.762,333.2883,230.4821,330.3059,230.738,330.05,227.7557,328.6019,232.762" style="stroke:#000000;stroke-width:0.5291;"/></g><!--link test_sd_robustness to sd_malformed--><g id="link_test_sd_robustness_sd_malformed"><path codeLine="91" d="M584.8266,191.991 C600.8863,203.4047 617.0408,214.8843 633.6826,226.7108 " fill="transparent" id="test_sd_robustness-to-sd_malformed" style="stroke:#000000;stroke-width:0.5291;"/><polygon fill="#000000" points="636.2706,228.5499,633.6147,224.0659,634.1139,227.0173,631.1625,227.5165,636.2706,228.5499" style="stroke:#000000;stroke-width:0.5291;"/></g><!--link test_sd_robustness to sd_helpers--><g id="link_test_sd_robustness_sd_helpers"><path codeLine="92" d="M483.8385,189.4087 C444.4115,205.0504 397.0513,223.8395 359.9314,238.5604 " fill="transparent" id="test_sd_robustness-to-sd_helpers" style="stroke:#000000;stroke-width:0.5291;"/><polygon fill="#000000" points="356.9801,239.7309,362.1874,239.9428,359.4395,238.7555,360.6268,236.0077,356.9801,239.7309" style="stroke:#000000;stroke-width:0.5291;"/></g><!--link test_sd_client to sd_helpers--><g id="link_test_sd_client_sd_helpers"><path codeLine="93" d="M629.1059,187.6573 C625.4865,189.1918 621.8459,190.6205 618.2742,191.8746 C605.9291,196.203 445.5277,230.4627 360.0065,248.6072 " fill="transparent" id="test_sd_client-to-sd_helpers" style="stroke:#000000;stroke-width:0.5291;"/><polygon fill="#000000" points="356.9008,249.2661,361.9987,250.3482,359.4889,248.717,361.1201,246.2072,356.9008,249.2661" style="stroke:#000000;stroke-width:0.5291;"/></g><!--link test_sd_client to sd_sender--><g id="link_test_sd_client_sd_sender"><path codeLine="94" d="M642.6944,187.7419 C628.291,198.6212 613.3148,209.9311 597.2234,222.0857 " fill="transparent" id="test_sd_client-to-sd_sender" style="stroke:#000000;stroke-width:0.5291;"/><polygon fill="#000000" points="594.69,223.9992,599.7658,222.8178,596.8012,222.4046,597.2144,219.4399,594.69,223.9992" style="stroke:#000000;stroke-width:0.5291;"/></g><!--link timing to sd_helpers--><g id="link_timing_sd_helpers"><path codeLine="97" d="M305.5468,342.079 C305.5468,326.2521 305.5468,308.3563 305.5468,291.6881 " fill="transparent" id="timing-to-sd_helpers" style="stroke:#000000;stroke-width:0.5291;stroke-dasharray:7.0,7.0;"/><polygon fill="#000000" points="305.5468,288.5132,303.4302,293.2755,305.5468,291.1589,307.6634,293.2755,305.5468,288.5132" style="stroke:#000000;stroke-width:0.5291;"/><text fill="#000000" font-family="Verdana" font-size="6.8789" lengthAdjust="spacing" textLength="24.1771" x="306.076" y="319.9642">&#171;uses&#187;</text></g><!--SRC=[bLNTZfiu5BxdARpgnNRLOJ1aqfAgYZIT9DsHcaqrHBsfAiinJc8DO6IRoSwkAlLg7s2rJzWdwN5W206IRYz0oESxnzzt_lZ5R7dAKPvGaJcQqOIZbFw9GepHJiHcw-XxaULKqHInX6fzROmIgyBmMoQpIFp54Mv3qDyEGcyfkzyeMMJnZKoaUlF6S6t6O_HiEfW5iub5I1LprRBwmvV36zpdl-L9pjK-GZWRJaVj20TxC7qr6GJE5ySnme2UYAi7mJYQ2Cta0rUFwDlN_z0IRaHp6HU0cF2SPp7FcE3QSKeHbX7HfIk9QzUQgXMvl0dTQE9Yx5zUOXnU8EpxzZMmhoi0H8lvzFP3TFUHH1CodqRHzRifmRwBNth-bUjR4M1uE_tz-kFjuexWWOUjstGP4Ho67Xxvy0JmsE-HvsCCZryXVFpAymCu2G9uGiyVmFTm2CAR2cAIRwdccXYHYcnpGi08UK0PTtmLNqbf-ftye0DVIvLIGvXCyqJG39BUupb3pwC9cksXly7fR74tlrv2MZmCKgziSl38zGSWnlCXKQ4RX01RV5ZUBlw8dd2Ggg5deQ4BgUxmbgj2cup3qH43o1ja7DtLPZYRqyJovZ7Y6JGtrnT8vaR8J5-0TGrzRVF6bP8AJBfOQGOZm16FDz0kxPjP8Y1CxwqtfUczM7Fso19ULneKXI0fj3ggS12fx6WheEvj6-o5X6ObQP4OmQYzKx9xRfxRJBw0ATJSif3hDRYMXupcfb37nryErsZR-gh_bj9sT8Kz8ckHnK_3qJYkSqFu0oYryviVSoYoYdHCgcItECgK4v6J54f3Dxn5DQqhrMQxAaJIiE-3FvQXswQojasRKKN6g06RZXjg3Yxxuve7K0I6yCdLlaiwP4fJdUyccSfKdiDSWjQ7Am34kHIPEUBMWHgMzo3h_diQxsCkJ2O9PmSocgoLJ8ygskaFiXDcQ_S5T31Dyx88pgyeeO-oCA_thOxI_UhKI6J8x2HISgUT4plJLMApDP-s8eOT-zdjNqnE_xewvLik9kVquZdfU1ZzdcLnogkSwfC2OxdBkauTKiqaFaqtv8_QxA4LJ-1jVRNJcFusetfYdSFizc3gvdMw_TeHMHQWUUcne4u8AsJV1T_- -RTIWkBcJ_HSejnnOxlz3sGbzqV03iSVE9nlkvy1TTJK_yqpY9wEFHEkqQ47rA76vt7jQDKlwgSGLH6Wxh1zkCfeqb_tCZENbysmw3MifG8IDnv_1m00]--></g></svg>