<svg xmlns="http://www.w3.org/2000/svg" xmlns:xlink="http://www.w3.org/1999/xlink" contentStyleType="text/css" data-diagram-type="DESCRIPTION" height="258px" preserveAspectRatio="none" style="width:903px;height:258px;background:#FFFFFF;" version="1.1" viewBox="0 0 903 258" width="903px" zoomAndPan="magnify"><defs/><g><!--cluster Host--><g id="cluster_Host"><polygon fill="#FFFFFF" points="21,132,31,122,886,122,886,231,876,241,21,241,21,132" style="stroke:#000000;stroke-width:1;"/><line style="stroke:#000000;stroke-width:1;" x1="876" x2="886" y1="132" y2="122"/><line style="stroke:#000000;stroke-width:1;" x1="21" x2="876" y1="132" y2="132"/><line style="stroke:#000000;stroke-width:1;" x1="876" x2="876" y1="132" y2="241"/><text fill="#000000" font-family="Verdana" font-size="14" font-weight="bold" lengthAdjust="spacing" textLength="36.3604" x="431.3198" y="147.9951">Host</text></g><!--entity Svc--><g id="elem_Svc"><rect fill="#FFFFFF" height="62.5938" rx="2.5" ry="2.5" style="stroke:#000000;stroke-width:1;" width="180.834" x="37.5" y="162"/><rect fill="#FFFFFF" height="10" style="stroke:#000000;stroke-width:1;" width="15" x="198.334" y="167"/><rect fill="#FFFFFF" height="2" style="stroke:#000000;stroke-width:1;" width="4" x="196.334" y="169"/><rect fill="#FFFFFF" height="2" style="stroke:#000000;stroke-width:1;" width="4" x="196.334" y="173"/><text fill="#000000" font-family="Verdana" font-size="14" lengthAdjust="spacing" textLength="83.4258" x="52.5" y="194.9951">TC8 Service</text><text fill="#000000" font-family="Verdana" font-size="14" lengthAdjust="spacing" textLength="140.834" x="52.5" y="211.292">(mw::com Skeleton)</text></g><!--entity GW--><g id="elem_GW"><rect fill="#FFFFFF" height="46.2969" rx="2.5" ry="2.5" style="stroke:#000000;stroke-width:1;" width="108.7695" x="310.5" y="170.5"/><rect fill="#FFFFFF" height="10" style="stroke:#000000;stroke-width:1;" width="15" x="399.2695" y="175.5"/><rect fill="#FFFFFF" height="2" style="stroke:#000000;stroke-width:1;" width="4" x="397.2695" y="177.5"/><rect fill="#FFFFFF" height="2" style="stroke:#000000;stroke-width:1;" width="4" x="397.2695" y="181.5"/><text fill="#000000" font-family="Verdana" font-size="14" lengthAdjust="spacing" textLength="68.7695" x="325.5" y="203.4951">gatewayd</text></g><!--entity SD--><g id="elem_SD"><rect fill="#FFFFFF" height="46.2969" rx="2.5" ry="2.5" style="stroke:#000000;stroke-width:1;" width="99.7734" x="511" y="170.5"/><rect fill="#FFFFFF" height="10" style="stroke:#000000;stroke-width:1;" width="15" x="590.7734" y="175.5"/><rect fill="#FFFFFF" height="2" style="stroke:#000000;stroke-width:1;" width="4" x="588.7734" y="177.5"/><rect fill="#FFFFFF" height="2" style="stroke:#000000;stroke-width:1;" width="4" x="588.7734" y="181.5"/><text fill="#000000" font-family="Verdana" font-size="14" lengthAdjust="spacing" textLength="59.7734" x="526" y="203.4951">someipd</text></g><!--entity Cli--><g id="elem_Cli"><rect fill="#FFFFFF" height="62.5938" rx="2.5" ry="2.5" style="stroke:#000000;stroke-width:1;" width="159.1299" x="711.5" y="162"/><rect fill="#FFFFFF" height="10" style="stroke:#000000;stroke-width:1;" width="15" x="850.6299" y="167"/><rect fill="#FFFFFF" height="2" style="stroke:#000000;stroke-width:1;" width="4" x="848.6299" y="169"/><rect fill="#FFFFFF" height="2" style="stroke:#000000;stroke-width:1;" width="4" x="848.6299" y="173"/><text fill="#000000" font-family="Verdana" font-size="14" lengthAdjust="spacing" textLength="72.2148" x="726.5" y="194.9951">TC8 Client</text><text fill="#000000" font-family="Verdana" font-size="14" lengthAdjust="spacing" textLength="119.1299" x="726.5" y="211.292">(mw::com Proxy)</text></g><!--entity Orch--><g id="elem_Orch"><rect fill="#FFFFFF" height="62.5938" rx="2.5" ry="2.5" style="stroke:#000000;stroke-width:1;" width="126.4336" x="400" y="12"/><rect fill="#FFFFFF" height="10" style="stroke:#000000;stroke-width:1;" width="15" x="506.4336" y="17"/><rect fill="#FFFFFF" height="2" style="stroke:#000000;stroke-width:1;" width="4" x="504.4336" y="19"/><rect fill="#FFFFFF" height="2" style="stroke:#000000;stroke-width:1;" width="4" x="504.4336" y="23"/><text fill="#000000" font-family="Verdana" font-size="14" lengthAdjust="spacing" textLength="44.0576" x="415" y="44.9951">pytest</text><text fill="#000000" font-family="Verdana" font-size="14" lengthAdjust="spacing" textLength="86.4336" x="415" y="61.292">orchestrator</text></g><!--link Svc to GW--><g id="link_Svc_GW"><path d="M218.61,193.5 C249.58,193.5 277.25,193.5 304.48,193.5 " fill="transparent" id="Svc-to-GW" style="stroke:#000000;stroke-width:1;"/><polygon fill="#000000" points="310.48,193.5,301.48,189.5,305.48,193.5,301.48,197.5,310.48,193.5" style="stroke:#000000;stroke-width:1;"/><text fill="#000000" font-family="Verdana" font-size="13" lengthAdjust="spacing" textLength="55.2881" x="237" y="186.5669">LoLa IPC</text></g><!--link GW to SD--><g id="link_GW_SD"><path d="M419.6,193.5 C448.14,193.5 476.84,193.5 504.72,193.5 " fill="transparent" id="GW-to-SD" style="stroke:#000000;stroke-width:1;"/><polygon fill="#000000" points="510.72,193.5,501.72,189.5,505.72,193.5,501.72,197.5,510.72,193.5" style="stroke:#000000;stroke-width:1;"/><text fill="#000000" font-family="Verdana" font-size="13" lengthAdjust="spacing" textLength="55.2881" x="437.75" y="186.5669">LoLa IPC</text></g><!--link SD to Cli--><g id="link_SD_Cli"><path d="M611.19,193.5 C640.4,193.5 671.9,193.5 705.08,193.5 " fill="transparent" id="SD-to-Cli" style="stroke:#000000;stroke-width:1;"/><polygon fill="#000000" points="711.08,193.5,702.08,189.5,706.08,193.5,702.08,197.5,711.08,193.5" style="stroke:#000000;stroke-width:1;"/><text fill="#000000" font-family="Verdana" font-size="13" lengthAdjust="spacing" textLength="53.9678" x="634.6995" y="171.5669">SOME/IP</text><text fill="#000000" font-family="Verdana" font-size="13" lengthAdjust="spacing" textLength="64.8667" x="629.25" y="186.6997">UDP / TCP</text></g><!--link Orch to Svc--><g id="link_Orch_Svc"><path d="M399.67,69.41 C367.54,82.3 328,98.54 293,114 C258.76,129.13 226.4316,144.378 195.7016,159.238 " fill="transparent" id="Orch-to-Svc" style="stroke:#000000;stroke-width:1;stroke-dasharray:7.0,7.0;"/><polygon fill="#000000" points="190.3,161.85,200.1438,161.533,194.8013,159.6733,196.661,154.3309,190.3,161.85" style="stroke:#000000;stroke-width:1;"/></g><!--link Orch to GW--><g id="link_Orch_GW"><path d="M442.69,75.17 C423.97,103.44 399.9227,139.7574 383.1627,165.0674 " fill="transparent" id="Orch-to-GW" style="stroke:#000000;stroke-width:1;stroke-dasharray:7.0,7.0;"/><polygon fill="#000000" points="379.85,170.07,388.1541,164.7745,382.6106,165.9012,381.4839,160.3576,379.85,170.07" style="stroke:#000000;stroke-width:1;"/></g><!--link Orch to SD--><g id="link_Orch_SD"><path d="M483.31,75.17 C502.03,103.44 526.0773,139.7574 542.8373,165.0674 " fill="transparent" id="Orch-to-SD" style="stroke:#000000;stroke-width:1;stroke-dasharray:7.0,7.0;"/><polygon fill="#000000" points="546.15,170.07,544.5161,160.3576,543.3894,165.9012,537.8459,164.7745,546.15,170.07" style="stroke:#000000;stroke-width:1;"/></g><!--link Orch to Cli--><g id="link_Orch_Cli"><path d="M526.02,69.93 C557.18,82.75 595.25,98.77 629,114 C662.62,129.17 694.2768,144.3803 724.4468,159.2303 " fill="transparent" id="Orch-to-Cli" style="stroke:#000000;stroke-width:1;stroke-dasharray:7.0,7.0;"/><polygon fill="#000000" points="729.83,161.88,723.5216,154.3167,725.344,159.6719,719.9887,161.4943,729.83,161.88" style="stroke:#000000;stroke-width:1;"/></g><!--SRC=[LOyn2y8m48Nt_8hJIGTrbGukhQYW68ZYe0wXFTfWcojfi1RnltkjA7O9UUzxlBiR-0mBX3BNnWfXAK4OhgdoGtWAWFCXd8D2TpSnNkoeg8CWfWBK3NFqPCTNq1MeUzn6K-snratIUQjJQrLKe2a_Zeg-VM5kqFg_EkdeqNowc0dESILCd4apFrbm5mImfQs6ZGmPilun5VKPwn_ZBePglrlEDl9YZv646Hn2ALv2dCl6OyLBa8ip_ZZjoNKRxDaGxGFJX6exNNJtzGm-hX-8-fe7lm40]--></g></svg>