<svg xmlns="http://www.w3.org/2000/svg" xmlns:xlink="http://www.w3.org/1999/xlink" contentStyleType="text/css" data-diagram-type="CLASS" height="805.4096px" preserveAspectRatio="none" style="width:800px;height:805px;background:#FFFFFF;" version="1.1" viewBox="0 0 800 805" width="800.1356px" zoomAndPan="magnify"><title>Message / Event / Field / TCP &#8212; Test Module Dependencies</title><defs/><g><text fill="#000000" font-family="Verdana" font-size="16.5753" font-weight="bold" lengthAdjust="spacing" textLength="548.944" x="122.5143" y="26.6869">Message / Event / Field / TCP &#8212; Test Module Dependencies</text><!--class test_someip_message_format--><g id="elem_test_someip_message_format"><rect codeLine="13" fill="#E3F2FD" height="128.341" id="test_someip_message_format" rx="1.8836" ry="1.8836" style="stroke:#1565C0;stroke-width:0.7534;" width="206.1143" x="157.0888" y="44.1577"/><ellipse cx="179.4019" cy="59.3262" fill="#FFFFFF" rx="6.7808" ry="6.7808" style="stroke:#000000;stroke-width:0.7534;"/><path d="M181.6387,63.576 Q181.2031,63.7997 180.7204,63.9056 Q180.2378,64.0233 179.708,64.0233 Q177.8245,64.0233 176.8238,62.7872 Q175.835,61.5394 175.835,59.1849 Q175.835,56.8305 176.8238,55.5826 Q177.8245,54.3348 179.708,54.3348 Q180.2378,54.3348 180.7204,54.4525 Q181.2149,54.5702 181.6387,54.7939 L181.6387,56.8423 Q181.1678,56.4067 180.7204,56.2066 Q180.2731,55.9947 179.8022,55.9947 Q178.7898,55.9947 178.2718,56.8069 Q177.7538,57.6075 177.7538,59.1849 Q177.7538,60.7624 178.2718,61.5747 Q178.7898,62.3752 179.8022,62.3752 Q180.2731,62.3752 180.7204,62.1751 Q181.1678,61.9632 181.6387,61.5276 L181.6387,63.576 Z " fill="#000000"/><text fill="#000000" font-family="Verdana" font-size="9.0411" font-style="italic" lengthAdjust="spacing" textLength="28.5227" x="255.5632" y="56.3169">&#171;test&#187;</text><text fill="#000000" font-family="Verdana" font-size="10.5479" lengthAdjust="spacing" textLength="157.1991" x="191.225" y="68.24">test_someip_message_format</text><line style="stroke:#1565C0;stroke-width:0.7534;" x1="157.8422" x2="362.4496" y1="74.4947" y2="74.4947"/><text fill="#000000" font-family="Verdana" font-size="10.5479" lengthAdjust="spacing" textLength="99.0722" x="161.6093" y="87.2993">TC8-MSG-001..008</text><text fill="#000000" font-family="Verdana" font-size="10.5479" lengthAdjust="spacing" textLength="123.4746" x="161.6093" y="99.5777">SOMEIPSRV_RPC_01/02</text><text fill="#000000" font-family="Verdana" font-size="10.5479" lengthAdjust="spacing" textLength="132.5495" x="161.6093" y="111.8561">SOMEIPSRV_OPTIONS_15</text><text fill="#000000" font-family="Verdana" font-size="10.5479" lengthAdjust="spacing" textLength="134.2955" x="161.6093" y="124.1346">SOMEIPSRV_BASIC_01-03</text><text fill="#000000" font-family="Verdana" font-size="10.5479" lengthAdjust="spacing" textLength="197.0732" x="161.6093" y="136.413">SOMEIPSRV_ONWIRE_01/02/04/06/11</text><text fill="#000000" font-family="Verdana" font-size="10.5479" lengthAdjust="spacing" textLength="157.6781" x="161.6093" y="148.6915">SOMEIPSRV_RPC_05-10/18/20</text><text fill="#000000" font-family="Verdana" font-size="10.5479" lengthAdjust="spacing" textLength="139.9557" x="161.6093" y="160.9699">ETS_004/054/059/061/075</text><line style="stroke:#1565C0;stroke-width:0.7534;" x1="157.8422" x2="362.4496" y1="166.4712" y2="166.4712"/></g><!--class test_event_notification--><g id="elem_test_event_notification"><rect codeLine="22" fill="#E3F2FD" height="66.9487" id="test_event_notification" rx="1.8836" ry="1.8836" style="stroke:#1565C0;stroke-width:0.7534;" width="147.2921" x="409.8623" y="74.6713"/><ellipse cx="422.3718" cy="89.8399" fill="#FFFFFF" rx="6.7808" ry="6.7808" style="stroke:#000000;stroke-width:0.7534;"/><path d="M424.6085,94.0896 Q424.1729,94.3133 423.6903,94.4193 Q423.2076,94.537 422.6779,94.537 Q420.7943,94.537 419.7937,93.3009 Q418.8048,92.053 418.8048,89.6986 Q418.8048,87.3441 419.7937,86.0963 Q420.7943,84.8484 422.6779,84.8484 Q423.2076,84.8484 423.6903,84.9661 Q424.1847,85.0839 424.6085,85.3075 L424.6085,87.3559 Q424.1376,86.9203 423.6903,86.7202 Q423.2429,86.5083 422.772,86.5083 Q421.7596,86.5083 421.2417,87.3206 Q420.7237,88.1211 420.7237,89.6986 Q420.7237,91.2761 421.2417,92.0883 Q421.7596,92.8889 422.772,92.8889 Q423.2429,92.8889 423.6903,92.6887 Q424.1376,92.4768 424.6085,92.0413 L424.6085,94.0896 Z " fill="#000000"/><text fill="#000000" font-family="Verdana" font-size="9.0411" font-style="italic" lengthAdjust="spacing" textLength="28.5227" x="477.8363" y="86.8306">&#171;test&#187;</text><text fill="#000000" font-family="Verdana" font-size="10.5479" lengthAdjust="spacing" textLength="120.1629" x="432.0162" y="98.7536">test_event_notification</text><line style="stroke:#1565C0;stroke-width:0.7534;" x1="410.6157" x2="556.4009" y1="105.0084" y2="105.0084"/><text fill="#000000" font-family="Verdana" font-size="10.5479" lengthAdjust="spacing" textLength="95.4258" x="414.3829" y="117.8129">TC8-EVT-001..006</text><line style="stroke:#1565C0;stroke-width:0.7534;" x1="410.6157" x2="556.4009" y1="123.3142" y2="123.3142"/><text fill="#000000" font-family="Verdana" font-size="10.5479" lengthAdjust="spacing" textLength="138.251" x="414.3829" y="136.1187">SOMEIPSRV_RPC_17 (TCP)</text></g><!--class test_field_conformance--><g id="elem_test_field_conformance"><rect codeLine="26" fill="#E3F2FD" height="66.9487" id="test_field_conformance" rx="1.8836" ry="1.8836" style="stroke:#1565C0;stroke-width:0.7534;" width="147.2921" x="594.451" y="74.6713"/><ellipse cx="605.811" cy="89.8399" fill="#FFFFFF" rx="6.7808" ry="6.7808" style="stroke:#000000;stroke-width:0.7534;"/><path d="M608.0477,94.0896 Q607.6121,94.3133 607.1294,94.4193 Q606.6468,94.537 606.117,94.537 Q604.2335,94.537 603.2328,93.3009 Q602.244,92.053 602.244,89.6986 Q602.244,87.3441 603.2328,86.0963 Q604.2335,84.8484 606.117,84.8484 Q606.6468,84.8484 607.1294,84.9661 Q607.6239,85.0839 608.0477,85.3075 L608.0477,87.3559 Q607.5768,86.9203 607.1294,86.7202 Q606.6821,86.5083 606.2112,86.5083 Q605.1988,86.5083 604.6808,87.3206 Q604.1628,88.1211 604.1628,89.6986 Q604.1628,91.2761 604.6808,92.0883 Q605.1988,92.8889 606.2112,92.8889 Q606.6821,92.8889 607.1294,92.6887 Q607.5768,92.4768 608.0477,92.0413 L608.0477,94.0896 Z " fill="#000000"/><text fill="#000000" font-family="Verdana" font-size="9.0411" font-style="italic" lengthAdjust="spacing" textLength="28.5227" x="662.2973" y="86.8306">&#171;test&#187;</text><text fill="#000000" font-family="Verdana" font-size="10.5479" lengthAdjust="spacing" textLength="122.7175" x="615.1999" y="98.7536">test_field_conformance</text><line style="stroke:#1565C0;stroke-width:0.7534;" x1="595.2045" x2="740.9897" y1="105.0084" y2="105.0084"/><text fill="#000000" font-family="Verdana" font-size="10.5479" lengthAdjust="spacing" textLength="95.1683" x="598.9716" y="117.8129">TC8-FLD-001..004</text><line style="stroke:#1565C0;stroke-width:0.7534;" x1="595.2045" x2="740.9897" y1="123.3142" y2="123.3142"/><text fill="#000000" font-family="Verdana" font-size="10.5479" lengthAdjust="spacing" textLength="138.251" x="598.9716" y="136.1187">SOMEIPSRV_RPC_17 (TCP)</text></g><!--class message_builder--><g id="elem_message_builder"><rect codeLine="31" fill="#E8F5E9" height="103.7841" id="message_builder" rx="1.8836" ry="1.8836" style="stroke:#2E7D32;stroke-width:0.7534;" width="228.1578" x="9.0411" y="696.6223"/><ellipse cx="75.5741" cy="711.7908" fill="#FFFFFF" rx="6.7808" ry="6.7808" style="stroke:#000000;stroke-width:0.7534;"/><path d="M77.8108,716.0406 Q77.3753,716.2643 76.8926,716.3702 Q76.4099,716.488 75.8802,716.488 Q73.9966,716.488 72.996,715.2519 Q72.0071,714.004 72.0071,711.6496 Q72.0071,709.2951 72.996,708.0473 Q73.9966,706.7994 75.8802,706.7994 Q76.4099,706.7994 76.8926,706.9171 Q77.387,707.0349 77.8108,707.2585 L77.8108,709.3069 Q77.3399,708.8713 76.8926,708.6712 Q76.4452,708.4593 75.9744,708.4593 Q74.9619,708.4593 74.444,709.2716 Q73.926,710.0721 73.926,711.6496 Q73.926,713.2271 74.444,714.0393 Q74.9619,714.8399 75.9744,714.8399 Q76.4452,714.8399 76.8926,714.6397 Q77.3399,714.4278 77.8108,713.9922 L77.8108,716.0406 Z " fill="#000000"/><text fill="#000000" font-family="Verdana" font-size="9.0411" font-style="italic" lengthAdjust="spacing" textLength="39.9829" x="113.4881" y="708.7816">&#171;helper&#187;</text><text fill="#000000" font-family="Verdana" font-size="10.5479" lengthAdjust="spacing" textLength="89.4411" x="88.759" y="720.7046">message_builder</text><line style="stroke:#2E7D32;stroke-width:0.7534;" x1="9.7945" x2="236.4454" y1="726.9594" y2="726.9594"/><line style="stroke:#2E7D32;stroke-width:0.7534;" x1="9.7945" x2="236.4454" y1="732.9868" y2="732.9868"/><text fill="#000000" font-family="Verdana" font-size="10.5479" lengthAdjust="spacing" textLength="88.6067" x="13.5616" y="745.7913">+build_request()</text><text fill="#000000" font-family="Verdana" font-size="10.5479" lengthAdjust="spacing" textLength="144.9619" x="13.5616" y="758.0697">+build_request_no_return()</text><text fill="#000000" font-family="Verdana" font-size="10.5479" lengthAdjust="spacing" textLength="152.3836" x="13.5616" y="770.3482">+build_truncated_message()</text><text fill="#000000" font-family="Verdana" font-size="10.5479" lengthAdjust="spacing" textLength="219.1167" x="13.5616" y="782.6266">+build_wrong_protocol_version_request()</text><text fill="#000000" font-family="Verdana" font-size="10.5479" lengthAdjust="spacing" textLength="151.6265" x="13.5616" y="794.9051">+build_oversized_message()</text></g><!--class someip_assertions--><g id="elem_someip_assertions"><rect codeLine="38" fill="#E8F5E9" height="103.7841" id="someip_assertions" rx="1.8836" ry="1.8836" style="stroke:#2E7D32;stroke-width:0.7534;" width="225.0006" x="263.6982" y="696.6223"/><ellipse cx="324.5761" cy="711.7908" fill="#FFFFFF" rx="6.7808" ry="6.7808" style="stroke:#000000;stroke-width:0.7534;"/><path d="M326.8128,716.0406 Q326.3773,716.2643 325.8946,716.3702 Q325.4119,716.488 324.8822,716.488 Q322.9986,716.488 321.998,715.2519 Q321.0091,714.004 321.0091,711.6496 Q321.0091,709.2951 321.998,708.0473 Q322.9986,706.7994 324.8822,706.7994 Q325.4119,706.7994 325.8946,706.9171 Q326.389,707.0349 326.8128,707.2585 L326.8128,709.3069 Q326.3419,708.8713 325.8946,708.6712 Q325.4473,708.4593 324.9764,708.4593 Q323.964,708.4593 323.446,709.2716 Q322.928,710.0721 322.928,711.6496 Q322.928,713.2271 323.446,714.0393 Q323.964,714.8399 324.9764,714.8399 Q325.4473,714.8399 325.8946,714.6397 Q326.3419,714.4278 326.8128,713.9922 L326.8128,716.0406 Z " fill="#000000"/><text fill="#000000" font-family="Verdana" font-size="9.0411" font-style="italic" lengthAdjust="spacing" textLength="39.9829" x="366.5666" y="708.7816">&#171;helper&#187;</text><text fill="#000000" font-family="Verdana" font-size="10.5479" lengthAdjust="spacing" textLength="97.5941" x="337.761" y="720.7046">someip_assertions</text><line style="stroke:#2E7D32;stroke-width:0.7534;" x1="264.4516" x2="487.9454" y1="726.9594" y2="726.9594"/><line style="stroke:#2E7D32;stroke-width:0.7534;" x1="264.4516" x2="487.9454" y1="732.9868" y2="732.9868"/><text fill="#000000" font-family="Verdana" font-size="10.5479" lengthAdjust="spacing" textLength="133.4354" x="268.2187" y="745.7913">+assert_valid_response()</text><text fill="#000000" font-family="Verdana" font-size="10.5479" lengthAdjust="spacing" textLength="118.1388" x="268.2187" y="758.0697">+assert_return_code()</text><text fill="#000000" font-family="Verdana" font-size="10.5479" lengthAdjust="spacing" textLength="124.5047" x="268.2187" y="770.3482">+assert_session_echo()</text><text fill="#000000" font-family="Verdana" font-size="10.5479" lengthAdjust="spacing" textLength="114.4306" x="268.2187" y="782.6266">+assert_client_echo()</text><text fill="#000000" font-family="Verdana" font-size="10.5479" lengthAdjust="spacing" textLength="215.9595" x="268.2187" y="794.9051">+assert_offer_has_tcp_endpoint_option()</text></g><!--class sd_helpers--><g id="elem_sd_helpers"><rect codeLine="45" fill="#E8F5E9" height="66.9487" id="sd_helpers" rx="1.8836" ry="1.8836" style="stroke:#2E7D32;stroke-width:0.7534;" width="146.3135" x="374.0747" y="218.1985"/><ellipse cx="416.1126" cy="233.367" fill="#FFFFFF" rx="6.7808" ry="6.7808" style="stroke:#000000;stroke-width:0.7534;"/><path d="M418.3494,237.6168 Q417.9138,237.8405 417.4311,237.9464 Q416.9485,238.0641 416.4187,238.0641 Q414.5352,238.0641 413.5345,236.828 Q412.5456,235.5802 412.5456,233.2257 Q412.5456,230.8713 413.5345,229.6234 Q414.5352,228.3756 416.4187,228.3756 Q416.9485,228.3756 417.4311,228.4933 Q417.9256,228.611 418.3494,228.8347 L418.3494,230.8831 Q417.8785,230.4475 417.4311,230.2474 Q416.9838,230.0355 416.5129,230.0355 Q415.5005,230.0355 414.9825,230.8477 Q414.4645,231.6483 414.4645,233.2257 Q414.4645,234.8032 414.9825,235.6155 Q415.5005,236.416 416.5129,236.416 Q416.9838,236.416 417.4311,236.2159 Q417.8785,236.004 418.3494,235.5684 L418.3494,237.6168 Z " fill="#000000"/><text fill="#000000" font-family="Verdana" font-size="9.0411" font-style="italic" lengthAdjust="spacing" textLength="39.9829" x="437.5995" y="230.3577">&#171;helper&#187;</text><text fill="#000000" font-family="Verdana" font-size="10.5479" lengthAdjust="spacing" textLength="56.587" x="429.2975" y="242.2808">sd_helpers</text><line style="stroke:#2E7D32;stroke-width:0.7534;" x1="374.8281" x2="519.6348" y1="248.5355" y2="248.5355"/><line style="stroke:#2E7D32;stroke-width:0.7534;" x1="374.8281" x2="519.6348" y1="254.5629" y2="254.5629"/><text fill="#000000" font-family="Verdana" font-size="10.5479" lengthAdjust="spacing" textLength="137.2724" x="378.5952" y="267.3674">+open_multicast_socket()</text><text fill="#000000" font-family="Verdana" font-size="10.5479" lengthAdjust="spacing" textLength="110.6142" x="378.5952" y="279.6459">+capture_sd_offers()</text></g><!--class sd_sender--><g id="elem_sd_sender"><rect codeLine="49" fill="#E8F5E9" height="79.2272" id="sd_sender" rx="1.8836" ry="1.8836" style="stroke:#2E7D32;stroke-width:0.7534;" width="173.5537" x="453.9376" y="553.4719"/><ellipse cx="511.0609" cy="568.6404" fill="#FFFFFF" rx="6.7808" ry="6.7808" style="stroke:#000000;stroke-width:0.7534;"/><path d="M513.2976,572.8902 Q512.8621,573.1139 512.3794,573.2198 Q511.8967,573.3375 511.367,573.3375 Q509.4834,573.3375 508.4828,572.1014 Q507.4939,570.8536 507.4939,568.4991 Q507.4939,566.1447 508.4828,564.8968 Q509.4834,563.649 511.367,563.649 Q511.8967,563.649 512.3794,563.7667 Q512.8738,563.8844 513.2976,564.1081 L513.2976,566.1565 Q512.8267,565.7209 512.3794,565.5208 Q511.932,565.3089 511.4612,565.3089 Q510.4487,565.3089 509.9308,566.1211 Q509.4128,566.9217 509.4128,568.4991 Q509.4128,570.0766 509.9308,570.8889 Q510.4487,571.6894 511.4612,571.6894 Q511.932,571.6894 512.3794,571.4893 Q512.8267,571.2774 513.2976,570.8418 L513.2976,572.8902 Z " fill="#000000"/><text fill="#000000" font-family="Verdana" font-size="9.0411" font-style="italic" lengthAdjust="spacing" textLength="39.9829" x="531.0825" y="565.6311">&#171;helper&#187;</text><text fill="#000000" font-family="Verdana" font-size="10.5479" lengthAdjust="spacing" textLength="53.6564" x="524.2458" y="577.5542">sd_sender</text><line style="stroke:#2E7D32;stroke-width:0.7534;" x1="454.691" x2="626.7379" y1="583.8089" y2="583.8089"/><line style="stroke:#2E7D32;stroke-width:0.7534;" x1="454.691" x2="626.7379" y1="589.8363" y2="589.8363"/><text fill="#000000" font-family="Verdana" font-size="10.5479" lengthAdjust="spacing" textLength="124.6128" x="458.4581" y="602.6408">+open_sender_socket()</text><text fill="#000000" font-family="Verdana" font-size="10.5479" lengthAdjust="spacing" textLength="164.5126" x="458.4581" y="614.9193">+send_subscribe_eventgroup()</text><text fill="#000000" font-family="Verdana" font-size="10.5479" lengthAdjust="spacing" textLength="160.4439" x="458.4581" y="627.1977">+capture_unicast_sd_entries()</text></g><!--class event_helpers--><g id="elem_event_helpers"><rect codeLine="54" fill="#E8F5E9" height="103.7841" id="event_helpers" rx="1.8836" ry="1.8836" style="stroke:#2E7D32;stroke-width:0.7534;" width="174.831" x="594.0743" y="385.4585"/><ellipse cx="641.4455" cy="400.627" fill="#FFFFFF" rx="6.7808" ry="6.7808" style="stroke:#000000;stroke-width:0.7534;"/><path d="M643.6822,404.8768 Q643.2466,405.1004 642.7639,405.2064 Q642.2813,405.3241 641.7515,405.3241 Q639.868,405.3241 638.8673,404.088 Q637.8785,402.8402 637.8785,400.4857 Q637.8785,398.1313 638.8673,396.8834 Q639.868,395.6356 641.7515,395.6356 Q642.2813,395.6356 642.7639,395.7533 Q643.2584,395.871 643.6822,396.0947 L643.6822,398.143 Q643.2113,397.7075 642.7639,397.5073 Q642.3166,397.2954 641.8457,397.2954 Q640.8333,397.2954 640.3153,398.1077 Q639.7973,398.9082 639.7973,400.4857 Q639.7973,402.0632 640.3153,402.8755 Q640.8333,403.676 641.8457,403.676 Q642.3166,403.676 642.7639,403.4759 Q643.2113,403.264 643.6822,402.8284 L643.6822,404.8768 Z " fill="#000000"/><text fill="#000000" font-family="Verdana" font-size="9.0411" font-style="italic" lengthAdjust="spacing" textLength="39.9829" x="671.8579" y="397.6177">&#171;helper&#187;</text><text fill="#000000" font-family="Verdana" font-size="10.5479" lengthAdjust="spacing" textLength="74.4381" x="654.6304" y="409.5408">event_helpers</text><line style="stroke:#2E7D32;stroke-width:0.7534;" x1="594.8277" x2="768.1519" y1="415.7955" y2="415.7955"/><line style="stroke:#2E7D32;stroke-width:0.7534;" x1="594.8277" x2="768.1519" y1="421.8229" y2="421.8229"/><text fill="#000000" font-family="Verdana" font-size="10.5479" lengthAdjust="spacing" textLength="143.8855" x="598.5949" y="434.6274">+subscribe_and_wait_ack()</text><text fill="#000000" font-family="Verdana" font-size="10.5479" lengthAdjust="spacing" textLength="165.7899" x="598.5949" y="446.9059">+subscribe_and_wait_ack_tcp()</text><text fill="#000000" font-family="Verdana" font-size="10.5479" lengthAdjust="spacing" textLength="127.7597" x="598.5949" y="459.1843">+capture_notifications()</text><text fill="#000000" font-family="Verdana" font-size="10.5479" lengthAdjust="spacing" textLength="152.4248" x="598.5949" y="471.4628">+capture_any_notifications()</text><text fill="#000000" font-family="Verdana" font-size="10.5479" lengthAdjust="spacing" textLength="156.509" x="598.5949" y="483.7412">+assert_notification_header()</text></g><!--class field_helpers--><g id="elem_field_helpers"><rect codeLine="61" fill="#E8F5E9" height="91.5056" id="field_helpers" rx="1.8836" ry="1.8836" style="stroke:#2E7D32;stroke-width:0.7534;" width="124.0073" x="653.9715" y="547.4445"/><ellipse cx="679.8562" cy="562.613" fill="#FFFFFF" rx="6.7808" ry="6.7808" style="stroke:#000000;stroke-width:0.7534;"/><path d="M682.0929,566.8628 Q681.6573,567.0865 681.1747,567.1924 Q680.692,567.3101 680.1623,567.3101 Q678.2787,567.3101 677.2781,566.0741 Q676.2892,564.8262 676.2892,562.4717 Q676.2892,560.1173 677.2781,558.8694 Q678.2787,557.6216 680.1623,557.6216 Q680.692,557.6216 681.1747,557.7393 Q681.6691,557.857 682.0929,558.0807 L682.0929,560.1291 Q681.622,559.6935 681.1747,559.4934 Q680.7273,559.2815 680.2564,559.2815 Q679.244,559.2815 678.726,560.0938 Q678.2081,560.8943 678.2081,562.4717 Q678.2081,564.0492 678.726,564.8615 Q679.244,565.662 680.2564,565.662 Q680.7273,565.662 681.1747,565.4619 Q681.622,565.25 682.0929,564.8144 L682.0929,566.8628 Z " fill="#000000"/><text fill="#000000" font-family="Verdana" font-size="9.0411" font-style="italic" lengthAdjust="spacing" textLength="39.9829" x="706.0591" y="559.6037">&#171;helper&#187;</text><text fill="#000000" font-family="Verdana" font-size="10.5479" lengthAdjust="spacing" textLength="67.1555" x="692.4729" y="571.5268">field_helpers</text><line style="stroke:#2E7D32;stroke-width:0.7534;" x1="654.7249" x2="777.2254" y1="577.7815" y2="577.7815"/><line style="stroke:#2E7D32;stroke-width:0.7534;" x1="654.7249" x2="777.2254" y1="583.8089" y2="583.8089"/><text fill="#000000" font-family="Verdana" font-size="10.5479" lengthAdjust="spacing" textLength="93.0618" x="658.492" y="596.6135">+send_get_field()</text><text fill="#000000" font-family="Verdana" font-size="10.5479" lengthAdjust="spacing" textLength="91.8617" x="658.492" y="608.8919">+send_set_field()</text><text fill="#000000" font-family="Verdana" font-size="10.5479" lengthAdjust="spacing" textLength="114.9662" x="658.492" y="621.1703">+send_get_field_tcp()</text><text fill="#000000" font-family="Verdana" font-size="10.5479" lengthAdjust="spacing" textLength="113.7662" x="658.492" y="633.4488">+send_set_field_tcp()</text></g><!--class tcp_helpers--><g id="elem_tcp_helpers"><rect codeLine="67" fill="#E8F5E9" height="103.7841" id="tcp_helpers" rx="1.8836" ry="1.8836" style="stroke:#2E7D32;stroke-width:0.7534;" width="217.1566" x="190.2394" y="385.4585"/><ellipse cx="265.4791" cy="400.627" fill="#FFFFFF" rx="6.7808" ry="6.7808" style="stroke:#000000;stroke-width:0.7534;"/><path d="M267.7158,404.8768 Q267.2803,405.1004 266.7976,405.2064 Q266.3149,405.3241 265.7852,405.3241 Q263.9016,405.3241 262.901,404.088 Q261.9121,402.8402 261.9121,400.4857 Q261.9121,398.1313 262.901,396.8834 Q263.9016,395.6356 265.7852,395.6356 Q266.3149,395.6356 266.7976,395.7533 Q267.292,395.871 267.7158,396.0947 L267.7158,398.143 Q267.2449,397.7075 266.7976,397.5073 Q266.3502,397.2954 265.8794,397.2954 Q264.8669,397.2954 264.349,398.1077 Q263.831,398.9082 263.831,400.4857 Q263.831,402.0632 264.349,402.8755 Q264.8669,403.676 265.8794,403.676 Q266.3502,403.676 266.7976,403.4759 Q267.2449,403.264 267.7158,402.8284 L267.7158,404.8768 Z " fill="#000000"/><text fill="#000000" font-family="Verdana" font-size="9.0411" font-style="italic" lengthAdjust="spacing" textLength="39.9829" x="289.1858" y="397.6177">&#171;helper&#187;</text><text fill="#000000" font-family="Verdana" font-size="10.5479" lengthAdjust="spacing" textLength="61.0266" x="278.664" y="409.5408">tcp_helpers</text><line style="stroke:#2E7D32;stroke-width:0.7534;" x1="190.9928" x2="406.6426" y1="415.7955" y2="415.7955"/><line style="stroke:#2E7D32;stroke-width:0.7534;" x1="190.9928" x2="406.6426" y1="421.8229" y2="421.8229"/><text fill="#000000" font-family="Verdana" font-size="10.5479" lengthAdjust="spacing" textLength="81.0202" x="194.7599" y="434.6274">+tcp_connect()</text><text fill="#000000" font-family="Verdana" font-size="10.5479" lengthAdjust="spacing" textLength="109.9395" x="194.7599" y="446.9059">+tcp_send_request()</text><text fill="#000000" font-family="Verdana" font-size="10.5479" lengthAdjust="spacing" textLength="131.1641" x="194.7599" y="459.1843">+tcp_receive_response()</text><text fill="#000000" font-family="Verdana" font-size="10.5479" lengthAdjust="spacing" textLength="67.6396" x="194.7599" y="471.4628">+tcp_listen()</text><text fill="#000000" font-family="Verdana" font-size="10.5479" lengthAdjust="spacing" textLength="208.1155" x="194.7599" y="483.7412">+tcp_accept_and_receive_notification()</text></g><!--class udp_helpers--><g id="elem_udp_helpers"><rect codeLine="74" fill="#E8F5E9" height="54.6703" id="udp_helpers" rx="1.8836" ry="1.8836" style="stroke:#2E7D32;stroke-width:0.7534;" width="154.3944" x="202.6709" y="307.8559"/><ellipse cx="244.8067" cy="323.0244" fill="#FFFFFF" rx="6.7808" ry="6.7808" style="stroke:#000000;stroke-width:0.7534;"/><path d="M247.0434,327.2742 Q246.6078,327.4978 246.1252,327.6038 Q245.6425,327.7215 245.1128,327.7215 Q243.2292,327.7215 242.2286,326.4854 Q241.2397,325.2376 241.2397,322.8831 Q241.2397,320.5287 242.2286,319.2808 Q243.2292,318.033 245.1128,318.033 Q245.6425,318.033 246.1252,318.1507 Q246.6196,318.2684 247.0434,318.4921 L247.0434,320.5404 Q246.5725,320.1049 246.1252,319.9047 Q245.6778,319.6928 245.2069,319.6928 Q244.1945,319.6928 243.6765,320.5051 Q243.1586,321.3056 243.1586,322.8831 Q243.1586,324.4606 243.6765,325.2729 Q244.1945,326.0734 245.2069,326.0734 Q245.6778,326.0734 246.1252,325.8733 Q246.5725,325.6614 247.0434,325.2258 L247.0434,327.2742 Z " fill="#000000"/><text fill="#000000" font-family="Verdana" font-size="9.0411" font-style="italic" lengthAdjust="spacing" textLength="39.9829" x="270.2362" y="320.0151">&#171;helper&#187;</text><text fill="#000000" font-family="Verdana" font-size="10.5479" lengthAdjust="spacing" textLength="64.4721" x="257.9916" y="331.9382">udp_helpers</text><line style="stroke:#2E7D32;stroke-width:0.7534;" x1="203.4243" x2="356.3119" y1="338.1929" y2="338.1929"/><line style="stroke:#2E7D32;stroke-width:0.7534;" x1="203.4243" x2="356.3119" y1="344.2203" y2="344.2203"/><text fill="#000000" font-family="Verdana" font-size="10.5479" lengthAdjust="spacing" textLength="145.3533" x="207.1914" y="357.0248">+udp_send_concatenated()</text></g><!--link test_someip_message_format to test_event_notification--><!--link test_event_notification to test_field_conformance--><!--link message_builder to someip_assertions--><!--link sd_helpers to sd_sender--><!--link event_helpers to field_helpers--><!--link tcp_helpers to event_helpers--><!--link tcp_helpers to event_helpers--><!--link udp_helpers to tcp_helpers--><!--link message_builder to sd_helpers--><!--link sd_helpers to tcp_helpers--><!--link test_someip_message_format to message_builder--><g id="link_test_someip_message_format_message_builder"><path codeLine="93" d="M156.9984,157.5253 C124.4505,180.3615 96.8149,211.4026 96.8149,250.9724 C96.8149,250.9724 96.8149,250.9724 96.8149,593.78 C96.8149,628.3848 102.3808,662.3196 108.9507,692.1024 " fill="transparent" id="test_someip_message_format-to-message_builder" style="stroke:#000000;stroke-width:0.7534;"/><polygon fill="#000000" points="109.9245,696.5168,111.4067,689.246,109.113,692.8382,105.5209,690.5444,109.9245,696.5168" style="stroke:#000000;stroke-width:0.7534;"/></g><!--link test_someip_message_format to someip_assertions--><g id="link_test_someip_message_format_someip_assertions"><path codeLine="94" d="M205.9483,172.5335 C196.523,186.7355 188.0469,202.3238 182.7052,218.1985 C144.2504,332.4702 138.5922,375.2872 177.4312,489.4309 C205.4736,571.8403 268.374,645.283 316.7061,693.359 " fill="transparent" id="test_someip_message_format-to-someip_assertions" style="stroke:#000000;stroke-width:0.7534;"/><polygon fill="#000000" points="319.9111,696.547,317.2289,689.6283,317.2403,693.8903,312.9783,693.9016,319.9111,696.547" style="stroke:#000000;stroke-width:0.7534;"/></g><!--link test_someip_message_format to sd_helpers--><g id="link_test_someip_message_format_sd_helpers"><path codeLine="95" d="M343.6213,172.2773 C364.446,188.1067 382.3568,201.7211 400.3335,215.3806 " fill="transparent" id="test_someip_message_format-to-sd_helpers" style="stroke:#000000;stroke-width:0.7534;"/><polygon fill="#000000" points="403.9329,218.1156,400.3572,211.6136,400.9334,215.8365,396.7105,216.4127,403.9329,218.1156" style="stroke:#000000;stroke-width:0.7534;"/></g><!--link test_someip_message_format to tcp_helpers--><g id="link_test_someip_message_format_tcp_helpers"><path codeLine="96" d="M223.1263,172.4807 C197.2613,225.582 172.3155,302.1449 202.2942,362.8558 C206.3099,370.9852 208.6614,375.1169 214.847,381.9429 " fill="transparent" id="test_someip_message_format-to-tcp_helpers" style="stroke:#000000;stroke-width:0.7534;"/><polygon fill="#000000" points="217.8825,385.2927,215.5624,378.2444,215.3529,382.5012,211.0961,382.2917,217.8825,385.2927" style="stroke:#000000;stroke-width:0.7534;"/></g><!--link test_someip_message_format to udp_helpers--><g id="link_test_someip_message_format_udp_helpers"><path codeLine="97" d="M265.8153,172.4054 C269.6879,216.993 274.2765,269.8777 277.1622,303.0735 " fill="transparent" id="test_someip_message_format-to-udp_helpers" style="stroke:#000000;stroke-width:0.7534;"/><polygon fill="#000000" points="277.5536,307.5771,279.9688,300.5608,277.2274,303.8241,273.964,301.0827,277.5536,307.5771" style="stroke:#000000;stroke-width:0.7534;"/></g><!--link test_event_notification to event_helpers--><g id="link_test_event_notification_event_helpers"><path codeLine="98" d="M528.3833,141.9294 C546.134,156.6061 565.61,175.0499 579.7593,194.8423 C622.2072,254.2196 650.038,329.7106 665.9126,381.1016 " fill="transparent" id="test_event_notification-to-event_helpers" style="stroke:#000000;stroke-width:0.7534;"/><polygon fill="#000000" points="667.2468,385.4208,668.125,378.0526,666.135,381.8215,662.3661,379.8315,667.2468,385.4208" style="stroke:#000000;stroke-width:0.7534;"/></g><!--link test_event_notification to sd_helpers--><g id="link_test_event_notification_sd_helpers"><path codeLine="99" d="M474.9355,141.8918 C469.1115,164.7506 462.5043,190.7102 456.6804,213.5841 " fill="transparent" id="test_event_notification-to-sd_helpers" style="stroke:#000000;stroke-width:0.7534;"/><polygon fill="#000000" points="455.565,217.9649,460.1586,212.1373,456.4945,214.3143,454.3175,210.6502,455.565,217.9649" style="stroke:#000000;stroke-width:0.7534;"/></g><!--link test_event_notification to sd_sender--><g id="link_test_event_notification_sd_sender"><path codeLine="100" d="M502.9101,141.8541 C514.3094,162.8972 527.6073,191.2184 533.8005,218.1985 C561.2477,337.8572 552.3046,480.2234 545.5163,548.9054 " fill="transparent" id="test_event_notification-to-sd_sender" style="stroke:#000000;stroke-width:0.7534;"/><polygon fill="#000000" points="545.0717,553.4041,548.7377,546.9526,545.4422,549.6552,542.7395,546.3597,545.0717,553.4041" style="stroke:#000000;stroke-width:0.7534;"/></g><!--link test_event_notification to tcp_helpers--><g id="link_test_event_notification_tcp_helpers"><path codeLine="101" d="M429.6623,141.7637 C404.0082,160.6369 375.7774,186.841 361.2665,218.1985 C334.2563,276.5662 379.4994,302.4237 357.4994,362.8558 C354.6665,370.6311 353.1083,374.4066 348.5124,381.5642 " fill="transparent" id="test_event_notification-to-tcp_helpers" style="stroke:#000000;stroke-width:0.7534;"/><polygon fill="#000000" points="346.07,385.368,352.2696,381.2906,348.1054,382.1981,347.1978,378.0339,346.07,385.368" style="stroke:#000000;stroke-width:0.7534;"/></g><!--link test_field_conformance to field_helpers--><g id="link_test_field_conformance_field_helpers"><path codeLine="102" d="M686.5721,141.8691 C714.0193,192.356 764.009,292.8401 782.4302,385.4585 C791.4411,430.7844 795.4795,445.0995 782.4302,489.4309 C776.4028,509.9089 767.4592,526.4411 755.6907,543.4836 " fill="transparent" id="test_field_conformance-to-field_helpers" style="stroke:#000000;stroke-width:0.7534;"/><polygon fill="#000000" points="753.122,547.2034,759.4549,543.3361,755.2626,544.1035,754.4951,539.9112,753.122,547.2034" style="stroke:#000000;stroke-width:0.7534;"/></g><!--link test_field_conformance to event_helpers--><g id="link_test_field_conformance_event_helpers"><path codeLine="103" d="M669.2735,141.8767 C671.6393,199.0992 676.342,312.7494 679.1598,380.8288 " fill="transparent" id="test_field_conformance-to-event_helpers" style="stroke:#000000;stroke-width:0.7534;"/><polygon fill="#000000" points="679.3468,385.3454,682.0775,378.4458,679.191,381.5816,676.0552,378.6951,679.3468,385.3454" style="stroke:#000000;stroke-width:0.7534;"/></g><!--link test_field_conformance to sd_helpers--><g id="link_test_field_conformance_sd_helpers"><path codeLine="104" d="M617.0989,141.8315 C601.9401,151.626 585.2894,162.3773 569.9648,172.2396 C546.5408,187.3156 524.3766,201.535 502.3766,215.6315 " fill="transparent" id="test_field_conformance-to-sd_helpers" style="stroke:#000000;stroke-width:0.7534;"/><polygon fill="#000000" points="498.5704,218.0704,505.9056,216.9496,501.7422,216.038,502.6538,211.8746,498.5704,218.0704" style="stroke:#000000;stroke-width:0.7534;"/></g><!--link event_helpers to sd_sender--><g id="link_event_helpers_sd_sender"><path codeLine="107" d="M658.2735,489.4836 C651.4324,501.7795 643.2578,514.3617 634.0058,524.8418 C624.8667,535.1863 617.4586,542.0981 606.2628,550.7022 " fill="transparent" id="event_helpers-to-sd_sender" style="stroke:#000000;stroke-width:0.7534;stroke-dasharray:7.0,7.0;"/><polygon fill="#000000" points="602.6784,553.4568,609.8913,551.7145,605.6654,551.1613,606.2185,546.9354,602.6784,553.4568" style="stroke:#000000;stroke-width:0.7534;"/><text fill="#000000" font-family="Verdana" font-size="9.7945" lengthAdjust="spacing" textLength="34.4242" x="644.5537" y="521.8785">&#171;uses&#187;</text></g><!--link field_helpers to message_builder--><g id="link_field_helpers_message_builder"><path codeLine="108" d="M653.9187,633.2293 C649.564,635.2258 645.1564,637.0491 640.7866,638.6087 C475.591,697.4435 419.7472,650.6861 250.5133,696.6223 C246.2564,697.775 246.2742,697.7012 241.9496,699.0348 " fill="transparent" id="field_helpers-to-message_builder" style="stroke:#000000;stroke-width:0.7534;stroke-dasharray:7.0,7.0;"/><polygon fill="#000000" points="237.6297,700.3668,244.9975,701.2486,241.2296,699.2568,243.2214,695.4888,237.6297,700.3668" style="stroke:#000000;stroke-width:0.7534;"/><text fill="#000000" font-family="Verdana" font-size="9.7945" lengthAdjust="spacing" textLength="34.4242" x="560.9237" y="671.0563">&#171;uses&#187;</text></g><!--link field_helpers to tcp_helpers--><g id="link_field_helpers_tcp_helpers"><path codeLine="109" d="M653.8057,553.7431 C649.4509,551.5054 645.0886,549.3808 640.7866,547.4445 C565.1805,513.4123 480.1618,486.4785 411.7359,467.2737 " fill="transparent" id="field_helpers-to-tcp_helpers" style="stroke:#000000;stroke-width:0.7534;stroke-dasharray:7.0,7.0;"/><polygon fill="#000000" points="407.3835,466.0522,413.0977,470.7861,411.0105,467.0701,414.7265,464.9829,407.3835,466.0522" style="stroke:#000000;stroke-width:0.7534;"/><text fill="#000000" font-family="Verdana" font-size="9.7945" lengthAdjust="spacing" textLength="34.4242" x="587.2935" y="521.8785">&#171;uses&#187;</text></g><!--SRC=[ZLRDRXit4BxlKx3eeGaAMIivifKW4938KY6WZWrBI0z5GT3SaKHuHMv9hjMa291J7w3e4-P9EjmVYznToJaOacS-VlFDS6Qe7-mMTa2ob0aP6SvI83ls5nd7CTcBn6uZyo1anZJR4PuoOzvPgyLzRc71bLoApq3Y9eJy7H7odl67ZLQvJAOgLVhjMml6JYRanzdvV3Y_SWYb4z0Dxs1qCPh6NUUta6QW2uRnV3HxtMGu-8UpowlpOVGbYgomcCyr6CCsGFfazWZIukTSG9hWvsfwIxvz_O-iC3gvLacEw2l8G2OWkG0JHML2JXqrQWSYexkIZQwLtZ5BdgIxf5VJSUzw-KilZWTdPt4yHjFovdgsk5tUVQHtjrCQ3_hnCB3UtAuMDn-MT30ApE_VBHSEtelFG_Y7tnPtivAd7x_gnnVzmQ0TPjGRnFt1k3zqfPojbZHss97xUurdyFJb20laPGUkD5GgAzQ2CokKRASs-xYgKxjenHnSaXTOpvSXxTfLccAh5EMI7Dgiyr-lQjPNfrWhshh-zxb8yVQ9T_EEyUV2JZNycMEO5ozR9imHlzfSIzzfTIunRKZg-_MTUwtaXcPQMSLLIXz16wnFLmnL-3u7D7Kzglx1hw1TVKrBUkcYZomLJgx945G9gLobSAnd4jeDHdEIW6zLuE2fSFVQiglr6ZJTCaCjpoWsVAO4ubJcbFcY4rfgRAjLE2TqbwSM-wKO3_u0LJ4uor0dK3nT138Xet43fhi9Ir_0vapKvFU6u-Q1ibFTQiZ2OBciX2IO3oufyAEMxNqibGCvmr1x9Yp5zLD5x_IvieNX_T4neOl9JrtkwYfy3ofacBudl1oWey9TQJPGpPbVhWxR4-uWFiHMzgS1niuu5jZvSAebyEgIdA5W2wR2MJLm48_GQ6ZdIOMn80__CyuXiqMTwqD-SJnfUN9SclCLIb2V6sdfnheu6_r4KlP9vVPDiPp8hjZuXWX96D5g7vtOypqjDblx-rOa-3RyqJksDADZoxJpV6ix-XBh_53THeiaQYw-9cDhlqJUyBR0zHH6uMGqSK7xHNv7D941J-HVK2lr0qixgKJjPI2pHlh9X22VBr0OmaA1MEYY1xxzyszLQPBuB_-fLd2ylKdp9VgU8-qx-fv3tWKyZmwgyJpSkwZZlLjXmme-XsxAFWsjkl4vP2kxzW-C6jfetTFWZjIEWxtCi8tmtGGjMThPHk5qdPrvkP8tkBfoVBadaoZSyWxM78oJOB_h3y3_0G00]--></g></svg>