<svg xmlns="http://www.w3.org/2000/svg" xmlns:xlink="http://www.w3.org/1999/xlink" contentStyleType="text/css" data-diagram-type="CLASS" height="270.321px" preserveAspectRatio="none" style="width:800px;height:270px;background:#FFFFFF;" version="1.1" viewBox="0 0 800 270" width="800.4184px" zoomAndPan="magnify"><defs/><g><!--class ETS--><g id="elem_ETS"><rect codeLine="5" fill="#FFFFFF" height="89.0436" id="ETS" rx="2.3965" ry="2.3965" style="stroke:#000000;stroke-width:0.9586;" width="221.1841" x="11.503" y="166.7938"/><ellipse cx="23.9646" cy="180.214" fill="#FFFFFF" rx="8.6273" ry="8.6273" style="stroke:#000000;stroke-width:0.9586;"/><path d="M26.8104,185.621 Q26.2562,185.9056 25.6421,186.0404 Q25.0281,186.1902 24.354,186.1902 Q21.9576,186.1902 20.6845,184.6175 Q19.4263,183.0298 19.4263,180.0342 Q19.4263,177.0387 20.6845,175.451 Q21.9576,173.8633 24.354,173.8633 Q25.0281,173.8633 25.6421,174.0131 Q26.2712,174.1629 26.8104,174.4475 L26.8104,177.0536 Q26.2113,176.4995 25.6421,176.2448 Q25.073,175.9752 24.4739,175.9752 Q23.1858,175.9752 22.5267,177.0087 Q21.8677,178.0272 21.8677,180.0342 Q21.8677,182.0413 22.5267,183.0748 Q23.1858,184.0932 24.4739,184.0932 Q25.073,184.0932 25.6421,183.8386 Q26.2113,183.569 26.8104,183.0148 L26.8104,185.621 Z " fill="#000000"/><text fill="#000000" font-family="Verdana" font-size="13.4202" lengthAdjust="spacing" textLength="194.3437" x="35.4676" y="184.8599">Enhanced Testability Service</text><line style="stroke:#000000;stroke-width:0.9586;" x1="12.4616" x2="231.7286" y1="193.6342" y2="193.6342"/><text fill="#000000" font-family="Verdana" font-size="13.4202" lengthAdjust="spacing" textLength="124.5299" x="17.2545" y="209.9254">mw::com Skeleton</text><line style="stroke:#000000;stroke-width:0.9586;" x1="12.4616" x2="231.7286" y1="216.9248" y2="216.9248"/><text fill="#000000" font-family="Verdana" font-size="13.4202" lengthAdjust="spacing" textLength="132.9634" x="17.2545" y="233.216">+offer_tc8_events()</text><text fill="#000000" font-family="Verdana" font-size="13.4202" lengthAdjust="spacing" textLength="123.6977" x="17.2545" y="248.838">+offer_tc8_fields()</text></g><!--class ETC--><g id="elem_ETC"><rect codeLine="12" fill="#FFFFFF" height="104.6655" id="ETC" rx="2.3965" ry="2.3965" style="stroke:#000000;stroke-width:0.9586;" width="210.4375" x="266.9659" y="159.1251"/><ellipse cx="279.4275" cy="172.5453" fill="#FFFFFF" rx="8.6273" ry="8.6273" style="stroke:#000000;stroke-width:0.9586;"/><path d="M282.2733,177.9523 Q281.7191,178.2369 281.105,178.3717 Q280.4909,178.5215 279.8169,178.5215 Q277.4205,178.5215 276.1474,176.9488 Q274.8892,175.3611 274.8892,172.3656 Q274.8892,169.37 276.1474,167.7823 Q277.4205,166.1947 279.8169,166.1947 Q280.4909,166.1947 281.105,166.3444 Q281.7341,166.4942 282.2733,166.7788 L282.2733,169.385 Q281.6742,168.8308 281.105,168.5762 Q280.5359,168.3066 279.9368,168.3066 Q278.6487,168.3066 277.9896,169.34 Q277.3306,170.3585 277.3306,172.3656 Q277.3306,174.3726 277.9896,175.4061 Q278.6487,176.4246 279.9368,176.4246 Q280.5359,176.4246 281.105,176.1699 Q281.6742,175.9003 282.2733,175.3462 L282.2733,177.9523 Z " fill="#000000"/><text fill="#000000" font-family="Verdana" font-size="13.4202" lengthAdjust="spacing" textLength="183.5971" x="290.9305" y="177.1912">Enhanced Testability Client</text><line style="stroke:#000000;stroke-width:0.9586;" x1="267.9245" x2="476.4448" y1="185.9655" y2="185.9655"/><text fill="#000000" font-family="Verdana" font-size="13.4202" lengthAdjust="spacing" textLength="103.7247" x="272.7174" y="202.2567">mw::com Proxy</text><line style="stroke:#000000;stroke-width:0.9586;" x1="267.9245" x2="476.4448" y1="209.2561" y2="209.2561"/><text fill="#000000" font-family="Verdana" font-size="13.4202" lengthAdjust="spacing" textLength="138.0484" x="272.7174" y="225.5474">+subscribe_events()</text><text fill="#000000" font-family="Verdana" font-size="13.4202" lengthAdjust="spacing" textLength="94.8915" x="272.7174" y="241.1693">+read_fields()</text><text fill="#000000" font-family="Verdana" font-size="13.4202" lengthAdjust="spacing" textLength="153.8473" x="272.7174" y="256.7912">+validate_tc8_values()</text></g><!--class TO--><g id="elem_TO"><rect codeLine="20" fill="#FFFFFF" height="73.4216" id="TO" rx="2.3965" ry="2.3965" style="stroke:#000000;stroke-width:0.9586;" width="179.3864" x="282.7826" y="11.503"/><ellipse cx="310.7088" cy="24.9232" fill="#FFFFFF" rx="8.6273" ry="8.6273" style="stroke:#000000;stroke-width:0.9586;"/><path d="M313.5546,30.3302 Q313.0004,30.6148 312.3863,30.7496 Q311.7722,30.8994 311.0982,30.8994 Q308.7018,30.8994 307.4286,29.3267 Q306.1705,27.7391 306.1705,24.7435 Q306.1705,21.7479 307.4286,20.1602 Q308.7018,18.5726 311.0982,18.5726 Q311.7722,18.5726 312.3863,18.7224 Q313.0154,18.8721 313.5546,19.1567 L313.5546,21.7629 Q312.9555,21.2087 312.3863,20.9541 Q311.8172,20.6845 311.218,20.6845 Q309.9299,20.6845 309.2709,21.7179 Q308.6119,22.7364 308.6119,24.7435 Q308.6119,26.7505 309.2709,27.784 Q309.9299,28.8025 311.218,28.8025 Q311.8172,28.8025 312.3863,28.5479 Q312.9555,28.2783 313.5546,27.7241 L313.5546,30.3302 Z " fill="#000000"/><text fill="#000000" font-family="Verdana" font-size="13.4202" lengthAdjust="spacing" textLength="118.1802" x="325.6484" y="29.5692">Test Orchestrator</text><line style="stroke:#000000;stroke-width:0.9586;" x1="283.7411" x2="461.2104" y1="38.3434" y2="38.3434"/><text fill="#000000" font-family="Verdana" font-size="13.4202" lengthAdjust="spacing" textLength="42.233" x="288.5341" y="54.6347">pytest</text><line style="stroke:#000000;stroke-width:0.9586;" x1="283.7411" x2="461.2104" y1="61.634" y2="61.634"/><text fill="#000000" font-family="Verdana" font-size="13.4202" lengthAdjust="spacing" textLength="167.8834" x="288.5341" y="77.9253">+run_end_to_end_tests()</text></g><!--class PO--><g id="elem_PO"><rect codeLine="26" fill="#FFFFFF" height="104.6655" id="PO" rx="2.3965" ry="2.3965" style="stroke:#000000;stroke-width:0.9586;" width="282.3641" x="511.8844" y="159.1251"/><ellipse cx="579.0157" cy="172.5453" fill="#FFFFFF" rx="8.6273" ry="8.6273" style="stroke:#000000;stroke-width:0.9586;"/><path d="M581.8615,177.9523 Q581.3074,178.2369 580.6933,178.3717 Q580.0792,178.5215 579.4052,178.5215 Q577.0087,178.5215 575.7356,176.9488 Q574.4774,175.3611 574.4774,172.3656 Q574.4774,169.37 575.7356,167.7823 Q577.0087,166.1947 579.4052,166.1947 Q580.0792,166.1947 580.6933,166.3444 Q581.3223,166.4942 581.8615,166.7788 L581.8615,169.385 Q581.2624,168.8308 580.6933,168.5762 Q580.1241,168.3066 579.525,168.3066 Q578.2369,168.3066 577.5779,169.34 Q576.9188,170.3585 576.9188,172.3656 Q576.9188,174.3726 577.5779,175.4061 Q578.2369,176.4246 579.525,176.4246 Q580.1241,176.4246 580.6933,176.1699 Q581.2624,175.9003 581.8615,175.3462 L581.8615,177.9523 Z " fill="#000000"/><text fill="#000000" font-family="Verdana" font-size="13.4202" lengthAdjust="spacing" textLength="140.912" x="595.791" y="177.1912">Process Orchestrator</text><line style="stroke:#000000;stroke-width:0.9586;" x1="512.843" x2="793.2899" y1="185.9655" y2="185.9655"/><text fill="#000000" font-family="Verdana" font-size="13.4202" lengthAdjust="spacing" textLength="42.7834" x="517.6359" y="202.2567">helper</text><line style="stroke:#000000;stroke-width:0.9586;" x1="512.843" x2="793.2899" y1="209.2561" y2="209.2561"/><text fill="#000000" font-family="Verdana" font-size="13.4202" lengthAdjust="spacing" textLength="160.8522" x="517.6359" y="225.5474">+start_stack(config_dir)</text><text fill="#000000" font-family="Verdana" font-size="13.4202" lengthAdjust="spacing" textLength="138.7758" x="517.6359" y="241.1693">+stop_stack(handle)</text><text fill="#000000" font-family="Verdana" font-size="13.4202" lengthAdjust="spacing" textLength="270.8611" x="517.6359" y="256.7912">+wait_service_available(name, timeout)</text></g><!--link TO to ETS--><g id="link_TO_ETS"><path codeLine="34" d="M316.2659,85.5058 C278.9482,109.5279 234.571,138.0966 195.0389,163.5375 " fill="transparent" id="TO-to-ETS" style="stroke:#000000;stroke-width:0.9586;"/><polygon fill="#000000" points="190.2024,166.65,199.5322,165.2055,194.2329,164.0562,195.3822,158.7568,190.2024,166.65" style="stroke:#000000;stroke-width:0.9586;"/><text fill="#000000" font-family="Verdana" font-size="12.4616" lengthAdjust="spacing" textLength="81.043" x="270.8003" y="126.5973">starts / stops</text></g><!--link TO to ETC--><g id="link_TO_ETC"><path codeLine="35" d="M372.4103,85.5058 C372.4103,107.2081 372.4103,129.409 372.4103,153.3736 " fill="transparent" id="TO-to-ETC" style="stroke:#000000;stroke-width:0.9586;"/><polygon fill="#000000" points="372.4103,159.1251,376.2446,150.4978,372.4103,154.3322,368.5759,150.4978,372.4103,159.1251" style="stroke:#000000;stroke-width:0.9586;"/><text fill="#000000" font-family="Verdana" font-size="12.4616" lengthAdjust="spacing" textLength="81.043" x="373.3688" y="126.5973">starts / stops</text></g><!--link TO to PO--><g id="link_TO_PO"><path codeLine="36" d="M435.4372,85.5058 C473.2917,107.2081 517.0562,132.299 558.8409,156.2637 " fill="transparent" id="TO-to-PO" style="stroke:#000000;stroke-width:0.9586;"/><polygon fill="#000000" points="563.8301,159.1251,558.2539,151.5068,559.6724,156.7406,554.4387,158.1591,563.8301,159.1251" style="stroke:#000000;stroke-width:0.9586;"/><text fill="#000000" font-family="Verdana" font-size="12.4616" lengthAdjust="spacing" textLength="28.5497" x="514.2808" y="126.5973">uses</text></g><!--SRC=[VP4_QyCm4CLtVufhfeJMD6FmK2WXGwS4dDsSfNCj8aj6Ejj9IxzxBtP8C8Kk-lEUTBydtHFNr12q5erBea9BqE0PDkir34PpdSIJSIq6R41PZF6TEPYoO_fGtkNcYs2T9AC3YvshqIdISAJ8M1fh-08vXTueMW16s1rp-4u0cY7Bb6yWFv4bzawaD9NXsLSLXOBLfg2U7CVbQgvMXgo-gZ__GxVMoFKRSpjZ7e8_N-x0s9LHoODe1Wo4-i4IeKThD3AD8MJJqJp4bGtxe6gP0x8F8_gu7ydjXKM-8qFd2dAwO3zDuisBIK95ilXJxp3Lgycs51vFO0nSoAXEI-b9PJuBRS9gidnxS-IJjALH7T38-Qaj1VPeB9QMbWuRUW4s3VcEnpoIFzL-SEdRsBaCHbI4LxWMZdD_-wylqJFe8iLV]--></g></svg>