<svg xmlns="http://www.w3.org/2000/svg" xmlns:xlink="http://www.w3.org/1999/xlink" contentStyleType="text/css" data-diagram-type="CLASS" height="441.5613px" preserveAspectRatio="none" style="width:800px;height:441px;background:#FFFFFF;" version="1.1" viewBox="0 0 800 441" width="800.4398px" zoomAndPan="magnify"><defs/><g><!--cluster Test Code (stack-agnostic)--><g id="cluster_Test Code (stack-agnostic)"><path d="M55.4151,40.022 L241.9736,40.022 A3.2985,3.2985 0 0 1 244.1726,42.221 L250.3299,59.6344 L340.4068,59.6344 A2.199,2.199 0 0 1 342.6058,61.8334 L342.6058,150.4123 A2.199,2.199 0 0 1 340.4068,152.6113 L55.4151,152.6113 A2.199,2.199 0 0 1 53.2161,150.4123 L53.2161,42.221 A2.199,2.199 0 0 1 55.4151,40.022 " fill="#FFFFFF" style="stroke:#000000;stroke-width:0.8796;"/><line style="stroke:#000000;stroke-width:0.8796;" x1="53.2161" x2="250.3299" y1="59.6344" y2="59.6344"/><text fill="#000000" font-family="Verdana" font-size="12.3145" font-weight="bold" lengthAdjust="spacing" textLength="185.6789" x="56.7345" y="53.2118">Test Code (stack-agnostic)</text></g><!--cluster Deployment Config (stack-specific)--><g id="cluster_Deployment Config (stack-specific)"><path d="M365.9153,9.6756 L610.24,9.6756 A3.2985,3.2985 0 0 1 612.439,11.8747 L618.5962,29.2881 L792.5234,29.2881 A2.199,2.199 0 0 1 794.7224,31.4871 L794.7224,164.0462 A2.199,2.199 0 0 1 792.5234,166.2452 L365.9153,166.2452 A2.199,2.199 0 0 1 363.7163,164.0462 L363.7163,11.8747 A2.199,2.199 0 0 1 365.9153,9.6756 " fill="#FFFFFF" style="stroke:#000000;stroke-width:0.8796;"/><line style="stroke:#000000;stroke-width:0.8796;" x1="363.7163" x2="618.5962" y1="29.2881" y2="29.2881"/><text fill="#000000" font-family="Verdana" font-size="12.3145" font-weight="bold" lengthAdjust="spacing" textLength="243.4451" x="367.2347" y="22.8654">Deployment Config (stack-specific)</text></g><!--cluster mw_com_config--><g id="cluster_mw_com_config"><path d="M540.077,47.4986 L648.9907,47.4986 A3.2985,3.2985 0 0 1 651.1897,49.6976 L657.3469,67.1111 L771.4129,67.1111 A2.199,2.199 0 0 1 773.6119,69.3101 L773.6119,142.9357 A2.199,2.199 0 0 1 771.4129,145.1347 L540.077,145.1347 A2.199,2.199 0 0 1 537.878,142.9357 L537.878,49.6976 A2.199,2.199 0 0 1 540.077,47.4986 " fill="#FFFFFF" style="stroke:#000000;stroke-width:0.8796;"/><line style="stroke:#000000;stroke-width:0.8796;" x1="537.878" x2="657.3469" y1="67.1111" y2="67.1111"/><text fill="#000000" font-family="Verdana" font-size="12.3145" font-weight="bold" lengthAdjust="spacing" textLength="108.0341" x="541.3964" y="60.6884">mw_com_config</text></g><!--cluster someip_stack--><g id="cluster_someip_stack"><path d="M387.0258,47.4986 L481.0877,47.4986 A3.2985,3.2985 0 0 1 483.2867,49.6976 L489.4439,67.1111 L514.5684,67.1111 A2.199,2.199 0 0 1 516.7675,69.3101 L516.7675,142.9357 A2.199,2.199 0 0 1 514.5684,145.1347 L387.0258,145.1347 A2.199,2.199 0 0 1 384.8268,142.9357 L384.8268,49.6976 A2.199,2.199 0 0 1 387.0258,47.4986 " fill="#FFFFFF" style="stroke:#000000;stroke-width:0.8796;"/><line style="stroke:#000000;stroke-width:0.8796;" x1="384.8268" x2="489.4439" y1="67.1111" y2="67.1111"/><text fill="#000000" font-family="Verdana" font-size="12.3145" font-weight="bold" lengthAdjust="spacing" textLength="93.1822" x="388.3452" y="60.6884">someip_stack</text></g><!--cluster Runtime (swappable)--><g id="cluster_Runtime (swappable)"><path d="M146.0143,339.0874 L295.0883,339.0874 A3.2985,3.2985 0 0 1 297.2873,341.2864 L303.4445,358.6998 L362.3969,358.6998 A2.199,2.199 0 0 1 364.5959,360.8988 L364.5959,433.6449 A2.199,2.199 0 0 1 362.3969,435.8439 L146.0143,435.8439 A2.199,2.199 0 0 1 143.8153,433.6449 L143.8153,341.2864 A2.199,2.199 0 0 1 146.0143,339.0874 " fill="#FFFFFF" style="stroke:#000000;stroke-width:0.8796;"/><line style="stroke:#000000;stroke-width:0.8796;" x1="143.8153" x2="303.4445" y1="358.6998" y2="358.6998"/><text fill="#000000" font-family="Verdana" font-size="12.3145" font-weight="bold" lengthAdjust="spacing" textLength="148.1944" x="147.3337" y="352.2772">Runtime (swappable)</text></g><!--cluster mw_com_config--><g id="cluster_mw_com_config"><path d="M210.2254,209.3458 L319.1391,209.3458 A3.2985,3.2985 0 0 1 321.3381,211.5448 L327.4954,228.9582 L327.2128,228.9582 A2.199,2.199 0 0 1 329.4118,231.1572 L329.4118,290.7092 A2.199,2.199 0 0 1 327.2128,292.9082 L210.2254,292.9082 A2.199,2.199 0 0 1 208.0264,290.7092 L208.0264,211.5448 A2.199,2.199 0 0 1 210.2254,209.3458 " fill="#FFFFFF" style="stroke:#000000;stroke-width:0.8796;"/><line style="stroke:#000000;stroke-width:0.8796;" x1="208.0264" x2="327.4954" y1="228.9582" y2="228.9582"/><text fill="#000000" font-family="Verdana" font-size="12.3145" font-weight="bold" lengthAdjust="spacing" textLength="108.0341" x="211.5448" y="222.5356">mw_com_config</text></g><!--class TC8 Service--><g id="elem_TC8 Service"><rect codeLine="5" fill="#FFFFFF" height="67.3722" id="TC8 Service" rx="2.199" ry="2.199" style="stroke:#000000;stroke-width:0.8796;" width="124.8248" x="67.2897" y="70.8081"/><ellipse cx="90.791" cy="83.1226" fill="#FFFFFF" rx="7.9164" ry="7.9164" style="stroke:#000000;stroke-width:0.8796;"/><path d="M93.4023,88.0841 Q92.8938,88.3452 92.3303,88.4689 Q91.7668,88.6064 91.1483,88.6064 Q88.9493,88.6064 87.7811,87.1633 Q86.6266,85.7064 86.6266,82.9577 Q86.6266,80.2089 87.7811,78.7521 Q88.9493,77.2952 91.1483,77.2952 Q91.7668,77.2952 92.3303,77.4327 Q92.9075,77.5701 93.4023,77.8312 L93.4023,80.2226 Q92.8525,79.7141 92.3303,79.4805 Q91.808,79.2331 91.2582,79.2331 Q90.0763,79.2331 89.4716,80.1814 Q88.8668,81.116 88.8668,82.9577 Q88.8668,84.7993 89.4716,85.7477 Q90.0763,86.6822 91.2582,86.6822 Q91.808,86.6822 92.3303,86.4486 Q92.8525,86.2012 93.4023,85.6927 L93.4023,88.0841 Z " fill="#000000"/><text fill="#000000" font-family="Verdana" font-size="12.3145" lengthAdjust="spacing" textLength="73.3817" x="104.0276" y="87.3858">TC8 Service</text><line style="stroke:#000000;stroke-width:0.8796;" x1="68.1693" x2="191.2349" y1="95.4371" y2="95.4371"/><text fill="#000000" font-family="Verdana" font-size="12.3145" lengthAdjust="spacing" textLength="114.2695" x="72.5673" y="110.386">mw::com Skeleton</text><text fill="#000000" font-family="Verdana" font-size="12.3145" lengthAdjust="spacing" textLength="82.3048" x="72.5673" y="124.7208">events, fields</text><line style="stroke:#000000;stroke-width:0.8796;" x1="68.1693" x2="191.2349" y1="131.1435" y2="131.1435"/></g><!--class TC8 Client--><g id="elem_TC8 Client"><rect codeLine="9" fill="#FFFFFF" height="67.3722" id="TC8 Client" rx="2.199" ry="2.199" style="stroke:#000000;stroke-width:0.8796;" width="105.7337" x="222.9797" y="70.8081"/><ellipse cx="242.3275" cy="83.1226" fill="#FFFFFF" rx="7.9164" ry="7.9164" style="stroke:#000000;stroke-width:0.8796;"/><path d="M244.9388,88.0841 Q244.4303,88.3452 243.8668,88.4689 Q243.3033,88.6064 242.6848,88.6064 Q240.4858,88.6064 239.3176,87.1633 Q238.1631,85.7064 238.1631,82.9577 Q238.1631,80.2089 239.3176,78.7521 Q240.4858,77.2952 242.6848,77.2952 Q243.3033,77.2952 243.8668,77.4327 Q244.444,77.5701 244.9388,77.8312 L244.9388,80.2226 Q244.389,79.7141 243.8668,79.4805 Q243.3445,79.2331 242.7948,79.2331 Q241.6128,79.2331 241.0081,80.1814 Q240.4033,81.116 240.4033,82.9577 Q240.4033,84.7993 241.0081,85.7477 Q241.6128,86.6822 242.7948,86.6822 Q243.3445,86.6822 243.8668,86.4486 Q244.389,86.2012 244.9388,85.6927 L244.9388,88.0841 Z " fill="#000000"/><text fill="#000000" font-family="Verdana" font-size="12.3145" lengthAdjust="spacing" textLength="63.5205" x="254.6412" y="87.3858">TC8 Client</text><line style="stroke:#000000;stroke-width:0.8796;" x1="223.8593" x2="327.8338" y1="95.4371" y2="95.4371"/><text fill="#000000" font-family="Verdana" font-size="12.3145" lengthAdjust="spacing" textLength="95.1785" x="228.2573" y="110.386">mw::com Proxy</text><text fill="#000000" font-family="Verdana" font-size="12.3145" lengthAdjust="spacing" textLength="94.932" x="228.2573" y="124.7208">subscribe, read</text><line style="stroke:#000000;stroke-width:0.8796;" x1="223.8593" x2="327.8338" y1="131.1435" y2="131.1435"/></g><!--class json--><g id="elem_json"><rect codeLine="16" fill="#FFFFFF" height="53.0374" id="json" rx="2.199" ry="2.199" style="stroke:#000000;stroke-width:0.8796;" width="207.8572" x="551.9516" y="78.2848"/><ellipse cx="639.9936" cy="90.5992" fill="#FFFFFF" rx="7.9164" ry="7.9164" style="stroke:#000000;stroke-width:0.8796;"/><path d="M642.605,95.5607 Q642.0964,95.8219 641.533,95.9456 Q640.9695,96.083 640.351,96.083 Q638.152,96.083 636.9837,94.6399 Q635.8293,93.1831 635.8293,90.4343 Q635.8293,87.6855 636.9837,86.2287 Q638.152,84.7719 640.351,84.7719 Q640.9695,84.7719 641.533,84.9093 Q642.1102,85.0467 642.605,85.3079 L642.605,87.6993 Q642.0552,87.1908 641.533,86.9571 Q641.0107,86.7097 640.4609,86.7097 Q639.279,86.7097 638.6742,87.6581 Q638.0695,88.5926 638.0695,90.4343 Q638.0695,92.276 638.6742,93.2243 Q639.279,94.1589 640.4609,94.1589 Q641.0107,94.1589 641.533,93.9252 Q642.0552,93.6778 642.605,93.1693 L642.605,95.5607 Z " fill="#000000"/><text fill="#000000" font-family="Verdana" font-size="12.3145" lengthAdjust="spacing" textLength="25.1761" x="655.3867" y="94.8624">json</text><line style="stroke:#000000;stroke-width:0.8796;" x1="552.8312" x2="758.9292" y1="102.9137" y2="102.9137"/><text fill="#000000" font-family="Verdana" font-size="12.3145" lengthAdjust="spacing" textLength="197.3019" x="557.2292" y="117.8627">binding: &lt;stack A&gt; | &lt;stack B&gt;</text><line style="stroke:#000000;stroke-width:0.8796;" x1="552.8312" x2="758.9292" y1="124.2853" y2="124.2853"/></g><!--class json--><g id="elem_json"><rect codeLine="19" fill="#FFFFFF" height="53.0374" id="json" rx="2.199" ry="2.199" style="stroke:#000000;stroke-width:0.8796;" width="102.8536" x="399.3403" y="78.2848"/><ellipse cx="434.8805" cy="90.5992" fill="#FFFFFF" rx="7.9164" ry="7.9164" style="stroke:#000000;stroke-width:0.8796;"/><path d="M437.4918,95.5607 Q436.9833,95.8219 436.4198,95.9456 Q435.8563,96.083 435.2379,96.083 Q433.0388,96.083 431.8706,94.6399 Q430.7161,93.1831 430.7161,90.4343 Q430.7161,87.6855 431.8706,86.2287 Q433.0388,84.7719 435.2379,84.7719 Q435.8563,84.7719 436.4198,84.9093 Q436.9971,85.0467 437.4918,85.3079 L437.4918,87.6993 Q436.9421,87.1908 436.4198,86.9571 Q435.8976,86.7097 435.3478,86.7097 Q434.1658,86.7097 433.5611,87.6581 Q432.9564,88.5926 432.9564,90.4343 Q432.9564,92.276 433.5611,93.2243 Q434.1658,94.1589 435.3478,94.1589 Q435.8976,94.1589 436.4198,93.9252 Q436.9421,93.6778 437.4918,93.1693 L437.4918,95.5607 Z " fill="#000000"/><text fill="#000000" font-family="Verdana" font-size="12.3145" lengthAdjust="spacing" textLength="25.1761" x="450.2736" y="94.8624">json</text><line style="stroke:#000000;stroke-width:0.8796;" x1="400.2199" x2="501.3143" y1="102.9137" y2="102.9137"/><text fill="#000000" font-family="Verdana" font-size="12.3145" lengthAdjust="spacing" textLength="92.2983" x="404.6179" y="117.8627">service routing</text><line style="stroke:#000000;stroke-width:0.8796;" x1="400.2199" x2="501.3143" y1="124.2853" y2="124.2853"/></g><!--class vS--><g id="elem_vS"><rect codeLine="25" fill="#FFFFFF" height="51.5393" id="vS" rx="2.199" ry="2.199" style="stroke:#000000;stroke-width:0.8796;" width="80.6693" x="157.8889" y="369.8736"/><ellipse cx="169.3238" cy="388.6064" fill="#FFFFFF" rx="7.9164" ry="7.9164" style="stroke:#000000;stroke-width:0.8796;"/><path d="M171.9351,393.5679 Q171.4266,393.829 170.8631,393.9527 Q170.2996,394.0902 169.6811,394.0902 Q167.4821,394.0902 166.3139,392.6471 Q165.1594,391.1902 165.1594,388.4415 Q165.1594,385.6927 166.3139,384.2358 Q167.4821,382.779 169.6811,382.779 Q170.2996,382.779 170.8631,382.9164 Q171.4404,383.0539 171.9351,383.315 L171.9351,385.7064 Q171.3854,385.1979 170.8631,384.9643 Q170.3408,384.7169 169.7911,384.7169 Q168.6091,384.7169 168.0044,385.6652 Q167.3997,386.5998 167.3997,388.4415 Q167.3997,390.2831 168.0044,391.2314 Q168.6091,392.166 169.7911,392.166 Q170.3408,392.166 170.8631,391.9324 Q171.3854,391.685 171.9351,391.1765 L171.9351,393.5679 Z " fill="#000000"/><text fill="#000000" font-family="Verdana" font-size="12.3145" lengthAdjust="spacing" textLength="52.577" x="181.6108" y="385.7021">someipd</text><text fill="#000000" font-family="Verdana" font-size="12.3145" lengthAdjust="spacing" textLength="56.0404" x="179.8791" y="400.0369">(Stack A)</text><line style="stroke:#000000;stroke-width:0.8796;" x1="158.7686" x2="237.6787" y1="407.3392" y2="407.3392"/><line style="stroke:#000000;stroke-width:0.8796;" x1="158.7686" x2="237.6787" y1="414.376" y2="414.376"/></g><!--class eS--><g id="elem_eS"><rect codeLine="26" fill="#FFFFFF" height="51.5393" id="eS" rx="2.199" ry="2.199" style="stroke:#000000;stroke-width:0.8796;" width="80.6934" x="269.5987" y="369.8736"/><ellipse cx="281.0335" cy="388.6064" fill="#FFFFFF" rx="7.9164" ry="7.9164" style="stroke:#000000;stroke-width:0.8796;"/><path d="M283.6449,393.5679 Q283.1363,393.829 282.5728,393.9527 Q282.0093,394.0902 281.3909,394.0902 Q279.1919,394.0902 278.0236,392.6471 Q276.8692,391.1902 276.8692,388.4415 Q276.8692,385.6927 278.0236,384.2358 Q279.1919,382.779 281.3909,382.779 Q282.0093,382.779 282.5728,382.9164 Q283.1501,383.0539 283.6449,383.315 L283.6449,385.7064 Q283.0951,385.1979 282.5728,384.9643 Q282.0506,384.7169 281.5008,384.7169 Q280.3189,384.7169 279.7141,385.6652 Q279.1094,386.5998 279.1094,388.4415 Q279.1094,390.2831 279.7141,391.2314 Q280.3189,392.166 281.5008,392.166 Q282.0506,392.166 282.5728,391.9324 Q283.0951,391.685 283.6449,391.1765 L283.6449,393.5679 Z " fill="#000000"/><text fill="#000000" font-family="Verdana" font-size="12.3145" lengthAdjust="spacing" textLength="52.577" x="293.3325" y="385.7021">someipd</text><text fill="#000000" font-family="Verdana" font-size="12.3145" lengthAdjust="spacing" textLength="56.0645" x="291.5888" y="400.0369">(Stack B)</text><line style="stroke:#000000;stroke-width:0.8796;" x1="270.4783" x2="349.4125" y1="407.3392" y2="407.3392"/><line style="stroke:#000000;stroke-width:0.8796;" x1="270.4783" x2="349.4125" y1="414.376" y2="414.376"/></g><!--class json--><g id="elem_json"><rect fill="#FFFFFF" height="38.7026" id="json" rx="2.199" ry="2.199" style="stroke:#000000;stroke-width:0.8796;" width="49.805" x="232.2155" y="240.1319"/><ellipse cx="243.6504" cy="252.4464" fill="#FFFFFF" rx="7.9164" ry="7.9164" style="stroke:#000000;stroke-width:0.8796;"/><path d="M246.2617,257.4079 Q245.7532,257.669 245.1897,257.7927 Q244.6262,257.9302 244.0077,257.9302 Q241.8087,257.9302 240.6405,256.4871 Q239.486,255.0302 239.486,252.2815 Q239.486,249.5327 240.6405,248.0759 Q241.8087,246.619 244.0077,246.619 Q244.6262,246.619 245.1897,246.7565 Q245.7669,246.8939 246.2617,247.155 L246.2617,249.5465 Q245.7119,249.0379 245.1897,248.8043 Q244.6674,248.5569 244.1176,248.5569 Q242.9357,248.5569 242.331,249.5052 Q241.7262,250.4398 241.7262,252.2815 Q241.7262,254.1231 242.331,255.0715 Q242.9357,256.006 244.1176,256.006 Q244.6674,256.006 245.1897,255.7724 Q245.7119,255.525 246.2617,255.0165 L246.2617,257.4079 Z " fill="#000000"/><text fill="#000000" font-family="Verdana" font-size="12.3145" lengthAdjust="spacing" textLength="25.1761" x="254.2056" y="256.7096">json</text><line style="stroke:#000000;stroke-width:0.8796;" x1="233.0951" x2="281.1409" y1="264.7609" y2="264.7609"/><line style="stroke:#000000;stroke-width:0.8796;" x1="233.0951" x2="281.1409" y1="271.7977" y2="271.7977"/></g><g id="elem_GMN19"><path d="M9.6756,235.2941 L9.6756,284.0228 A0,0 0 0 0 9.6756,284.0228 L182.8473,284.0228 A0,0 0 0 0 182.8473,284.0228 L182.8473,244.0902 L174.0512,235.2941 L104.9544,235.2941 L122.4849,138.7664 L97.9175,235.2941 L9.6756,235.2941 A0,0 0 0 0 9.6756,235.2941 " fill="#FFFFFF" style="stroke:#000000;stroke-width:0.8796;"/><path d="M174.0512,235.2941 L174.0512,244.0902 L182.8473,244.0902 L174.0512,235.2941 " fill="#FFFFFF" style="stroke:#000000;stroke-width:0.8796;"/><text fill="#000000" font-family="Verdana" font-size="11.4349" lengthAdjust="spacing" textLength="154.7" x="14.9533" y="250.3062">Swapping stacks = change</text><text fill="#000000" font-family="Verdana" font-size="11.4349" lengthAdjust="spacing" textLength="66.4483" x="14.9533" y="263.6171">config only.</text><text fill="#000000" font-family="Verdana" font-size="11.4349" lengthAdjust="spacing" textLength="113.0867" x="14.9533" y="276.928">Zero code changes.</text></g><!--link TC8 Service to json--><g id="link_TC8 Service_json"><path codeLine="29" d="M134.7466,138.7048 C139.3733,157.9505 148.1957,181.1105 164.9258,195.2721 C176.519,205.0797 184.9192,195.2281 198.3507,202.309 C215.8725,211.5448 228.3991,223.5295 239.2886,236.0991 " fill="transparent" id="TC8 Service-to-json" style="stroke:#000000;stroke-width:0.8796;stroke-dasharray:7.0,7.0;"/><polygon fill="#000000" points="242.7444,240.088,240.22,231.8008,239.8646,236.7639,234.9015,236.4085,242.7444,240.088" style="stroke:#000000;stroke-width:0.8796;"/><text fill="#000000" font-family="Verdana" font-size="11.4349" lengthAdjust="spacing" textLength="91.8585" x="165.8054" y="191.8126">reads at startup</text></g><!--link TC8 Client to json--><g id="link_TC8 Client_json"><path codeLine="30" d="M271.7449,138.7664 C268.0154,169.7108 263.2121,209.507 260.1775,234.6373 " fill="transparent" id="TC8 Client-to-json" style="stroke:#000000;stroke-width:0.8796;stroke-dasharray:7.0,7.0;"/><polygon fill="#000000" points="259.5448,239.8769,263.9869,232.4393,260.0721,235.5106,257.0008,231.5957,259.5448,239.8769" style="stroke:#000000;stroke-width:0.8796;"/><text fill="#000000" font-family="Verdana" font-size="11.4349" lengthAdjust="spacing" textLength="91.8585" x="266.9599" y="191.8126">reads at startup</text></g><!--link json to vS--><g id="link_json_vS"><path codeLine="31" d="M241.7768,278.9929 C234.9599,287.9384 227.3249,299.083 222.1001,310.0605 C213.0225,329.1303 207.9561,347.143 204.1738,364.4624 " fill="transparent" id="json-to-vS" style="stroke:#000000;stroke-width:0.8796;stroke-dasharray:7.0,7.0;"/><polygon fill="#000000" points="203.0478,369.6185,208.1743,362.635,203.9862,365.3217,201.2994,361.1336,203.0478,369.6185" style="stroke:#000000;stroke-width:0.8796;"/><text fill="#000000" font-family="Verdana" font-size="11.4349" lengthAdjust="spacing" textLength="46.013" x="222.9797" y="321.5542">binds to</text></g><!--link json to eS--><g id="link_json_eS"><path codeLine="32" d="M264.6201,279.072 C273.8824,302.6894 287.9191,338.4934 298.2545,364.8288 " fill="transparent" id="json-to-eS" style="stroke:#000000;stroke-width:0.8796;stroke-dasharray:7.0,7.0;"/><polygon fill="#000000" points="300.1825,369.7416,300.5657,361.087,298.5758,365.6476,294.0152,363.6577,300.1825,369.7416" style="stroke:#000000;stroke-width:0.8796;"/><text fill="#000000" font-family="Verdana" font-size="11.4349" lengthAdjust="spacing" textLength="61.3451" x="282.7927" y="321.5542">or binds to</text></g><!--SRC=[bPBDJeD058NtFCMrgvfKqcL3j8cj3s34bJ5fXk52nyuFuGxGHllkte4qIcqNBaZWpCUPCsVkZT-YGQYqK3OYAJI24NjOpEVGgTnlewWISYTAXCahaeUron6cv5cy4wLrv9MydS1d122r869ilO0KwrP977G0qoM9T0RI7MhqplOYjcWzpQ1Gg7DYwJZsM6l5mBd5S-tsXrwX9YDPgmndKAF8UuFZhxXFM6btCEp1eMsXobDigb2guZoswJRipqz0umzozhHrfcokR9d0VVy_F2xXw_I-Mew3apEegas_E3AXeH6eNUFPx4_QbyPwPKArdQWgaMaSnnkCytSxJOSGl2m8slGwiXeGJCD6usk9u-Nb4oTzbmJ20v-XzaqLZIxZNpzUue91cp8UMYNmxZg60NFr3nbPvn4ovpqFWYl6eyOzfA4wBXVw-WaUG6w5BJ5KD4o0i_eGy-SRreur7kM1e3X2cqFm_mO0]--></g></svg>