<svg xmlns="http://www.w3.org/2000/svg" xmlns:xlink="http://www.w3.org/1999/xlink" contentStyleType="text/css" data-diagram-type="CLASS" height="282px" preserveAspectRatio="none" style="width:835px;height:282px;background:#FFFFFF;" version="1.1" viewBox="0 0 835 282" width="835px" zoomAndPan="magnify"><defs/><g><!--class ETS--><g id="elem_ETS"><rect codeLine="4" fill="#FFFFFF" height="92.8906" id="ETS" rx="2.5" ry="2.5" style="stroke:#000000;stroke-width:1;" width="230.7402" x="12" y="174"/><ellipse cx="25" cy="188" fill="#FFFFFF" rx="9" ry="9" style="stroke:#000000;stroke-width:1;"/><path d="M27.9688,193.6406 Q27.3906,193.9375 26.75,194.0781 Q26.1094,194.2344 25.4063,194.2344 Q22.9063,194.2344 21.5781,192.5938 Q20.2656,190.9375 20.2656,187.8125 Q20.2656,184.6875 21.5781,183.0313 Q22.9063,181.375 25.4063,181.375 Q26.1094,181.375 26.75,181.5313 Q27.4063,181.6875 27.9688,181.9844 L27.9688,184.7031 Q27.3438,184.125 26.75,183.8594 Q26.1563,183.5781 25.5313,183.5781 Q24.1875,183.5781 23.5,184.6563 Q22.8125,185.7188 22.8125,187.8125 Q22.8125,189.9063 23.5,190.9844 Q24.1875,192.0469 25.5313,192.0469 Q26.1563,192.0469 26.75,191.7813 Q27.3438,191.5 27.9688,190.9219 L27.9688,193.6406 Z " fill="#000000"/><text fill="#000000" font-family="Verdana" font-size="14" lengthAdjust="spacing" textLength="202.7402" x="37" y="192.8467">Enhanced Testability Service</text><line style="stroke:#000000;stroke-width:1;" x1="13" x2="241.7402" y1="202" y2="202"/><text fill="#000000" font-family="Verdana" font-size="14" lengthAdjust="spacing" textLength="129.9102" x="18" y="218.9951">mw::com Skeleton</text><line style="stroke:#000000;stroke-width:1;" x1="13" x2="241.7402" y1="226.2969" y2="226.2969"/><text fill="#000000" font-family="Verdana" font-size="14" lengthAdjust="spacing" textLength="138.708" x="18" y="243.292">+offer_tc8_events()</text><text fill="#000000" font-family="Verdana" font-size="14" lengthAdjust="spacing" textLength="129.042" x="18" y="259.5889">+offer_tc8_fields()</text></g><!--class ETC--><g id="elem_ETC"><rect codeLine="11" fill="#FFFFFF" height="109.1875" id="ETC" rx="2.5" ry="2.5" style="stroke:#000000;stroke-width:1;" width="219.5293" x="278.5" y="166"/><ellipse cx="291.5" cy="180" fill="#FFFFFF" rx="9" ry="9" style="stroke:#000000;stroke-width:1;"/><path d="M294.4688,185.6406 Q293.8906,185.9375 293.25,186.0781 Q292.6094,186.2344 291.9063,186.2344 Q289.4063,186.2344 288.0781,184.5938 Q286.7656,182.9375 286.7656,179.8125 Q286.7656,176.6875 288.0781,175.0313 Q289.4063,173.375 291.9063,173.375 Q292.6094,173.375 293.25,173.5313 Q293.9063,173.6875 294.4688,173.9844 L294.4688,176.7031 Q293.8438,176.125 293.25,175.8594 Q292.6563,175.5781 292.0313,175.5781 Q290.6875,175.5781 290,176.6563 Q289.3125,177.7188 289.3125,179.8125 Q289.3125,181.9063 290,182.9844 Q290.6875,184.0469 292.0313,184.0469 Q292.6563,184.0469 293.25,183.7813 Q293.8438,183.5 294.4688,182.9219 L294.4688,185.6406 Z " fill="#000000"/><text fill="#000000" font-family="Verdana" font-size="14" lengthAdjust="spacing" textLength="191.5293" x="303.5" y="184.8467">Enhanced Testability Client</text><line style="stroke:#000000;stroke-width:1;" x1="279.5" x2="497.0293" y1="194" y2="194"/><text fill="#000000" font-family="Verdana" font-size="14" lengthAdjust="spacing" textLength="108.2061" x="284.5" y="210.9951">mw::com Proxy</text><line style="stroke:#000000;stroke-width:1;" x1="279.5" x2="497.0293" y1="218.2969" y2="218.2969"/><text fill="#000000" font-family="Verdana" font-size="14" lengthAdjust="spacing" textLength="144.0127" x="284.5" y="235.292">+subscribe_events()</text><text fill="#000000" font-family="Verdana" font-size="14" lengthAdjust="spacing" textLength="98.9912" x="284.5" y="251.5889">+read_fields()</text><text fill="#000000" font-family="Verdana" font-size="14" lengthAdjust="spacing" textLength="160.4941" x="284.5" y="267.8857">+validate_tc8_values()</text></g><!--class TO--><g id="elem_TO"><rect codeLine="19" fill="#FFFFFF" height="76.5938" id="TO" rx="2.5" ry="2.5" style="stroke:#000000;stroke-width:1;" width="187.1367" x="295" y="12"/><ellipse cx="324.1328" cy="26" fill="#FFFFFF" rx="9" ry="9" style="stroke:#000000;stroke-width:1;"/><path d="M327.1015,31.6406 Q326.5234,31.9375 325.8828,32.0781 Q325.2421,32.2344 324.539,32.2344 Q322.039,32.2344 320.7109,30.5938 Q319.3984,28.9375 319.3984,25.8125 Q319.3984,22.6875 320.7109,21.0313 Q322.039,19.375 324.539,19.375 Q325.2421,19.375 325.8828,19.5313 Q326.539,19.6875 327.1015,19.9844 L327.1015,22.7031 Q326.4765,22.125 325.8828,21.8594 Q325.289,21.5781 324.664,21.5781 Q323.3203,21.5781 322.6328,22.6563 Q321.9453,23.7188 321.9453,25.8125 Q321.9453,27.9063 322.6328,28.9844 Q323.3203,30.0469 324.664,30.0469 Q325.289,30.0469 325.8828,29.7813 Q326.4765,29.5 327.1015,28.9219 L327.1015,31.6406 Z " fill="#000000"/><text fill="#000000" font-family="Verdana" font-size="14" lengthAdjust="spacing" textLength="123.2861" x="339.7178" y="30.8467">Test Orchestrator</text><line style="stroke:#000000;stroke-width:1;" x1="296" x2="481.1367" y1="40" y2="40"/><text fill="#000000" font-family="Verdana" font-size="14" lengthAdjust="spacing" textLength="44.0576" x="301" y="56.9951">pytest</text><line style="stroke:#000000;stroke-width:1;" x1="296" x2="481.1367" y1="64.2969" y2="64.2969"/><text fill="#000000" font-family="Verdana" font-size="14" lengthAdjust="spacing" textLength="175.1367" x="301" y="81.292">+run_end_to_end_tests()</text></g><!--class PO--><g id="elem_PO"><rect codeLine="25" fill="#FFFFFF" height="109.1875" id="PO" rx="2.5" ry="2.5" style="stroke:#000000;stroke-width:1;" width="294.5635" x="534" y="166"/><ellipse cx="604.0317" cy="180" fill="#FFFFFF" rx="9" ry="9" style="stroke:#000000;stroke-width:1;"/><path d="M607.0005,185.6406 Q606.4224,185.9375 605.7817,186.0781 Q605.1411,186.2344 604.438,186.2344 Q601.938,186.2344 600.6099,184.5938 Q599.2974,182.9375 599.2974,179.8125 Q599.2974,176.6875 600.6099,175.0313 Q601.938,173.375 604.438,173.375 Q605.1411,173.375 605.7817,173.5313 Q606.438,173.6875 607.0005,173.9844 L607.0005,176.7031 Q606.3755,176.125 605.7817,175.8594 Q605.188,175.5781 604.563,175.5781 Q603.2192,175.5781 602.5317,176.6563 Q601.8442,177.7188 601.8442,179.8125 Q601.8442,181.9063 602.5317,182.9844 Q603.2192,184.0469 604.563,184.0469 Q605.188,184.0469 605.7817,183.7813 Q606.3755,183.5 607.0005,182.9219 L607.0005,185.6406 Z " fill="#000000"/><text fill="#000000" font-family="Verdana" font-size="14" lengthAdjust="spacing" textLength="147" x="621.5317" y="184.8467">Process Orchestrator</text><line style="stroke:#000000;stroke-width:1;" x1="535" x2="827.5635" y1="194" y2="194"/><text fill="#000000" font-family="Verdana" font-size="14" lengthAdjust="spacing" textLength="44.6318" x="540" y="210.9951">helper</text><line style="stroke:#000000;stroke-width:1;" x1="535" x2="827.5635" y1="218.2969" y2="218.2969"/><text fill="#000000" font-family="Verdana" font-size="14" lengthAdjust="spacing" textLength="167.8018" x="540" y="235.292">+start_stack(config_dir)</text><text fill="#000000" font-family="Verdana" font-size="14" lengthAdjust="spacing" textLength="144.7715" x="540" y="251.5889">+stop_stack(handle)</text><text fill="#000000" font-family="Verdana" font-size="14" lengthAdjust="spacing" textLength="282.5635" x="540" y="267.8857">+wait_service_available(name, timeout)</text></g><!--link TO to ETS--><g id="link_TO_ETS"><path codeLine="33" d="M329.93,89.2 C291,114.26 244.7055,144.063 203.4655,170.603 " fill="transparent" id="TO-to-ETS" style="stroke:#000000;stroke-width:1;"/><polygon fill="#000000" points="198.42,173.85,208.1529,172.3431,202.6246,171.1442,203.8235,165.6158,198.42,173.85" style="stroke:#000000;stroke-width:1;"/><text fill="#000000" font-family="Verdana" font-size="13" lengthAdjust="spacing" textLength="84.5444" x="282.5" y="132.0669">starts / stops</text></g><!--link TO to ETC--><g id="link_TO_ETC"><path codeLine="34" d="M388.5,89.2 C388.5,111.84 388.5,135 388.5,160 " fill="transparent" id="TO-to-ETC" style="stroke:#000000;stroke-width:1;"/><polygon fill="#000000" points="388.5,166,392.5,157,388.5,161,384.5,157,388.5,166" style="stroke:#000000;stroke-width:1;"/><text fill="#000000" font-family="Verdana" font-size="13" lengthAdjust="spacing" textLength="84.5444" x="389.5" y="132.0669">starts / stops</text></g><!--link TO to PO--><g id="link_TO_PO"><path codeLine="35" d="M454.25,89.2 C493.74,111.84 539.3953,138.0149 582.9853,163.0149 " fill="transparent" id="TO-to-PO" style="stroke:#000000;stroke-width:1;"/><polygon fill="#000000" points="588.19,166,582.3729,158.0526,583.8527,163.5125,578.3928,164.9922,588.19,166" style="stroke:#000000;stroke-width:1;"/><text fill="#000000" font-family="Verdana" font-size="13" lengthAdjust="spacing" textLength="29.7832" x="536.5" y="132.0669">uses</text></g><!--SRC=[VP4_QyCm4CLtVufhfeJMj6FnK2WXGwS4dDsSfNCj8aj6EZjDIxzxBt98C8Ki-lEUTBydtGEtr17q5etBui6u7WDse2p6-CuSJ3qmVIZlIlDDy99boO75nhNe56dOKsIiZJLyWfB2Q1Gj02DizYNyP03TiIYKxw0ya2NsJgGyb-7HDms5YjLhHICvZilLN6qCMNrMV-z3rzR8zGjpFMFkWlywNO5ngAEI1z4C60ZrZIN2YDPeP4eXP3FGFCIP3TkWMfa3iWy9lTycSdzYaQ_8CBYAdAxOJvDuysAIK94i_jNRJVLQiZs5snCO0rSogiDIUjAOpqgRi9eitryS-IHjAQb7D79-Qak58ngBjQMbmuwUW4r7Vk2KH_BdsXzT_fOwLq12HNY6S-4uzzTtVObUm10f_W40]--></g></svg>