<svg xmlns="http://www.w3.org/2000/svg" xmlns:xlink="http://www.w3.org/1999/xlink" contentStyleType="text/css" data-diagram-type="DESCRIPTION" height="845px" preserveAspectRatio="none" style="width:698px;height:845px;background:#FFFFFF;" version="1.1" viewBox="0 0 698 845" width="698px" zoomAndPan="magnify"><defs/><g><!--cluster S-CORE Requirement Hierarchy--><g id="cluster_S-CORE Requirement Hierarchy"><rect fill="#FFFFFF" height="507" rx="2.5" ry="2.5" style="stroke:#000000;stroke-width:1;" width="420" x="12" y="12"/><text fill="#000000" font-family="Verdana" font-size="14" font-weight="bold" lengthAdjust="spacing" textLength="247.0234" x="98.4883" y="26.9951">S-CORE Requirement Hierarchy</text></g><!--cluster STKH--><g id="cluster_STKH"><rect fill="#B1DDF0" height="120" rx="2.5" ry="2.5" style="stroke:#000000;stroke-width:1;" width="316" x="54" y="55"/><text fill="#000000" font-family="Verdana" font-size="14" font-weight="bold" lengthAdjust="spacing" textLength="202.9111" x="110.5444" y="69.9951">Stakeholder Requirement</text><text fill="#000000" font-family="Verdana" font-size="14" font-weight="bold" lengthAdjust="spacing" textLength="80.5205" x="171.7397" y="86.292">(stkh_req)</text></g><!--cluster FEAT--><g id="cluster_FEAT"><rect fill="#FFF2CC" height="120" rx="2.5" ry="2.5" style="stroke:#000000;stroke-width:1;" width="352" x="36" y="199"/><text fill="#000000" font-family="Verdana" font-size="14" font-weight="bold" lengthAdjust="spacing" textLength="168.6426" x="127.6787" y="213.9951">Feature Requirement</text><text fill="#000000" font-family="Verdana" font-size="14" font-weight="bold" lengthAdjust="spacing" textLength="77.9434" x="173.0283" y="230.292">(feat_req)</text></g><!--cluster COMP--><g id="cluster_COMP"><rect fill="#D5E8D4" height="136" rx="2.5" ry="2.5" style="stroke:#000000;stroke-width:1;" width="356" x="44" y="351"/><text fill="#000000" font-family="Verdana" font-size="14" font-weight="bold" lengthAdjust="spacing" textLength="205.6523" x="119.1738" y="365.9951">Component Requirements</text><text fill="#000000" font-family="Verdana" font-size="14" font-weight="bold" lengthAdjust="spacing" textLength="88.7441" x="177.6279" y="382.292">(comp_req)</text></g><!--cluster Test Implementation--><g id="cluster_Test Implementation"><rect fill="#FFFFFF" height="120" rx="2.5" ry="2.5" style="stroke:#000000;stroke-width:1;" width="268" x="71" y="719"/><text fill="#000000" font-family="Verdana" font-size="14" font-weight="bold" lengthAdjust="spacing" textLength="164.3223" x="122.8389" y="733.9951">Test Implementation</text></g><!--cluster TC8 Conformance Docs--><g id="cluster_TC8 Conformance Docs"><rect fill="#FFFFFF" height="152" rx="2.5" ry="2.5" style="stroke:#000000;stroke-width:1;" width="406" x="286" y="543"/><text fill="#000000" font-family="Verdana" font-size="14" font-weight="bold" lengthAdjust="spacing" textLength="181.4531" x="398.2734" y="557.9951">TC8 Conformance Docs</text></g><!--cluster External Standard--><g id="cluster_External Standard"><rect fill="#FFFFFF" height="120" rx="2.5" ry="2.5" style="stroke:#000000;stroke-width:1;" width="258" x="363" y="719"/><text fill="#000000" font-family="Verdana" font-size="14" font-weight="bold" lengthAdjust="spacing" textLength="143.3564" x="420.3218" y="733.9951">External Standard</text></g><!--entity SReq--><g id="elem_SReq"><rect fill="#FFFFFF" height="52.5938" rx="2.5" ry="2.5" style="stroke:#000000;stroke-width:1;" width="283.3887" x="70.5" y="106"/><text fill="#000000" font-family="Verdana" font-size="14" lengthAdjust="spacing" textLength="263.3887" x="80.5" y="128.9951">stkh_req__docgen_enabled__example</text><text fill="#000000" font-family="Verdana" font-size="14" font-style="italic" lengthAdjust="spacing" textLength="221.7578" x="80.5" y="145.292">High-level interoperability need</text></g><!--entity FReq--><g id="elem_FReq"><rect fill="#FFFFFF" height="52.5938" rx="2.5" ry="2.5" style="stroke:#000000;stroke-width:1;" width="318.5322" x="52.5" y="250"/><text fill="#000000" font-family="Verdana" font-size="14" lengthAdjust="spacing" textLength="298.5322" x="62.5" y="272.9951">feat_req__tc8_conformance__conformance</text><text fill="#000000" font-family="Verdana" font-size="14" font-style="italic" lengthAdjust="spacing" textLength="247.9053" x="62.5" y="289.292">TC8 SOME/IP protocol conformance</text></g><!--entity CReq--><g id="elem_CReq"><rect fill="#FFFFFF" height="52.5938" rx="2.5" ry="2.5" style="stroke:#000000;stroke-width:1;" width="274.1533" x="68" y="410"/><text fill="#000000" font-family="Verdana" font-size="14" lengthAdjust="spacing" textLength="224.9229" x="78" y="432.9951">comp_req__tc8_conformance__*</text><text fill="#000000" font-family="Verdana" font-size="14" font-style="italic" lengthAdjust="spacing" textLength="254.1533" x="78" y="449.292">One per testable protocol behaviour</text></g><!--entity Tests--><g id="elem_Tests"><rect fill="#F5F5F5" height="64.8906" rx="2.5" ry="2.5" style="stroke:#000000;stroke-width:1;" width="231.585" x="91" y="758"/><rect fill="#F5F5F5" height="64.8906" rx="2.5" ry="2.5" style="stroke:#000000;stroke-width:1;" width="231.585" x="87" y="754"/><text fill="#000000" font-family="Verdana" font-size="14" font-weight="bold" lengthAdjust="spacing" textLength="215.585" x="95" y="774.9951">tests/tc8_conformance/*.py</text><text fill="#000000" font-family="Verdana" font-size="14" lengthAdjust="spacing" textLength="148.7979" x="95" y="791.292">Python test functions</text><text fill="#000000" font-family="Verdana" font-size="14" lengthAdjust="spacing" textLength="163.9668" x="95" y="807.5889">(pytest + raw SOME/IP)</text></g><!--entity TestSpec--><g id="elem_TestSpec"><path d="M490,588.5 L490,668.6875 A2.5,2.5 0 0 0 492.5,671.1875 L673.6201,671.1875 A2.5,2.5 0 0 0 676.1201,668.6875 L676.1201,596 L666.1201,586 L492.5,586 A2.5,2.5 0 0 0 490,588.5 " fill="#F5F5F5" style="stroke:#000000;stroke-width:1;"/><path d="M666.1201,586 L666.1201,593.5 A2.5,2.5 0 0 0 668.6201,596 L676.1201,596 " fill="#F5F5F5" style="stroke:#000000;stroke-width:1;"/><text fill="#000000" font-family="Verdana" font-size="14" font-weight="bold" lengthAdjust="spacing" textLength="166.1201" x="500" y="608.9951">test_specification.rst</text><text fill="#000000" font-family="Verdana" font-size="14" lengthAdjust="spacing" textLength="138.7217" x="500" y="625.292">Detailed test cases:</text><text fill="#000000" font-family="Verdana" font-size="14" lengthAdjust="spacing" textLength="117.1885" x="500" y="641.5889">purpose, stimuli,</text><text fill="#000000" font-family="Verdana" font-size="14" lengthAdjust="spacing" textLength="116.7441" x="500" y="657.8857">expected results</text></g><!--entity Trace--><g id="elem_Trace"><path d="M302,580.5 L302,676.9844 A2.5,2.5 0 0 0 304.5,679.4844 L437.2695,679.4844 A2.5,2.5 0 0 0 439.7695,676.9844 L439.7695,588 L429.7695,578 L304.5,578 A2.5,2.5 0 0 0 302,580.5 " fill="#F5F5F5" style="stroke:#000000;stroke-width:1;"/><path d="M429.7695,578 L429.7695,585.5 A2.5,2.5 0 0 0 432.2695,588 L439.7695,588 " fill="#F5F5F5" style="stroke:#000000;stroke-width:1;"/><text fill="#000000" font-family="Verdana" font-size="14" font-weight="bold" lengthAdjust="spacing" textLength="117.7695" x="312" y="600.9951">traceability.rst</text><text fill="#000000" font-family="Verdana" font-size="14" lengthAdjust="spacing" textLength="94.6709" x="312" y="617.292">OA Spec ID &#8594;</text><text fill="#000000" font-family="Verdana" font-size="14" lengthAdjust="spacing" textLength="89.7422" x="312" y="633.5889">Internal ID &#8594;</text><text fill="#000000" font-family="Verdana" font-size="14" lengthAdjust="spacing" textLength="107.1533" x="312" y="649.8857">Requirement &#8594;</text><text fill="#000000" font-family="Verdana" font-size="14" lengthAdjust="spacing" textLength="94.7119" x="312" y="666.1826">Test Function</text></g><!--entity OASpec--><g id="elem_OASpec"><rect fill="#E0E0E0" height="68.8906" rx="2.5" ry="2.5" style="stroke:#000000;stroke-width:1;" width="225.1807" x="379.5" y="754"/><text fill="#000000" font-family="Verdana" font-size="14" font-weight="bold" lengthAdjust="spacing" textLength="99.9482" x="389.5" y="776.9951">OA TC8 Spec</text><text fill="#000000" font-family="Verdana" font-size="14" lengthAdjust="spacing" textLength="150.3496" x="389.5" y="793.292">Chapter 5 &#8212; SOME/IP</text><text fill="#000000" font-family="Verdana" font-size="14" lengthAdjust="spacing" textLength="205.1807" x="389.5" y="809.5889">SOMEIPSRV_*, SOMEIP_ETS_*</text></g><!--reverse link SReq to FReq--><g id="link_SReq_FReq"><path d="M212,165.25 C212,191.11 212,224.08 212,249.9 " fill="transparent" id="SReq-backto-FReq" style="stroke:#000000;stroke-width:1;"/><polygon fill="#000000" points="212,159.25,208,168.25,212,164.25,216,168.25,212,159.25" style="stroke:#000000;stroke-width:1;"/><text fill="#000000" font-family="Verdana" font-size="13" lengthAdjust="spacing" textLength="69.0879" x="142" y="200.6369">&#171;satisfies&#187;</text></g><!--reverse link FReq to CReq--><g id="link_FReq_CReq"><path d="M205,309.28 C205,338.9 205,380.35 205,409.9 " fill="transparent" id="FReq-backto-CReq" style="stroke:#000000;stroke-width:1;"/><polygon fill="#000000" points="205,303.28,201,312.28,205,308.28,209,312.28,205,303.28" style="stroke:#000000;stroke-width:1;"/><text fill="#000000" font-family="Verdana" font-size="13" lengthAdjust="spacing" textLength="69.0879" x="135" y="352.6569">&#171;satisfies&#187;</text></g><!--reverse link CReq to Tests--><g id="link_CReq_Tests"><path d="M194.5,469.25 C194.5,532.22 194.5,683.79 194.5,753.91 " fill="transparent" id="CReq-backto-Tests" style="stroke:#000000;stroke-width:1;"/><polygon fill="#000000" points="194.5,463.25,190.5,472.25,194.5,468.25,198.5,472.25,194.5,463.25" style="stroke:#000000;stroke-width:1;"/><text fill="#000000" font-family="Verdana" font-size="13" lengthAdjust="spacing" textLength="63.5146" x="130.5" y="604.6469">&#171;verifies&#187;</text></g><!--reverse link COMP to TestSpec--><g id="link_COMP_TestSpec"><path d="M406.4773,437 C406.8116,437 401.6496,437 402.0005,437 C407.6145,437 415.3183,437 424.4003,437 C442.5644,437 466.2413,437 489.7375,437 C536.73,437 583,437 583,437 C583,437 583,529.58 583,586 " fill="transparent" id="COMP-backto-TestSpec" style="stroke:#000000;stroke-width:1;"/><polygon fill="#000000" points="400.4773,437,409.4773,441,405.4773,437,409.4773,433,400.4773,437" style="stroke:#000000;stroke-width:1;"/><text fill="#000000" font-family="Verdana" font-size="13" lengthAdjust="spacing" textLength="78.0571" x="483.07" y="433.0669">&#171;describes&#187;</text></g><!--reverse link COMP to Trace--><g id="link_COMP_Trace"><path d="M392,493.3105 C392,520.8118 392,550.73 392,577.83 " fill="transparent" id="COMP-backto-Trace" style="stroke:#000000;stroke-width:1;"/><polygon fill="#000000" points="392,487.3105,388,496.3105,392,492.3105,396,496.3105,392,487.3105" style="stroke:#000000;stroke-width:1;"/><text fill="#000000" font-family="Verdana" font-size="13" lengthAdjust="spacing" textLength="68.7451" x="323" y="503.5069">&#171;maps to&#187;</text></g><!--link Trace to Tests--><g id="link_Trace_Tests"><path d="M312.5,679.12 C312.5,703.48 312.5,726.05 312.5,747.88 " fill="transparent" id="Trace-to-Tests" style="stroke:#000000;stroke-width:1;"/><polygon fill="#000000" points="312.5,753.88,316.5,744.88,312.5,748.88,308.5,744.88,312.5,753.88" style="stroke:#000000;stroke-width:1;"/><text fill="#000000" font-family="Verdana" font-size="13" lengthAdjust="spacing" textLength="75.6768" x="236.5" y="712.5669">&#171;identifies&#187;</text></g><!--link Trace to OASpec--><g id="link_Trace_OASpec"><path d="M409.75,679.12 C409.75,703.48 409.75,726.05 409.75,747.88 " fill="transparent" id="Trace-to-OASpec" style="stroke:#000000;stroke-width:1;"/><polygon fill="#000000" points="409.75,753.88,413.75,744.88,409.75,748.88,405.75,744.88,409.75,753.88" style="stroke:#000000;stroke-width:1;"/><text fill="#000000" font-family="Verdana" font-size="13" lengthAdjust="spacing" textLength="85.3252" x="323.75" y="712.5669">&#171;references&#187;</text></g><!--SRC=[TPHHJzim4CVVyobky33MKTfDGq888Q7GYcf2HRJQKwN8TIx4gciRsm6gQTEUzW6cVS9zaftZfCs0AI_9tV_kVhuxvuqlSOrW91CgIHnd4c7Ddk1aE8H7aVioSIkX3BDi3ORn5Rl3cT-Go2BtJDr9x0YaKEWt1a5RN-gEG-aS7Heu7dQCbgbLOqoQrB0twwVJsn7SudqbB94f3rS2BREytEp1rmHsXM6lrvjvji9IonnjDwRNMwW3vrTbPl7-tHum1xFvvolONtx8ys9Ov_adKwlzdcMvvdUeCbHiAJ4d0pwnjP6uK8F1bRWh-n8VK89G7gqsXBOKKlWDACHyC8Yr28KgV7jEEqRcAuilI0koxqZ7euivx1T5yP7pbwIjbi0yFycuLeMsQwOuagNp5N3dwGdCfjUZmUG6ZDLUSosXesbmn__1JVNQQ1L6q05sDJ4druuudLxVm7v-Z2VvfvV4hVPLubxWd2hQG9gWH-T3rtUmIopPWz2LRL3J5lLRPsVc50QJCAC0oBpGAguAPP34GTykd2UaTuDd38FUaTc4CzriQ6TLpG15fM8O7TLiQjDxsjV7jflnsA6keqaTX-TV8cfykgi1bvgxY5I8sDkGCtC6kIW4hv6FhAktuH8z8r4UIJXpw4uNobJMQ8U7uBnOLr8SBXG-KRWdeKLNIU-sJ3EoRx4w9ItZs6nhMsnw0RLwSWb_VlvQg4dOQiNarj2zYBMXRlQuwKyi6VA-seRHKvEDhgdAcSrVkS54KAyfKGIWj6I6Wk0O_lputRPxeSBBv6Ps-oNh7KByo4RpMTQh2QONySWu34z0U0lzVf_MLjQjTQKmBbY2etiYHsvNiFeiKBR_6JXuGEjfB99-WRuK7TUx95mMw5UcVrvVSpY5ixEOHg0xFq_IdN_ycfy8wXPIYUteaxX9CIfjewAY3Q8LghRh3TJEsFTcdibsxasIS2D34lhlSYkMTPOug6U2DQFMUBrpapFY1A_8gMHBiHCq3GyAYmLQf2KFYhy0]--></g></svg>