<svg xmlns="http://www.w3.org/2000/svg" xmlns:xlink="http://www.w3.org/1999/xlink" contentStyleType="text/css" data-diagram-type="SEQUENCE" height="1320px" preserveAspectRatio="none" style="width:1898px;height:1320px;background:#FFFFFF;" version="1.1" viewBox="0 0 1898 1320" width="1898px" zoomAndPan="magnify"><title>Subscription and event flow for one bridged service</title><defs/><g><text fill="#000000" font-family="sans-serif" font-size="14" font-weight="bold" lengthAdjust="spacing" textLength="410.7031" x="739.9253" y="27.9951">Subscription and event flow for one bridged service</text><g><title>Producer app</title><rect fill="transparent" height="1179.1797" width="8" x="63.7881" y="89.8906"/><line style="stroke:#181818;stroke-width:0.5;stroke-dasharray:5.0,5.0;" x1="67" x2="67" y1="89.8906" y2="1269.0703"/></g><g><title>Provider_service_binding</title><rect fill="transparent" height="1179.1797" width="8" x="431.3232" y="89.8906"/><line style="stroke:#181818;stroke-width:0.5;stroke-dasharray:5.0,5.0;" x1="435.0591" x2="435.0591" y1="89.8906" y2="1269.0703"/></g><g><title>mw::com</title><rect fill="transparent" height="1179.1797" width="8" x="789.8384" y="89.8906"/><line style="stroke:#181818;stroke-width:0.5;stroke-dasharray:5.0,5.0;" x1="793.6274" x2="793.6274" y1="89.8906" y2="1269.0703"/></g><g><title>Consumer_service_binding</title><rect fill="transparent" height="1179.1797" width="8" x="1146.0557" y="89.8906"/><line style="stroke:#181818;stroke-width:0.5;stroke-dasharray:5.0,5.0;" x1="1149.1948" x2="1149.1948" y1="89.8906" y2="1269.0703"/></g><g><title>Consumer app</title><rect fill="transparent" height="1179.1797" width="8" x="1565.4448" y="89.8906"/><line style="stroke:#181818;stroke-width:0.5;stroke-dasharray:5.0,5.0;" x1="1568.5894" x2="1568.5894" y1="89.8906" y2="1269.0703"/></g><rect fill="#E2E2F0" height="46.5938" rx="2.5" ry="2.5" style="stroke:#181818;stroke-width:0.5;" width="125.5762" x="5" y="42.2969"/><text fill="#000000" font-family="sans-serif" font-size="14" lengthAdjust="spacing" textLength="93.3926" x="21.0918" y="62.292">Producer app</text><text fill="#000000" font-family="sans-serif" font-size="14" lengthAdjust="spacing" textLength="111.5762" x="12" y="78.5889">(SOCom server)</text><rect fill="#E2E2F0" height="46.5938" rx="2.5" ry="2.5" style="stroke:#181818;stroke-width:0.5;" width="125.5762" x="5" y="1268.0703"/><text fill="#000000" font-family="sans-serif" font-size="14" lengthAdjust="spacing" textLength="93.3926" x="21.0918" y="1288.0654">Producer app</text><text fill="#000000" font-family="sans-serif" font-size="14" lengthAdjust="spacing" textLength="111.5762" x="12" y="1304.3623">(SOCom server)</text><rect fill="#E2E2F0" height="30.2969" rx="2.5" ry="2.5" style="stroke:#181818;stroke-width:0.5;" width="188.5283" x="341.0591" y="58.5938"/><text fill="#000000" font-family="sans-serif" font-size="14" lengthAdjust="spacing" textLength="174.5283" x="348.0591" y="78.5889">Provider_service_binding</text><rect fill="#E2E2F0" height="30.2969" rx="2.5" ry="2.5" style="stroke:#181818;stroke-width:0.5;" width="188.5283" x="341.0591" y="1268.0703"/><text fill="#000000" font-family="sans-serif" font-size="14" lengthAdjust="spacing" textLength="174.5283" x="348.0591" y="1288.0654">Provider_service_binding</text><rect fill="#E2E2F0" height="46.5938" rx="2.5" ry="2.5" style="stroke:#181818;stroke-width:0.5;" width="78.4219" x="754.6274" y="42.2969"/><text fill="#000000" font-family="sans-serif" font-size="14" lengthAdjust="spacing" textLength="64.4219" x="761.6274" y="62.292">mw::com</text><text fill="#000000" font-family="sans-serif" font-size="14" lengthAdjust="spacing" textLength="43.668" x="772.0044" y="78.5889">(LoLa)</text><rect fill="#E2E2F0" height="46.5938" rx="2.5" ry="2.5" style="stroke:#181818;stroke-width:0.5;" width="78.4219" x="754.6274" y="1268.0703"/><text fill="#000000" font-family="sans-serif" font-size="14" lengthAdjust="spacing" textLength="64.4219" x="761.6274" y="1288.0654">mw::com</text><text fill="#000000" font-family="sans-serif" font-size="14" lengthAdjust="spacing" textLength="43.668" x="772.0044" y="1304.3623">(LoLa)</text><rect fill="#E2E2F0" height="30.2969" rx="2.5" ry="2.5" style="stroke:#181818;stroke-width:0.5;" width="201.7217" x="1049.1948" y="58.5938"/><text fill="#000000" font-family="sans-serif" font-size="14" lengthAdjust="spacing" textLength="187.7217" x="1056.1948" y="78.5889">Consumer_service_binding</text><rect fill="#E2E2F0" height="30.2969" rx="2.5" ry="2.5" style="stroke:#181818;stroke-width:0.5;" width="201.7217" x="1049.1948" y="1268.0703"/><text fill="#000000" font-family="sans-serif" font-size="14" lengthAdjust="spacing" textLength="187.7217" x="1056.1948" y="1288.0654">Consumer_service_binding</text><rect fill="#E2E2F0" height="46.5938" rx="2.5" ry="2.5" style="stroke:#181818;stroke-width:0.5;" width="119.7109" x="1509.5894" y="42.2969"/><text fill="#000000" font-family="sans-serif" font-size="14" lengthAdjust="spacing" textLength="102.1904" x="1518.3496" y="62.292">Consumer app</text><text fill="#000000" font-family="sans-serif" font-size="14" lengthAdjust="spacing" textLength="105.7109" x="1516.5894" y="78.5889">(SOCom client)</text><rect fill="#E2E2F0" height="46.5938" rx="2.5" ry="2.5" style="stroke:#181818;stroke-width:0.5;" width="119.7109" x="1509.5894" y="1268.0703"/><text fill="#000000" font-family="sans-serif" font-size="14" lengthAdjust="spacing" textLength="102.1904" x="1518.3496" y="1288.0654">Consumer app</text><text fill="#000000" font-family="sans-serif" font-size="14" lengthAdjust="spacing" textLength="105.7109" x="1516.5894" y="1304.3623">(SOCom client)</text><rect fill="#EEEEEE" height="3" style="stroke:#EEEEEE;stroke-width:1;" width="1891.5537" x="0" y="120.457"/><line style="stroke:#000000;stroke-width:1;" x1="0" x2="1891.5537" y1="120.457" y2="120.457"/><line style="stroke:#000000;stroke-width:1;" x1="0" x2="1891.5537" y1="123.457" y2="123.457"/><rect fill="#EEEEEE" height="23.1328" style="stroke:#000000;stroke-width:2;" width="100.8804" x="895.3367" y="109.8906"/><text fill="#000000" font-family="sans-serif" font-size="13" font-weight="bold" lengthAdjust="spacing" textLength="82.3545" x="901.3367" y="125.9575">Availability</text><polygon fill="#181818" points="423.3232,160.1563,433.3232,164.1563,423.3232,168.1563,427.3232,164.1563" style="stroke:#181818;stroke-width:1;"/><line style="stroke:#181818;stroke-width:1;" x1="67.7881" x2="429.3232" y1="164.1563" y2="164.1563"/><text fill="#000000" font-family="sans-serif" font-size="13" lengthAdjust="spacing" textLength="231.8545" x="74.7881" y="159.0903">on_service_state_change(available)</text><polygon fill="#181818" points="781.8384,189.2891,791.8384,193.2891,781.8384,197.2891,785.8384,193.2891" style="stroke:#181818;stroke-width:1;"/><line style="stroke:#181818;stroke-width:1;" x1="435.3232" x2="787.8384" y1="193.2891" y2="193.2891"/><text fill="#000000" font-family="sans-serif" font-size="13" lengthAdjust="spacing" textLength="206.7686" x="442.3232" y="188.2231">GenericSkeleton::OfferService()</text><polygon fill="#181818" points="1138.0557,218.4219,1148.0557,222.4219,1138.0557,226.4219,1142.0557,222.4219" style="stroke:#181818;stroke-width:1;"/><line style="stroke:#181818;stroke-width:1;" x1="793.8384" x2="1144.0557" y1="222.4219" y2="222.4219"/><text fill="#000000" font-family="sans-serif" font-size="13" lengthAdjust="spacing" textLength="184.1709" x="800.8384" y="217.356">find-service handler(handle)</text><polygon fill="#181818" points="804.8384,247.5547,794.8384,251.5547,804.8384,255.5547,800.8384,251.5547" style="stroke:#181818;stroke-width:1;"/><line style="stroke:#181818;stroke-width:1;" x1="798.8384" x2="1149.0557" y1="251.5547" y2="251.5547"/><text fill="#000000" font-family="sans-serif" font-size="13" lengthAdjust="spacing" textLength="193.6289" x="810.8384" y="246.4888">GenericProxy::Create(handle)</text><polygon fill="#181818" points="1557.4448,276.6875,1567.4448,280.6875,1557.4448,284.6875,1561.4448,280.6875" style="stroke:#181818;stroke-width:1;"/><line style="stroke:#181818;stroke-width:1;" x1="1150.0557" x2="1563.4448" y1="280.6875" y2="280.6875"/><text fill="#000000" font-family="sans-serif" font-size="13" lengthAdjust="spacing" textLength="238.7163" x="1157.0557" y="275.6216">Disabled_server_connector::enable()</text><rect fill="#EEEEEE" height="3" style="stroke:#EEEEEE;stroke-width:1;" width="1891.5537" x="0" y="309.2539"/><line style="stroke:#000000;stroke-width:1;" x1="0" x2="1891.5537" y1="309.2539" y2="309.2539"/><line style="stroke:#000000;stroke-width:1;" x1="0" x2="1891.5537" y1="312.2539" y2="312.2539"/><rect fill="#EEEEEE" height="23.1328" style="stroke:#000000;stroke-width:2;" width="110.9224" x="890.3157" y="298.6875"/><text fill="#000000" font-family="sans-serif" font-size="13" font-weight="bold" lengthAdjust="spacing" textLength="92.3965" x="896.3157" y="314.7544">Subscription</text><polygon fill="#181818" points="1161.0557,348.9531,1151.0557,352.9531,1161.0557,356.9531,1157.0557,352.9531" style="stroke:#181818;stroke-width:1;"/><line style="stroke:#181818;stroke-width:1;" x1="1155.0557" x2="1568.4448" y1="352.9531" y2="352.9531"/><text fill="#000000" font-family="sans-serif" font-size="13" lengthAdjust="spacing" textLength="171.4502" x="1167.0557" y="347.8872">subscribe_event(event_id)</text><polygon fill="#181818" points="804.8384,378.0859,794.8384,382.0859,804.8384,386.0859,800.8384,382.0859" style="stroke:#181818;stroke-width:1;"/><line style="stroke:#181818;stroke-width:1;" x1="798.8384" x2="1149.0557" y1="382.0859" y2="382.0859"/><text fill="#000000" font-family="sans-serif" font-size="13" lengthAdjust="spacing" textLength="332.2173" x="810.8384" y="377.02">GenericProxyEvent::Subscribe(max_sample_count)</text><polygon fill="#181818" points="804.8384,407.2188,794.8384,411.2188,804.8384,415.2188,800.8384,411.2188" style="stroke:#181818;stroke-width:1;"/><line style="stroke:#181818;stroke-width:1;" x1="798.8384" x2="1149.0557" y1="411.2188" y2="411.2188"/><text fill="#000000" font-family="sans-serif" font-size="13" lengthAdjust="spacing" textLength="149.5571" x="810.8384" y="406.1528">SetReceiveHandler(cb)</text><polygon fill="#181818" points="446.3232,436.3516,436.3232,440.3516,446.3232,444.3516,442.3232,440.3516" style="stroke:#181818;stroke-width:1;"/><line style="stroke:#181818;stroke-width:1;" x1="440.3232" x2="792.8384" y1="440.3516" y2="440.3516"/><text fill="#000000" font-family="sans-serif" font-size="13" lengthAdjust="spacing" textLength="318.0366" x="452.3232" y="435.2856">receive handler registration changed(registered)</text><polygon fill="#181818" points="78.7881,465.4844,68.7881,469.4844,78.7881,473.4844,74.7881,469.4844" style="stroke:#181818;stroke-width:1;"/><line style="stroke:#181818;stroke-width:1;" x1="72.7881" x2="434.3232" y1="469.4844" y2="469.4844"/><text fill="#000000" font-family="sans-serif" font-size="13" lengthAdjust="spacing" textLength="343.5352" x="84.7881" y="464.4185">Client_connector::subscribe_event(event_id, update)</text><rect fill="#EEEEEE" height="3" style="stroke:#EEEEEE;stroke-width:1;" width="1891.5537" x="0" y="498.0508"/><line style="stroke:#000000;stroke-width:1;" x1="0" x2="1891.5537" y1="498.0508" y2="498.0508"/><line style="stroke:#000000;stroke-width:1;" x1="0" x2="1891.5537" y1="501.0508" y2="501.0508"/><rect fill="#EEEEEE" height="23.1328" style="stroke:#000000;stroke-width:2;" width="116.3623" x="887.5957" y="487.4844"/><text fill="#000000" font-family="sans-serif" font-size="13" font-weight="bold" lengthAdjust="spacing" textLength="97.8364" x="893.5957" y="503.5513">Event update</text><polygon fill="#181818" points="423.3232,537.75,433.3232,541.75,423.3232,545.75,427.3232,541.75" style="stroke:#181818;stroke-width:1;"/><line style="stroke:#181818;stroke-width:1;" x1="67.7881" x2="429.3232" y1="541.75" y2="541.75"/><text fill="#000000" font-family="sans-serif" font-size="13" lengthAdjust="spacing" textLength="218.6069" x="74.7881" y="536.6841">allocate_event_payload(event_id)</text><polygon fill="#181818" points="781.8384,566.8828,791.8384,570.8828,781.8384,574.8828,785.8384,570.8828" style="stroke:#181818;stroke-width:1;"/><line style="stroke:#181818;stroke-width:1;" x1="435.3232" x2="787.8384" y1="570.8828" y2="570.8828"/><text fill="#000000" font-family="sans-serif" font-size="13" lengthAdjust="spacing" textLength="215.5156" x="442.3232" y="565.8169">GenericSkeletonEvent::Allocate()</text><polygon fill="#181818" points="446.3232,596.0156,436.3232,600.0156,446.3232,604.0156,442.3232,600.0156" style="stroke:#181818;stroke-width:1;"/><line style="stroke:#181818;stroke-width:1;stroke-dasharray:2.0,2.0;" x1="440.3232" x2="792.8384" y1="600.0156" y2="600.0156"/><text fill="#000000" font-family="sans-serif" font-size="13" lengthAdjust="spacing" textLength="176.5981" x="452.3232" y="594.9497">SampleAllocateePtr&lt;void&gt;</text><path d="M440,613.0156 L440,683.0156 L776,683.0156 L776,623.0156 L766,613.0156 L440,613.0156 " fill="#FEFFDD" style="stroke:#181818;stroke-width:0.5;"/><path d="M766,613.0156 L766,623.0156 L776,623.0156 L766,613.0156 " fill="#FEFFDD" style="stroke:#181818;stroke-width:0.5;"/><text fill="#000000" font-family="sans-serif" font-size="13" lengthAdjust="spacing" textLength="287.0601" x="446" y="630.0825">Store the SampleAllocateePtr in the in-flight</text><text fill="#000000" font-family="sans-serif" font-size="13" lengthAdjust="spacing" textLength="315.3579" x="446" y="645.2153">table keyed by the minted slot_handle and wrap</text><text fill="#000000" font-family="sans-serif" font-size="13" lengthAdjust="spacing" textLength="291.6304" x="446" y="660.3481">the sample as socom::Writable_payload with</text><text fill="#000000" font-family="sans-serif" font-size="13" lengthAdjust="spacing" textLength="309.7529" x="446" y="675.481">lead_offset = 8 and header_size = header_size.</text><polygon fill="#181818" points="78.7881,705.6797,68.7881,709.6797,78.7881,713.6797,74.7881,709.6797" style="stroke:#181818;stroke-width:1;"/><line style="stroke:#181818;stroke-width:1;stroke-dasharray:2.0,2.0;" x1="72.7881" x2="434.3232" y1="709.6797" y2="709.6797"/><text fill="#000000" font-family="sans-serif" font-size="13" lengthAdjust="spacing" textLength="112.9312" x="84.7881" y="704.6138">Writable_payload</text><line style="stroke:#181818;stroke-width:1;" x1="67.7881" x2="109.7881" y1="738.8125" y2="738.8125"/><line style="stroke:#181818;stroke-width:1;" x1="109.7881" x2="109.7881" y1="738.8125" y2="751.8125"/><line style="stroke:#181818;stroke-width:1;" x1="68.7881" x2="109.7881" y1="751.8125" y2="751.8125"/><polygon fill="#181818" points="78.7881,747.8125,68.7881,751.8125,78.7881,755.8125,74.7881,751.8125" style="stroke:#181818;stroke-width:1;"/><text fill="#000000" font-family="sans-serif" font-size="13" lengthAdjust="spacing" textLength="283.2769" x="74.7881" y="733.7466">write SOME/IP header and payload, shrink()</text><polygon fill="#181818" points="423.3232,776.9453,433.3232,780.9453,423.3232,784.9453,427.3232,780.9453" style="stroke:#181818;stroke-width:1;"/><line style="stroke:#181818;stroke-width:1;" x1="67.7881" x2="429.3232" y1="780.9453" y2="780.9453"/><text fill="#000000" font-family="sans-serif" font-size="13" lengthAdjust="spacing" textLength="214.8237" x="74.7881" y="775.8794">update_event(event_id, payload)</text><line style="stroke:#181818;stroke-width:1;" x1="435.3232" x2="477.3232" y1="825.2109" y2="825.2109"/><line style="stroke:#181818;stroke-width:1;" x1="477.3232" x2="477.3232" y1="825.2109" y2="838.2109"/><line style="stroke:#181818;stroke-width:1;" x1="436.3232" x2="477.3232" y1="838.2109" y2="838.2109"/><polygon fill="#181818" points="446.3232,834.2109,436.3232,838.2109,446.3232,842.2109,442.3232,838.2109" style="stroke:#181818;stroke-width:1;"/><text fill="#000000" font-family="sans-serif" font-size="13" lengthAdjust="spacing" textLength="182.1904" x="442.3232" y="805.0122">write payload_length prefix,</text><text fill="#000000" font-family="sans-serif" font-size="13" lengthAdjust="spacing" textLength="238.6592" x="442.3232" y="820.145">take sample out of the in-flight table</text><polygon fill="#181818" points="781.8384,863.3438,791.8384,867.3438,781.8384,871.3438,785.8384,867.3438" style="stroke:#181818;stroke-width:1;"/><line style="stroke:#181818;stroke-width:1;" x1="435.3232" x2="787.8384" y1="867.3438" y2="867.3438"/><text fill="#000000" font-family="sans-serif" font-size="13" lengthAdjust="spacing" textLength="243.2422" x="442.3232" y="862.2778">GenericSkeletonEvent::Send(sample)</text><polygon fill="#181818" points="1138.0557,892.4766,1148.0557,896.4766,1138.0557,900.4766,1142.0557,896.4766" style="stroke:#181818;stroke-width:1;"/><line style="stroke:#181818;stroke-width:1;" x1="793.8384" x2="1144.0557" y1="896.4766" y2="896.4766"/><text fill="#000000" font-family="sans-serif" font-size="13" lengthAdjust="spacing" textLength="101.5752" x="800.8384" y="891.4106">receive handler</text><polygon fill="#181818" points="804.8384,921.6094,794.8384,925.6094,804.8384,929.6094,800.8384,925.6094" style="stroke:#181818;stroke-width:1;"/><line style="stroke:#181818;stroke-width:1;" x1="798.8384" x2="1149.0557" y1="925.6094" y2="925.6094"/><text fill="#000000" font-family="sans-serif" font-size="13" lengthAdjust="spacing" textLength="303.8496" x="810.8384" y="920.5435">GetNewSamples(receiver, max_sample_count)</text><polygon fill="#181818" points="1138.0557,950.7422,1148.0557,954.7422,1138.0557,958.7422,1142.0557,954.7422" style="stroke:#181818;stroke-width:1;"/><line style="stroke:#181818;stroke-width:1;stroke-dasharray:2.0,2.0;" x1="793.8384" x2="1144.0557" y1="954.7422" y2="954.7422"/><text fill="#000000" font-family="sans-serif" font-size="13" lengthAdjust="spacing" textLength="116.3208" x="800.8384" y="949.6763">SamplePtr&lt;void&gt;</text><path d="M1155,967.7422 L1155,1022.7422 L1493,1022.7422 L1493,977.7422 L1483,967.7422 L1155,967.7422 " fill="#FEFFDD" style="stroke:#181818;stroke-width:0.5;"/><path d="M1483,967.7422 L1483,977.7422 L1493,977.7422 L1483,967.7422 " fill="#FEFFDD" style="stroke:#181818;stroke-width:0.5;"/><text fill="#000000" font-family="sans-serif" font-size="13" lengthAdjust="spacing" textLength="317.0337" x="1161" y="984.8091">Read payload_length, build socom::Payload over</text><text fill="#000000" font-family="sans-serif" font-size="13" lengthAdjust="spacing" textLength="287.0347" x="1161" y="999.9419">the sample and move the SamplePtr into its</text><text fill="#000000" font-family="sans-serif" font-size="13" lengthAdjust="spacing" textLength="135.2495" x="1161" y="1015.0747">destruction callback.</text><polygon fill="#181818" points="1557.4448,1045.2734,1567.4448,1049.2734,1557.4448,1053.2734,1561.4448,1049.2734" style="stroke:#181818;stroke-width:1;"/><line style="stroke:#181818;stroke-width:1;" x1="1150.0557" x2="1563.4448" y1="1049.2734" y2="1049.2734"/><text fill="#000000" font-family="sans-serif" font-size="13" lengthAdjust="spacing" textLength="395.3892" x="1157.0557" y="1044.2075">Enabled_server_connector::update_event(event_id, payload)</text><line style="stroke:#181818;stroke-width:1;" x1="1569.4448" x2="1611.4448" y1="1078.4063" y2="1078.4063"/><line style="stroke:#181818;stroke-width:1;" x1="1611.4448" x2="1611.4448" y1="1078.4063" y2="1091.4063"/><line style="stroke:#181818;stroke-width:1;" x1="1570.4448" x2="1611.4448" y1="1091.4063" y2="1091.4063"/><polygon fill="#181818" points="1580.4448,1087.4063,1570.4448,1091.4063,1580.4448,1095.4063,1576.4448,1091.4063" style="stroke:#181818;stroke-width:1;"/><text fill="#000000" font-family="sans-serif" font-size="13" lengthAdjust="spacing" textLength="308.1089" x="1576.4448" y="1073.3403">payload destroyed, SamplePtr releases the slot</text><rect fill="#EEEEEE" height="3" style="stroke:#EEEEEE;stroke-width:1;" width="1891.5537" x="0" y="1119.9727"/><line style="stroke:#000000;stroke-width:1;" x1="0" x2="1891.5537" y1="1119.9727" y2="1119.9727"/><line style="stroke:#000000;stroke-width:1;" x1="0" x2="1891.5537" y1="1122.9727" y2="1122.9727"/><rect fill="#EEEEEE" height="23.1328" style="stroke:#000000;stroke-width:2;" width="90.8955" x="900.3291" y="1109.4063"/><text fill="#000000" font-family="sans-serif" font-size="13" font-weight="bold" lengthAdjust="spacing" textLength="72.3696" x="906.3291" y="1125.4731">Teardown</text><polygon fill="#181818" points="1161.0557,1159.6719,1151.0557,1163.6719,1161.0557,1167.6719,1157.0557,1163.6719" style="stroke:#181818;stroke-width:1;"/><line style="stroke:#181818;stroke-width:1;" x1="1155.0557" x2="1568.4448" y1="1163.6719" y2="1163.6719"/><text fill="#000000" font-family="sans-serif" font-size="13" lengthAdjust="spacing" textLength="187.9287" x="1167.0557" y="1158.606">unsubscribe_event(event_id)</text><polygon fill="#181818" points="804.8384,1188.8047,794.8384,1192.8047,804.8384,1196.8047,800.8384,1192.8047" style="stroke:#181818;stroke-width:1;"/><line style="stroke:#181818;stroke-width:1;" x1="798.8384" x2="1149.0557" y1="1192.8047" y2="1192.8047"/><text fill="#000000" font-family="sans-serif" font-size="13" lengthAdjust="spacing" textLength="233.0796" x="810.8384" y="1187.7388">UnsetReceiveHandler / Unsubscribe</text><polygon fill="#181818" points="446.3232,1217.9375,436.3232,1221.9375,446.3232,1225.9375,442.3232,1221.9375" style="stroke:#181818;stroke-width:1;"/><line style="stroke:#181818;stroke-width:1;" x1="440.3232" x2="792.8384" y1="1221.9375" y2="1221.9375"/><text fill="#000000" font-family="sans-serif" font-size="13" lengthAdjust="spacing" textLength="334.5151" x="452.3232" y="1216.8716">receive handler registration changed(unregistered)</text><polygon fill="#181818" points="78.7881,1247.0703,68.7881,1251.0703,78.7881,1255.0703,74.7881,1251.0703" style="stroke:#181818;stroke-width:1;"/><line style="stroke:#181818;stroke-width:1;" x1="72.7881" x2="434.3232" y1="1251.0703" y2="1251.0703"/><text fill="#000000" font-family="sans-serif" font-size="13" lengthAdjust="spacing" textLength="305.9443" x="84.7881" y="1246.0044">Client_connector::unsubscribe_event(event_id)</text><!--SRC=[dLJBRjim4BphAnOzoO3JN0kX3X2uGLiWROAeHIy114fSsOGfKY0fA-xNTqLAjkH7q_JY1pcpZzdXEk4aGjhajZ2YTa8hO8e3Rb4vAALkeTG6j4B8ZU0hv63HR4M1KLGpuqGXQaR8Tuz6ywP00wokdrMSFYnrvQ5ePk-0MQW9S4BP2eucwoDckL1SgDK0zvTJIjKcIQ4hId2lxra8NBLqCeKjjR9DTI5oqL-UfqpgBwGW6MPxMXGj5d2xPKAoN4ZXTh1OH5rZS7MphnWIackVsJhcC2lMJAqmPe4gSHRjqSJq7H3jCoeqeaWtAD5fbIGFPOac3P7YMHHmH1XQ84v9dLtroO2oS8ac3j-pQ8yxJKBYl-oIP6cGwZjBw7uJ_fEmNSKy2yFCw5XXuRH94bJT3HNMoJAn4CdYwTDQRO3ac7bxnVup4_prGkywP9AaGu2uOY-PPLKjILlTq8pEXaZHFM61OejVUcMAV2JZQ68cm0O5wVzAM6UOxoPCZyVX40towVoy0n9OUhUC1RhKy1oQcfFkGJdVN7zomL1CIbrqHWeHQhQJcl6HWFzWfrx3spxKmK_JLAbNTK3XepCVjrhmcqXfAi-8rTg1BW_l4o2bNX7S6izmGIX_8zHLAJikuLtd6jZWZfP9llFNbL2kMorIkooCm6-Xrh2w8n0Y3BjxY5PJrKdoomWVQ103Mk7M19R8UARBqgA31NpmSTPqrcq3yPi47lzx7o5TTvsD53nCz3Z7U3JTVKltrFN3jxlhhuzzN9-mny_1herGctXsRgXXuYVMwBad5Xje8McFoYIgbLlJFPRYPVwi7DlinTAD7zL4_w3-6_oIaa9n24XsFRU2ZjxEXSVilcCR_67Zdc7cSFgE3wOSfGZ4IrxSRtI09vh1aJPpo1iX-U2RnzukUki9Os_Hu2ew7bavEDXf4CuIc2FjXAO8Iu7UPCwApSX2PxRddRgqF5-R_dX_Kg31vRu4JKzdFYhHqCIOHHkweKVazyeFP8Rhzj8sRjJRzl5FPO_NALntfqEK_r-iZNhpQlrBzNy0]--></g></svg>